G04 #@! TF.GenerationSoftware,KiCad,Pcbnew,9.0.3*
G04 #@! TF.CreationDate,2025-08-18T18:11:48-04:00*
G04 #@! TF.ProjectId,Calender,43616c65-6e64-4657-922e-6b696361645f,rev?*
G04 #@! TF.SameCoordinates,Original*
G04 #@! TF.FileFunction,Copper,L2,Bot*
G04 #@! TF.FilePolarity,Positive*
%FSLAX46Y46*%
G04 Gerber Fmt 4.6, Leading zero omitted, Abs format (unit mm)*
G04 Created by KiCad (PCBNEW 9.0.3) date 2025-08-18 18:11:48*
%MOMM*%
%LPD*%
G01*
G04 APERTURE LIST*
G04 #@! TA.AperFunction,ComponentPad*
%ADD10C,2.000000*%
G04 #@! TD*
G04 #@! TA.AperFunction,ComponentPad*
%ADD11R,3.000000X3.000000*%
G04 #@! TD*
G04 #@! TA.AperFunction,ComponentPad*
%ADD12C,3.000000*%
G04 #@! TD*
G04 #@! TA.AperFunction,ComponentPad*
%ADD13R,0.850000X0.850000*%
G04 #@! TD*
G04 #@! TA.AperFunction,ComponentPad*
%ADD14C,0.850000*%
G04 #@! TD*
G04 #@! TA.AperFunction,ComponentPad*
%ADD15R,2.000000X2.000000*%
G04 #@! TD*
G04 #@! TA.AperFunction,ComponentPad*
%ADD16R,3.200000X2.000000*%
G04 #@! TD*
G04 #@! TA.AperFunction,HeatsinkPad*
%ADD17O,2.100000X1.000000*%
G04 #@! TD*
G04 #@! TA.AperFunction,HeatsinkPad*
%ADD18O,1.600000X1.000000*%
G04 #@! TD*
G04 #@! TA.AperFunction,ComponentPad*
%ADD19R,1.700000X1.700000*%
G04 #@! TD*
G04 #@! TA.AperFunction,ComponentPad*
%ADD20C,1.700000*%
G04 #@! TD*
G04 #@! TA.AperFunction,SMDPad,CuDef*
%ADD21R,4.000000X4.000000*%
G04 #@! TD*
G04 #@! TA.AperFunction,ViaPad*
%ADD22C,0.600000*%
G04 #@! TD*
G04 #@! TA.AperFunction,Conductor*
%ADD23C,0.200000*%
G04 #@! TD*
G04 #@! TA.AperFunction,Conductor*
%ADD24C,0.400000*%
G04 #@! TD*
G04 APERTURE END LIST*
D10*
G04 #@! TO.P,SW3,1,1*
G04 #@! TO.N,PUSH_NEXT_DAY*
X214000000Y-136500000D03*
X220500000Y-136500000D03*
G04 #@! TO.P,SW3,2,2*
G04 #@! TO.N,GND*
X214000000Y-141000000D03*
X220500000Y-141000000D03*
G04 #@! TD*
D11*
G04 #@! TO.P,J3,1,Pin_1*
G04 #@! TO.N,vbat*
X146685578Y-138500000D03*
D12*
G04 #@! TO.P,J3,2,Pin_2*
G04 #@! TO.N,GND*
X151765578Y-138500000D03*
G04 #@! TD*
D13*
G04 #@! TO.P,J1,1,Pin_1*
G04 #@! TO.N,OUT_3.3V*
X234345000Y-130340000D03*
D14*
G04 #@! TO.P,J1,2,Pin_2*
G04 #@! TO.N,GND*
X234345000Y-131340000D03*
G04 #@! TO.P,J1,3,Pin_3*
G04 #@! TO.N,DIN*
X234345000Y-132340000D03*
G04 #@! TO.P,J1,4,Pin_4*
G04 #@! TO.N,CLK*
X234345000Y-133340000D03*
G04 #@! TO.P,J1,5,Pin_5*
G04 #@! TO.N,CS*
X234345000Y-134340000D03*
G04 #@! TO.P,J1,6,Pin_6*
G04 #@! TO.N,DC*
X234345000Y-135340000D03*
G04 #@! TO.P,J1,7,Pin_7*
G04 #@! TO.N,RST*
X234345000Y-136340000D03*
G04 #@! TO.P,J1,8,Pin_8*
G04 #@! TO.N,BUSY*
X234345000Y-137340000D03*
G04 #@! TO.P,J1,9,Pin_9*
G04 #@! TO.N,OUT_3.3V*
X234345000Y-138340000D03*
G04 #@! TD*
D15*
G04 #@! TO.P,SW1,A,A*
G04 #@! TO.N,ROT_A*
X162750000Y-133000000D03*
D10*
G04 #@! TO.P,SW1,B,B*
G04 #@! TO.N,ROT_B*
X162750000Y-138000000D03*
G04 #@! TO.P,SW1,C,C*
G04 #@! TO.N,GND*
X162750000Y-135500000D03*
D16*
G04 #@! TO.P,SW1,MP*
G04 #@! TO.N,N/C*
X170250000Y-129900000D03*
X170250000Y-141100000D03*
D10*
G04 #@! TO.P,SW1,S1,S1*
G04 #@! TO.N,PUSH_1*
X177250000Y-138000000D03*
G04 #@! TO.P,SW1,S2,S2*
G04 #@! TO.N,PUSH_2*
X177250000Y-133000000D03*
G04 #@! TD*
G04 #@! TO.P,SW2,1,1*
G04 #@! TO.N,Net-(R12-Pad2)*
X229500000Y-117500000D03*
X236000000Y-117500000D03*
G04 #@! TO.P,SW2,2,2*
G04 #@! TO.N,GND*
X229500000Y-122000000D03*
X236000000Y-122000000D03*
G04 #@! TD*
D17*
G04 #@! TO.P,J2,S1,SHIELD*
G04 #@! TO.N,GND*
X149605000Y-116680000D03*
D18*
X145425000Y-116680000D03*
D17*
X149605000Y-125320000D03*
D18*
X145425000Y-125320000D03*
G04 #@! TD*
D19*
G04 #@! TO.P,J4,1,Pin_1*
G04 #@! TO.N,GND*
X196380000Y-124000000D03*
D20*
G04 #@! TO.P,J4,2,Pin_2*
G04 #@! TO.N,OUT_3.3V*
X198920000Y-124000000D03*
G04 #@! TO.P,J4,3,Pin_3*
G04 #@! TO.N,SCK*
X201460000Y-124000000D03*
G04 #@! TO.P,J4,4,Pin_4*
G04 #@! TO.N,SDA*
X204000000Y-124000000D03*
G04 #@! TD*
D10*
G04 #@! TO.P,SW4,1,1*
G04 #@! TO.N,PUSH_BACK_DAY*
X187500000Y-136500000D03*
X194000000Y-136500000D03*
G04 #@! TO.P,SW4,2,2*
G04 #@! TO.N,GND*
X187500000Y-141000000D03*
X194000000Y-141000000D03*
G04 #@! TD*
D21*
G04 #@! TO.P,TP1,1,1*
G04 #@! TO.N,TXD*
X220000000Y-120000000D03*
G04 #@! TD*
G04 #@! TO.P,TP2,1,1*
G04 #@! TO.N,RXD*
X181968375Y-139061091D03*
G04 #@! TD*
G04 #@! TO.P,TP3,1,1*
G04 #@! TO.N,RESET*
X171705075Y-119656447D03*
G04 #@! TD*
G04 #@! TO.P,TP5,1,1*
G04 #@! TO.N,SWCLK*
X210000000Y-119500000D03*
G04 #@! TD*
G04 #@! TO.P,TP4,1,1*
G04 #@! TO.N,SWDIO*
X202000000Y-119500000D03*
G04 #@! TD*
G04 #@! TO.P,TP8,1,1*
G04 #@! TO.N,OUT_3.3V*
X225000000Y-120000000D03*
G04 #@! TD*
D22*
G04 #@! TO.N,GND*
X217372033Y-139719930D03*
X231500000Y-138000000D03*
X228500000Y-138000000D03*
X225500000Y-138000000D03*
X215000000Y-119500000D03*
X225000000Y-123000000D03*
X229500000Y-120500000D03*
X179812298Y-117464170D03*
X161000000Y-135500000D03*
X150000000Y-130500000D03*
X152500000Y-125000000D03*
X186714080Y-122857040D03*
X211000000Y-124000000D03*
X178500000Y-135500000D03*
X178349473Y-128616491D03*
X173687210Y-131087696D03*
G04 #@! TO.N,SDA*
X191176302Y-123593559D03*
G04 #@! TO.N,SWDIO*
X196500000Y-118000000D03*
X183000000Y-119500000D03*
X196500000Y-119500000D03*
G04 #@! TO.N,MOSI*
X208500000Y-142000000D03*
X181707377Y-126587444D03*
G04 #@! TO.N,SCK*
X207247005Y-128424771D03*
X210500000Y-130500000D03*
X191197501Y-124526296D03*
G04 #@! TO.N,MISO*
X183900000Y-128000000D03*
X180000000Y-127500000D03*
G04 #@! TO.N,RESET*
X186000000Y-121000000D03*
G04 #@! TO.N,SWCLK*
X182500000Y-120500000D03*
G04 #@! TO.N,vbus*
X160000000Y-127500000D03*
X158000000Y-127500000D03*
X164582591Y-125768468D03*
X151500000Y-123500000D03*
G04 #@! TO.N,GND*
X194750000Y-119500000D03*
X152500000Y-117000000D03*
X223250000Y-126750000D03*
X199750000Y-127250000D03*
X211250000Y-132500000D03*
X231500000Y-133500000D03*
X158000000Y-126000000D03*
X233000000Y-131340000D03*
X206250000Y-119500000D03*
X187500000Y-131276000D03*
X211000000Y-141000000D03*
X196750000Y-130000000D03*
X227500000Y-129750000D03*
X224250000Y-133500000D03*
X194500000Y-121000000D03*
X211750000Y-126750000D03*
X199000000Y-132000000D03*
X159337500Y-121837500D03*
X194000000Y-123500000D03*
X218500000Y-126750000D03*
X169662500Y-128337500D03*
X206500000Y-130250000D03*
X164750000Y-118224000D03*
X228250000Y-133500000D03*
X197500000Y-141000000D03*
X166250000Y-128276000D03*
X145500000Y-126500000D03*
X208000000Y-131750000D03*
X207000000Y-121750000D03*
X208000000Y-133750000D03*
X169508524Y-126326357D03*
X167000000Y-123500000D03*
X217250000Y-141000000D03*
X176499000Y-117776000D03*
X206500000Y-127250000D03*
X219175500Y-117175500D03*
X202250000Y-127250000D03*
X213000000Y-134250000D03*
X192250000Y-131276000D03*
X209500000Y-130750000D03*
X174750000Y-117750000D03*
X197250000Y-127250000D03*
X185500000Y-116506103D03*
G04 #@! TO.N,vbat*
X149000000Y-132500000D03*
X166000000Y-127500000D03*
G04 #@! TO.N,OUT_5V*
X171500000Y-126000000D03*
X166000000Y-125000000D03*
X175500000Y-119000000D03*
G04 #@! TO.N,D-*
X154000000Y-120000000D03*
X187524263Y-120175734D03*
G04 #@! TO.N,D+*
X154000000Y-121000000D03*
X171500000Y-116500000D03*
X187500000Y-121000000D03*
G04 #@! TO.N,Net-(U3-~{TE})*
X165203833Y-120186937D03*
X161818635Y-120283732D03*
G04 #@! TO.N,OUT_3.3V*
X189500000Y-116000000D03*
X187000000Y-130500000D03*
X184500000Y-131500000D03*
X169000000Y-124500000D03*
X190500000Y-118500000D03*
X228000000Y-124500000D03*
X192000000Y-119290122D03*
X161000000Y-128500000D03*
X192017438Y-120650000D03*
G04 #@! TO.N,Net-(U3-CE)*
X158500000Y-130500000D03*
X166000000Y-126500000D03*
G04 #@! TO.N,Net-(U3-PROG2)*
X167000000Y-122000000D03*
X160000000Y-119500000D03*
G04 #@! TO.N,Net-(U3-PROG3)*
X168100000Y-120000000D03*
X164733988Y-119539444D03*
G04 #@! TO.N,PUSH_1*
X182500000Y-129000000D03*
G04 #@! TO.N,PUSH_2*
X183100000Y-128000000D03*
G04 #@! TO.N,CLK*
X191065020Y-122796203D03*
G04 #@! TO.N,BUSY*
X189072496Y-126844651D03*
G04 #@! TO.N,DC*
X189000000Y-129000000D03*
G04 #@! TO.N,CS*
X187000000Y-128500000D03*
G04 #@! TO.N,DIN*
X190540131Y-121326232D03*
G04 #@! TO.N,RST*
X188500000Y-127500000D03*
G04 #@! TO.N,Net-(U5-RST)*
X222400000Y-122999000D03*
X222400000Y-124400000D03*
G04 #@! TO.N,Net-(U5-TOUT)*
X227546672Y-122873611D03*
X230500000Y-130500000D03*
G04 #@! TO.N,TXD*
X225000000Y-125000000D03*
X221400000Y-122999000D03*
X221200000Y-117300000D03*
X182139352Y-123912500D03*
G04 #@! TO.N,RXD*
X179853049Y-124050010D03*
X225000000Y-126500000D03*
X182000000Y-136000000D03*
G04 #@! TO.N,Net-(U3-~{PG})*
X168832154Y-120322420D03*
X165808282Y-121194058D03*
G04 #@! TO.N,PUSH_NEXT_DAY*
X190250000Y-126750000D03*
G04 #@! TO.N,PUSH_BACK_DAY*
X191500000Y-129000000D03*
G04 #@! TO.N,ROT_A*
X171000000Y-131500000D03*
X182772277Y-123227723D03*
G04 #@! TD*
D23*
G04 #@! TO.N,MISO*
X180000000Y-127500000D02*
X180101000Y-127399000D01*
X180101000Y-127399000D02*
X183348943Y-127399000D01*
X183348943Y-127399000D02*
X183900000Y-127950057D01*
X183900000Y-127950057D02*
X183900000Y-128000000D01*
G04 #@! TO.N,GND*
X197500000Y-141000000D02*
X211000000Y-141000000D01*
X194000000Y-141000000D02*
X197500000Y-141000000D01*
G04 #@! TO.N,Net-(U3-~{TE})*
X165203833Y-120186937D02*
X161915430Y-120186937D01*
X161915430Y-120186937D02*
X161818635Y-120283732D01*
G04 #@! TO.N,vbus*
X160000000Y-127500000D02*
X160000000Y-128349943D01*
X160000000Y-128349943D02*
X160751057Y-129101000D01*
X160751057Y-129101000D02*
X161399000Y-129101000D01*
X161399000Y-129101000D02*
X164582591Y-125917409D01*
X164582591Y-125917409D02*
X164582591Y-125768468D01*
D24*
X157500000Y-127000000D02*
X158000000Y-127500000D01*
X151500000Y-123500000D02*
X154000000Y-123500000D01*
X154000000Y-123500000D02*
X157500000Y-127000000D01*
D23*
G04 #@! TO.N,RESET*
X186000000Y-121000000D02*
X185650057Y-121000000D01*
X171705075Y-119656447D02*
X174861522Y-116500000D01*
X174861522Y-116500000D02*
X181150056Y-116500000D01*
X181150056Y-116500000D02*
X185650057Y-121000000D01*
G04 #@! TO.N,SWDIO*
X185116706Y-121616706D02*
X187819833Y-121616706D01*
X187819833Y-121616706D02*
X189468270Y-119968269D01*
X183000000Y-119500000D02*
X185116706Y-121616706D01*
X189468270Y-119968269D02*
X189904810Y-119968269D01*
X191873079Y-118000000D02*
X196500000Y-118000000D01*
X189904810Y-119968269D02*
X191873079Y-118000000D01*
D24*
G04 #@! TO.N,OUT_3.3V*
X190500000Y-118500000D02*
X189500000Y-117500000D01*
X189500000Y-117500000D02*
X189500000Y-116000000D01*
D23*
G04 #@! TO.N,SWCLK*
X182500000Y-120500000D02*
X184122388Y-122122388D01*
X190776612Y-122122388D02*
X191098000Y-121801000D01*
X184122388Y-122122388D02*
X190776612Y-122122388D01*
X191098000Y-121801000D02*
X204849000Y-121801000D01*
X204849000Y-121801000D02*
X207150000Y-119500000D01*
X207150000Y-119500000D02*
X210000000Y-119500000D01*
G04 #@! TO.N,CLK*
X223248943Y-122399000D02*
X191500000Y-122399000D01*
X191065020Y-122796203D02*
X191102797Y-122796203D01*
X191102797Y-122796203D02*
X191500000Y-122399000D01*
D24*
G04 #@! TO.N,OUT_3.3V*
X192017438Y-120649900D02*
X192000000Y-120632462D01*
X192017438Y-120650000D02*
X192017438Y-120649900D01*
X192000000Y-120632462D02*
X192000000Y-119290122D01*
D23*
G04 #@! TO.N,*
X170250000Y-129900000D02*
X170250000Y-141100000D01*
G04 #@! TO.N,SDA*
X204000000Y-124000000D02*
X202849000Y-122849000D01*
X202849000Y-122849000D02*
X202000000Y-122849000D01*
X202000000Y-122849000D02*
X191920861Y-122849000D01*
X191920861Y-122849000D02*
X191176302Y-123593559D01*
G04 #@! TO.N,SWDIO*
X202000000Y-119500000D02*
X196500000Y-119500000D01*
G04 #@! TO.N,MOSI*
X208199000Y-142301000D02*
X179711108Y-142301000D01*
X175949000Y-138538892D02*
X175949000Y-129051000D01*
X178500000Y-126500000D02*
X181619933Y-126500000D01*
X175949000Y-129051000D02*
X178500000Y-126500000D01*
X181619933Y-126500000D02*
X181707377Y-126587444D01*
X179711108Y-142301000D02*
X175949000Y-138538892D01*
X208500000Y-142000000D02*
X208199000Y-142301000D01*
G04 #@! TO.N,SCK*
X200309000Y-125151000D02*
X191822205Y-125151000D01*
X210500000Y-130500000D02*
X208424771Y-128424771D01*
X191822205Y-125151000D02*
X191197501Y-124526296D01*
X208424771Y-128424771D02*
X207247005Y-128424771D01*
X207247005Y-128424771D02*
X207500000Y-128424771D01*
X201460000Y-124000000D02*
X200309000Y-125151000D01*
G04 #@! TO.N,GND*
X211000000Y-141000000D02*
X214000000Y-141000000D01*
X236000000Y-122000000D02*
X229500000Y-122000000D01*
X214000000Y-141000000D02*
X217250000Y-141000000D01*
X217250000Y-141000000D02*
X220500000Y-141000000D01*
X187500000Y-141000000D02*
X194000000Y-141000000D01*
D24*
G04 #@! TO.N,vbat*
X165500000Y-127500000D02*
X166000000Y-127500000D01*
X160500000Y-132500000D02*
X165500000Y-127500000D01*
X149000000Y-132500000D02*
X160500000Y-132500000D01*
G04 #@! TO.N,OUT_5V*
X171500000Y-126000000D02*
X170898000Y-125398000D01*
X166398000Y-125398000D02*
X166000000Y-125000000D01*
X171500000Y-126000000D02*
X175500000Y-122000000D01*
X175500000Y-122000000D02*
X175500000Y-119000000D01*
X170898000Y-125398000D02*
X166398000Y-125398000D01*
D23*
G04 #@! TO.N,D-*
X182949529Y-115601000D02*
X158399000Y-115601000D01*
X187524263Y-120175734D02*
X182949529Y-115601000D01*
X155370409Y-118629591D02*
X154000000Y-120000000D01*
X158399000Y-115601000D02*
X155500321Y-118499679D01*
X155500321Y-118499679D02*
X155370409Y-118629591D01*
G04 #@! TO.N,D+*
X182502000Y-116002000D02*
X186923263Y-120423263D01*
X186923263Y-120423263D02*
X186923263Y-120424677D01*
X158998000Y-116002000D02*
X172000000Y-116002000D01*
X187275320Y-120776734D02*
X187276734Y-120776734D01*
X187276734Y-120776734D02*
X187500000Y-121000000D01*
X171502000Y-116500000D02*
X172000000Y-116002000D01*
X186923263Y-120424677D02*
X187275320Y-120776734D01*
X172000000Y-116002000D02*
X182502000Y-116002000D01*
X154000000Y-121000000D02*
X158998000Y-116002000D01*
X171500000Y-116500000D02*
X171502000Y-116500000D01*
D24*
G04 #@! TO.N,OUT_3.3V*
X186000000Y-131500000D02*
X187000000Y-130500000D01*
D23*
X225000000Y-121500000D02*
X228000000Y-124500000D01*
D24*
X184500000Y-131500000D02*
X186000000Y-131500000D01*
D23*
X225000000Y-120000000D02*
X225000000Y-121500000D01*
D24*
X161000000Y-127000000D02*
X161000000Y-128500000D01*
X167299000Y-122799000D02*
X165201000Y-122799000D01*
X165201000Y-122799000D02*
X161000000Y-127000000D01*
X169000000Y-124500000D02*
X167299000Y-122799000D01*
D23*
G04 #@! TO.N,Net-(U3-CE)*
X165750000Y-126500000D02*
X166000000Y-126500000D01*
X158500000Y-130500000D02*
X161750000Y-130500000D01*
X161750000Y-130500000D02*
X165750000Y-126500000D01*
G04 #@! TO.N,Net-(U3-PROG2)*
X160000000Y-119500000D02*
X162500000Y-122000000D01*
X162500000Y-122000000D02*
X167000000Y-122000000D01*
G04 #@! TO.N,Net-(U3-PROG3)*
X168039444Y-119539444D02*
X168100000Y-119600000D01*
X164733988Y-119539444D02*
X168039444Y-119539444D01*
X168100000Y-119600000D02*
X168100000Y-120000000D01*
G04 #@! TO.N,PUSH_1*
X177250000Y-138000000D02*
X182500000Y-132750000D01*
X182500000Y-132750000D02*
X182500000Y-129000000D01*
G04 #@! TO.N,PUSH_2*
X183100000Y-128000000D02*
X182250000Y-128000000D01*
X182250000Y-128000000D02*
X177250000Y-133000000D01*
G04 #@! TO.N,CLK*
X232192057Y-133340000D02*
X225601000Y-126748943D01*
X234345000Y-133340000D02*
X232192057Y-133340000D01*
X225601000Y-126748943D02*
X225601000Y-124751057D01*
X225601000Y-124751057D02*
X223248943Y-122399000D01*
G04 #@! TO.N,BUSY*
X221537192Y-139004000D02*
X187029908Y-139004000D01*
X183000000Y-134974092D02*
X183000000Y-131082957D01*
X183000000Y-131082957D02*
X187498117Y-126584840D01*
X187498117Y-126584840D02*
X188812685Y-126584840D01*
X234345000Y-137340000D02*
X223201192Y-137340000D01*
X187029908Y-139004000D02*
X183000000Y-134974092D01*
X188812685Y-126584840D02*
X189072496Y-126844651D01*
X223201192Y-137340000D02*
X221537192Y-139004000D01*
G04 #@! TO.N,DC*
X221204992Y-138202000D02*
X187362108Y-138202000D01*
X186199000Y-137038892D02*
X186199000Y-135961108D01*
X234345000Y-135340000D02*
X224066992Y-135340000D01*
X187362108Y-138202000D02*
X186199000Y-137038892D01*
X186199000Y-135961108D02*
X189000000Y-133160108D01*
X189000000Y-133160108D02*
X189000000Y-129000000D01*
X224066992Y-135340000D02*
X221204992Y-138202000D01*
G04 #@! TO.N,CS*
X187399000Y-128101000D02*
X187000000Y-128500000D01*
X202400000Y-137801000D02*
X192700000Y-128101000D01*
X224499892Y-134340000D02*
X221038892Y-137801000D01*
X221038892Y-137801000D02*
X202400000Y-137801000D01*
X234345000Y-134340000D02*
X224499892Y-134340000D01*
X192700000Y-128101000D02*
X187399000Y-128101000D01*
G04 #@! TO.N,DIN*
X228101000Y-117501000D02*
X228101000Y-122644000D01*
X227174500Y-116574500D02*
X228101000Y-117501000D01*
X234371720Y-132340000D02*
X234345000Y-132340000D01*
X235071000Y-131640720D02*
X234371720Y-132340000D01*
X191751057Y-118689122D02*
X196660821Y-118689122D01*
X235071000Y-129614000D02*
X235071000Y-131640720D01*
X228101000Y-122644000D02*
X235071000Y-129614000D01*
X190540131Y-121326232D02*
X191217535Y-120648828D01*
X198349943Y-117000000D02*
X218501057Y-117000000D01*
X218501057Y-117000000D02*
X218926557Y-116574500D01*
X218926557Y-116574500D02*
X227174500Y-116574500D01*
X191217535Y-119222644D02*
X191751057Y-118689122D01*
X196660821Y-118689122D02*
X198349943Y-117000000D01*
X191217535Y-120648828D02*
X191217535Y-119222644D01*
G04 #@! TO.N,RST*
X221371092Y-138603000D02*
X187196008Y-138603000D01*
X187196008Y-138603000D02*
X183748943Y-135155935D01*
X183748943Y-135155935D02*
X183748943Y-130901114D01*
X234345000Y-136340000D02*
X223634092Y-136340000D01*
X223634092Y-136340000D02*
X221371092Y-138603000D01*
X187114518Y-127535539D02*
X188468450Y-127535539D01*
X183748943Y-130901114D02*
X187114518Y-127535539D01*
G04 #@! TO.N,Net-(U5-RST)*
X222400000Y-124400000D02*
X222400000Y-122999000D01*
G04 #@! TO.N,Net-(U5-TOUT)*
X229000000Y-124110100D02*
X229000000Y-129000000D01*
X229000000Y-129000000D02*
X230500000Y-130500000D01*
X227610183Y-122810100D02*
X227700000Y-122810100D01*
X227700000Y-122810100D02*
X229000000Y-124110100D01*
X227546672Y-122873611D02*
X227610183Y-122810100D01*
G04 #@! TO.N,TXD*
X221600000Y-125601000D02*
X224399000Y-125601000D01*
X224399000Y-125601000D02*
X225000000Y-125000000D01*
X221200000Y-118800000D02*
X221200000Y-117300000D01*
X182139352Y-123912500D02*
X183412500Y-123912500D01*
X185101000Y-125601000D02*
X221600000Y-125601000D01*
X221400000Y-122999000D02*
X221400000Y-125401000D01*
X183412500Y-123912500D02*
X185101000Y-125601000D01*
X221400000Y-125401000D02*
X221600000Y-125601000D01*
X220000000Y-120000000D02*
X221200000Y-118800000D01*
G04 #@! TO.N,RXD*
X182002000Y-126002000D02*
X224502000Y-126002000D01*
X180050010Y-124050010D02*
X181500000Y-125500000D01*
X181500000Y-125500000D02*
X182002000Y-126002000D01*
X181968375Y-136031625D02*
X182000000Y-136000000D01*
X224502000Y-126002000D02*
X225000000Y-126500000D01*
X179853049Y-124050010D02*
X180050010Y-124050010D01*
X181968375Y-139061091D02*
X181968375Y-136031625D01*
G04 #@! TO.N,Net-(R12-Pad2)*
X236000000Y-117500000D02*
X229500000Y-117500000D01*
G04 #@! TO.N,Net-(U3-~{PG})*
X168305942Y-121194058D02*
X165808282Y-121194058D01*
X168832154Y-120322420D02*
X168832154Y-120667846D01*
X168832154Y-120667846D02*
X168305942Y-121194058D01*
G04 #@! TO.N,PUSH_NEXT_DAY*
X204000000Y-126500000D02*
X214000000Y-136500000D01*
X190500000Y-126500000D02*
X204000000Y-126500000D01*
X220500000Y-136500000D02*
X214000000Y-136500000D01*
X190250000Y-126750000D02*
X190500000Y-126500000D01*
G04 #@! TO.N,PUSH_BACK_DAY*
X187500000Y-136500000D02*
X191500000Y-132500000D01*
X191500000Y-132500000D02*
X191500000Y-129000000D01*
X187500000Y-136500000D02*
X194000000Y-136500000D01*
G04 #@! TO.N,ROT_A*
X179252049Y-124428959D02*
X172181008Y-131500000D01*
X179825393Y-123227723D02*
X179252049Y-123801067D01*
X182772277Y-123227723D02*
X179825393Y-123227723D01*
X179252049Y-123801067D02*
X179252049Y-124428959D01*
X172181008Y-131500000D02*
X171000000Y-131500000D01*
G04 #@! TD*
G04 #@! TA.AperFunction,Conductor*
G04 #@! TO.N,GND*
G36*
X148733087Y-115520185D02*
G01*
X148778842Y-115572989D01*
X148788786Y-115642147D01*
X148759761Y-115705703D01*
X148713500Y-115739061D01*
X148581328Y-115793807D01*
X148581315Y-115793814D01*
X148417537Y-115903248D01*
X148417533Y-115903251D01*
X148278251Y-116042533D01*
X148278248Y-116042537D01*
X148168814Y-116206315D01*
X148168807Y-116206328D01*
X148093430Y-116388307D01*
X148093430Y-116388309D01*
X148085138Y-116430000D01*
X148888012Y-116430000D01*
X148870795Y-116439940D01*
X148814940Y-116495795D01*
X148775444Y-116564204D01*
X148755000Y-116640504D01*
X148755000Y-116719496D01*
X148775444Y-116795796D01*
X148814940Y-116864205D01*
X148870795Y-116920060D01*
X148888012Y-116930000D01*
X148085138Y-116930000D01*
X148093430Y-116971690D01*
X148093430Y-116971692D01*
X148168807Y-117153671D01*
X148168814Y-117153684D01*
X148278248Y-117317462D01*
X148278251Y-117317466D01*
X148417533Y-117456748D01*
X148417537Y-117456751D01*
X148581315Y-117566185D01*
X148581328Y-117566192D01*
X148590838Y-117570131D01*
X148645243Y-117613970D01*
X148667310Y-117680264D01*
X148650033Y-117747963D01*
X148646350Y-117753405D01*
X148568719Y-117887863D01*
X148529500Y-118034234D01*
X148529500Y-118185765D01*
X148568719Y-118332136D01*
X148595321Y-118378211D01*
X148644485Y-118463365D01*
X148751635Y-118570515D01*
X148838778Y-118620827D01*
X148879809Y-118644517D01*
X148882865Y-118646281D01*
X149029234Y-118685500D01*
X149029236Y-118685500D01*
X149180764Y-118685500D01*
X149180766Y-118685500D01*
X149327135Y-118646281D01*
X149458365Y-118570515D01*
X149565515Y-118463365D01*
X149641281Y-118332135D01*
X149680500Y-118185766D01*
X149680500Y-118034234D01*
X149641281Y-117887865D01*
X149565515Y-117756635D01*
X149458365Y-117649485D01*
X149436427Y-117636819D01*
X149416998Y-117625601D01*
X149368784Y-117575033D01*
X149355000Y-117518215D01*
X149355000Y-116980000D01*
X149855000Y-116980000D01*
X149855000Y-117680000D01*
X150253492Y-117680000D01*
X150253495Y-117679999D01*
X150446681Y-117641572D01*
X150446693Y-117641569D01*
X150628671Y-117566192D01*
X150628684Y-117566185D01*
X150792462Y-117456751D01*
X150792466Y-117456748D01*
X150931748Y-117317466D01*
X150931751Y-117317462D01*
X151041185Y-117153684D01*
X151041192Y-117153671D01*
X151116569Y-116971692D01*
X151116569Y-116971690D01*
X151124862Y-116930000D01*
X150321988Y-116930000D01*
X150339205Y-116920060D01*
X150395060Y-116864205D01*
X150434556Y-116795796D01*
X150455000Y-116719496D01*
X150455000Y-116640504D01*
X150434556Y-116564204D01*
X150395060Y-116495795D01*
X150339205Y-116439940D01*
X150321988Y-116430000D01*
X151124862Y-116430000D01*
X151116569Y-116388309D01*
X151116569Y-116388307D01*
X151041192Y-116206328D01*
X151041185Y-116206315D01*
X150931751Y-116042537D01*
X150931748Y-116042533D01*
X150792466Y-115903251D01*
X150792462Y-115903248D01*
X150628684Y-115793814D01*
X150628671Y-115793807D01*
X150496500Y-115739061D01*
X150442096Y-115695220D01*
X150420031Y-115628926D01*
X150437310Y-115561227D01*
X150488447Y-115513616D01*
X150543952Y-115500500D01*
X157350903Y-115500500D01*
X157417942Y-115520185D01*
X157463697Y-115572989D01*
X157473641Y-115642147D01*
X157444616Y-115705703D01*
X157438584Y-115712181D01*
X155001693Y-118149072D01*
X153985339Y-119165425D01*
X153924016Y-119198910D01*
X153921850Y-119199361D01*
X153766508Y-119230261D01*
X153766498Y-119230264D01*
X153620827Y-119290602D01*
X153620814Y-119290609D01*
X153489711Y-119378210D01*
X153489707Y-119378213D01*
X153378213Y-119489707D01*
X153378210Y-119489711D01*
X153290609Y-119620814D01*
X153290602Y-119620827D01*
X153230264Y-119766498D01*
X153230261Y-119766510D01*
X153199500Y-119921153D01*
X153199500Y-120078846D01*
X153230261Y-120233489D01*
X153230264Y-120233501D01*
X153290602Y-120379172D01*
X153290609Y-120379185D01*
X153325304Y-120431109D01*
X153346182Y-120497786D01*
X153327698Y-120565167D01*
X153325304Y-120568891D01*
X153290609Y-120620814D01*
X153290602Y-120620827D01*
X153230264Y-120766498D01*
X153230261Y-120766510D01*
X153199500Y-120921153D01*
X153199500Y-121078846D01*
X153230261Y-121233489D01*
X153230264Y-121233501D01*
X153290602Y-121379172D01*
X153290609Y-121379185D01*
X153378210Y-121510288D01*
X153378213Y-121510292D01*
X153489707Y-121621786D01*
X153489711Y-121621789D01*
X153620814Y-121709390D01*
X153620827Y-121709397D01*
X153760844Y-121767393D01*
X153766503Y-121769737D01*
X153921153Y-121800499D01*
X153921156Y-121800500D01*
X153921158Y-121800500D01*
X154078844Y-121800500D01*
X154078845Y-121800499D01*
X154233497Y-121769737D01*
X154379179Y-121709394D01*
X154510289Y-121621789D01*
X154621789Y-121510289D01*
X154709394Y-121379179D01*
X154769737Y-121233497D01*
X154797735Y-121092742D01*
X154800638Y-121078150D01*
X154833023Y-121016239D01*
X154834518Y-121014716D01*
X159210416Y-116638819D01*
X159271739Y-116605334D01*
X159298097Y-116602500D01*
X170602442Y-116602500D01*
X170669481Y-116622185D01*
X170715236Y-116674989D01*
X170724059Y-116702309D01*
X170730261Y-116733489D01*
X170730263Y-116733498D01*
X170790602Y-116879172D01*
X170790609Y-116879185D01*
X170846650Y-116963056D01*
X170867528Y-117029734D01*
X170849043Y-117097114D01*
X170797064Y-117143804D01*
X170743548Y-117155947D01*
X169657204Y-117155947D01*
X169657198Y-117155948D01*
X169597591Y-117162355D01*
X169462746Y-117212649D01*
X169462739Y-117212653D01*
X169347530Y-117298899D01*
X169347527Y-117298902D01*
X169261281Y-117414111D01*
X169261277Y-117414118D01*
X169210983Y-117548964D01*
X169204576Y-117608563D01*
X169204575Y-117608582D01*
X169204575Y-119429222D01*
X169184890Y-119496261D01*
X169132086Y-119542016D01*
X169062928Y-119551960D01*
X169056384Y-119550839D01*
X168910999Y-119521920D01*
X168910996Y-119521920D01*
X168805360Y-119521920D01*
X168775919Y-119513275D01*
X168745933Y-119506752D01*
X168740917Y-119502997D01*
X168738321Y-119502235D01*
X168717679Y-119485601D01*
X168704770Y-119472692D01*
X168672677Y-119417105D01*
X168659577Y-119368215D01*
X168621175Y-119301701D01*
X168580520Y-119231284D01*
X168468716Y-119119480D01*
X168408160Y-119058924D01*
X168408158Y-119058923D01*
X168408153Y-119058919D01*
X168305235Y-118999500D01*
X168305232Y-118999499D01*
X168271230Y-118979867D01*
X168271231Y-118979867D01*
X168210137Y-118963497D01*
X168118501Y-118938943D01*
X167960387Y-118938943D01*
X167952791Y-118938943D01*
X167952775Y-118938944D01*
X165313754Y-118938944D01*
X165246715Y-118919259D01*
X165244863Y-118918046D01*
X165113173Y-118830053D01*
X165113160Y-118830046D01*
X164967489Y-118769708D01*
X164967477Y-118769705D01*
X164812833Y-118738944D01*
X164812830Y-118738944D01*
X164655146Y-118738944D01*
X164655143Y-118738944D01*
X164500498Y-118769705D01*
X164500486Y-118769708D01*
X164354815Y-118830046D01*
X164354802Y-118830053D01*
X164223699Y-118917654D01*
X164223695Y-118917657D01*
X164112201Y-119029151D01*
X164112198Y-119029155D01*
X164024597Y-119160258D01*
X164024590Y-119160271D01*
X163964252Y-119305942D01*
X163964249Y-119305954D01*
X163933488Y-119460597D01*
X163933488Y-119462437D01*
X163933215Y-119463364D01*
X163932891Y-119466662D01*
X163932265Y-119466600D01*
X163913803Y-119529476D01*
X163860999Y-119575231D01*
X163809488Y-119586437D01*
X162251510Y-119586437D01*
X162204298Y-119574602D01*
X162203443Y-119576669D01*
X162052136Y-119513996D01*
X162052124Y-119513993D01*
X161897480Y-119483232D01*
X161897477Y-119483232D01*
X161739793Y-119483232D01*
X161739790Y-119483232D01*
X161585145Y-119513993D01*
X161585133Y-119513996D01*
X161439462Y-119574334D01*
X161439449Y-119574341D01*
X161308346Y-119661942D01*
X161247442Y-119722846D01*
X161186118Y-119756330D01*
X161116427Y-119751345D01*
X161072080Y-119722845D01*
X160834574Y-119485339D01*
X160801089Y-119424016D01*
X160800638Y-119421849D01*
X160774531Y-119290606D01*
X160769737Y-119266503D01*
X160756062Y-119233489D01*
X160709397Y-119120827D01*
X160709390Y-119120814D01*
X160621789Y-118989711D01*
X160621786Y-118989707D01*
X160510292Y-118878213D01*
X160510288Y-118878210D01*
X160379185Y-118790609D01*
X160379172Y-118790602D01*
X160233501Y-118730264D01*
X160233489Y-118730261D01*
X160078845Y-118699500D01*
X160078842Y-118699500D01*
X159921158Y-118699500D01*
X159921155Y-118699500D01*
X159766510Y-118730261D01*
X159766498Y-118730264D01*
X159620827Y-118790602D01*
X159620814Y-118790609D01*
X159489711Y-118878210D01*
X159489707Y-118878213D01*
X159378213Y-118989707D01*
X159378210Y-118989711D01*
X159290609Y-119120814D01*
X159290602Y-119120827D01*
X159230264Y-119266498D01*
X159230261Y-119266510D01*
X159199500Y-119421153D01*
X159199500Y-119578846D01*
X159230261Y-119733489D01*
X159230264Y-119733501D01*
X159290602Y-119879172D01*
X159290609Y-119879185D01*
X159378210Y-120010288D01*
X159378213Y-120010292D01*
X159489707Y-120121786D01*
X159489711Y-120121789D01*
X159620814Y-120209390D01*
X159620827Y-120209397D01*
X159742317Y-120259719D01*
X159766503Y-120269737D01*
X159831147Y-120282595D01*
X159921849Y-120300638D01*
X159983760Y-120333023D01*
X159985339Y-120334574D01*
X162015139Y-122364374D01*
X162015149Y-122364385D01*
X162019479Y-122368715D01*
X162019480Y-122368716D01*
X162131284Y-122480520D01*
X162186708Y-122512518D01*
X162218095Y-122530639D01*
X162218097Y-122530641D01*
X162251628Y-122550000D01*
X162268215Y-122559577D01*
X162420943Y-122600501D01*
X162420946Y-122600501D01*
X162586653Y-122600501D01*
X162586669Y-122600500D01*
X164109481Y-122600500D01*
X164176520Y-122620185D01*
X164222275Y-122672989D01*
X164232219Y-122742147D01*
X164203194Y-122805703D01*
X164197162Y-122812181D01*
X160455888Y-126553453D01*
X160455885Y-126553456D01*
X160379221Y-126668192D01*
X160378308Y-126669902D01*
X160377594Y-126670628D01*
X160375840Y-126673254D01*
X160375341Y-126672921D01*
X160329341Y-126719742D01*
X160261202Y-126735196D01*
X160239505Y-126731281D01*
X160239472Y-126731451D01*
X160078845Y-126699500D01*
X160078842Y-126699500D01*
X159921158Y-126699500D01*
X159921155Y-126699500D01*
X159766510Y-126730261D01*
X159766498Y-126730264D01*
X159620827Y-126790602D01*
X159620814Y-126790609D01*
X159489711Y-126878210D01*
X159489707Y-126878213D01*
X159378213Y-126989707D01*
X159378210Y-126989711D01*
X159290609Y-127120814D01*
X159290602Y-127120827D01*
X159230264Y-127266498D01*
X159230261Y-127266510D01*
X159199500Y-127421153D01*
X159199500Y-127578846D01*
X159230261Y-127733489D01*
X159230264Y-127733501D01*
X159290602Y-127879172D01*
X159290609Y-127879185D01*
X159378602Y-128010874D01*
X159384252Y-128028920D01*
X159394477Y-128044830D01*
X159398928Y-128075789D01*
X159399480Y-128077551D01*
X159399500Y-128079765D01*
X159399500Y-128263273D01*
X159399499Y-128263291D01*
X159399499Y-128428997D01*
X159399498Y-128428997D01*
X159440423Y-128581728D01*
X159465694Y-128625497D01*
X159465695Y-128625501D01*
X159465696Y-128625501D01*
X159516187Y-128712956D01*
X159519479Y-128718657D01*
X159519481Y-128718660D01*
X159638349Y-128837528D01*
X159638355Y-128837533D01*
X160266196Y-129465374D01*
X160266206Y-129465385D01*
X160270536Y-129469715D01*
X160270537Y-129469716D01*
X160382341Y-129581520D01*
X160452090Y-129621789D01*
X160519272Y-129660577D01*
X160523106Y-129661604D01*
X160533346Y-129667347D01*
X160552837Y-129687284D01*
X160574549Y-129704781D01*
X160576926Y-129711925D01*
X160582189Y-129717308D01*
X160587806Y-129744616D01*
X160596613Y-129771075D01*
X160594750Y-129778369D01*
X160596268Y-129785744D01*
X160586229Y-129811756D01*
X160579333Y-129838774D01*
X160573822Y-129843904D01*
X160571112Y-129850928D01*
X160548604Y-129867383D01*
X160528196Y-129886384D01*
X160519949Y-129888332D01*
X160514709Y-129892164D01*
X160499988Y-129893049D01*
X160472692Y-129899500D01*
X159079766Y-129899500D01*
X159012727Y-129879815D01*
X159010875Y-129878602D01*
X158879185Y-129790609D01*
X158879172Y-129790602D01*
X158733501Y-129730264D01*
X158733489Y-129730261D01*
X158578845Y-129699500D01*
X158578842Y-129699500D01*
X158421158Y-129699500D01*
X158421155Y-129699500D01*
X158266510Y-129730261D01*
X158266498Y-129730264D01*
X158120827Y-129790602D01*
X158120814Y-129790609D01*
X157989711Y-129878210D01*
X157989707Y-129878213D01*
X157878213Y-129989707D01*
X157878210Y-129989711D01*
X157790609Y-130120814D01*
X157790602Y-130120827D01*
X157730264Y-130266498D01*
X157730261Y-130266510D01*
X157699500Y-130421153D01*
X157699500Y-130578846D01*
X157730261Y-130733489D01*
X157730264Y-130733501D01*
X157790602Y-130879172D01*
X157790609Y-130879185D01*
X157878210Y-131010288D01*
X157878213Y-131010292D01*
X157989707Y-131121786D01*
X157989711Y-131121789D01*
X158120814Y-131209390D01*
X158120827Y-131209397D01*
X158240801Y-131259091D01*
X158266503Y-131269737D01*
X158369739Y-131290272D01*
X158421153Y-131300499D01*
X158421156Y-131300500D01*
X158421158Y-131300500D01*
X158578844Y-131300500D01*
X158578845Y-131300499D01*
X158733497Y-131269737D01*
X158879179Y-131209394D01*
X158979546Y-131142331D01*
X159010875Y-131121398D01*
X159077553Y-131100520D01*
X159079766Y-131100500D01*
X160609481Y-131100500D01*
X160676520Y-131120185D01*
X160722275Y-131172989D01*
X160732219Y-131242147D01*
X160703194Y-131305703D01*
X160697162Y-131312181D01*
X160246162Y-131763181D01*
X160184839Y-131796666D01*
X160158481Y-131799500D01*
X149425316Y-131799500D01*
X149377864Y-131790061D01*
X149233501Y-131730264D01*
X149233489Y-131730261D01*
X149078845Y-131699500D01*
X149078842Y-131699500D01*
X148921158Y-131699500D01*
X148921155Y-131699500D01*
X148766510Y-131730261D01*
X148766498Y-131730264D01*
X148620827Y-131790602D01*
X148620814Y-131790609D01*
X148489711Y-131878210D01*
X148489707Y-131878213D01*
X148378213Y-131989707D01*
X148378210Y-131989711D01*
X148290609Y-132120814D01*
X148290602Y-132120827D01*
X148230264Y-132266498D01*
X148230261Y-132266510D01*
X148199500Y-132421153D01*
X148199500Y-132578846D01*
X148230261Y-132733489D01*
X148230264Y-132733501D01*
X148290602Y-132879172D01*
X148290609Y-132879185D01*
X148378210Y-133010288D01*
X148378213Y-133010292D01*
X148489707Y-133121786D01*
X148489711Y-133121789D01*
X148620814Y-133209390D01*
X148620827Y-133209397D01*
X148716067Y-133248846D01*
X148766503Y-133269737D01*
X148921153Y-133300499D01*
X148921156Y-133300500D01*
X148921158Y-133300500D01*
X149078844Y-133300500D01*
X149078845Y-133300499D01*
X149233497Y-133269737D01*
X149308963Y-133238478D01*
X149377864Y-133209939D01*
X149425316Y-133200500D01*
X160568996Y-133200500D01*
X160660040Y-133182389D01*
X160704328Y-133173580D01*
X160768069Y-133147177D01*
X160831807Y-133120777D01*
X160831808Y-133120776D01*
X160831811Y-133120775D01*
X160946543Y-133044114D01*
X161037819Y-132952837D01*
X161099141Y-132919353D01*
X161168833Y-132924337D01*
X161224767Y-132966208D01*
X161249184Y-133031672D01*
X161249500Y-133040519D01*
X161249500Y-134047870D01*
X161249501Y-134047876D01*
X161255908Y-134107483D01*
X161306202Y-134242328D01*
X161306206Y-134242335D01*
X161392452Y-134357544D01*
X161392453Y-134357544D01*
X161392454Y-134357546D01*
X161436563Y-134390566D01*
X161510599Y-134445990D01*
X161552469Y-134501924D01*
X161557453Y-134571615D01*
X161536605Y-134618141D01*
X161467087Y-134713824D01*
X161359897Y-134924197D01*
X161286934Y-135148752D01*
X161250000Y-135381947D01*
X161250000Y-135618052D01*
X161286934Y-135851247D01*
X161359897Y-136075802D01*
X161467087Y-136286174D01*
X161527338Y-136369104D01*
X161527340Y-136369105D01*
X162267037Y-135629408D01*
X162284075Y-135692993D01*
X162349901Y-135807007D01*
X162442993Y-135900099D01*
X162557007Y-135965925D01*
X162620590Y-135982962D01*
X161874280Y-136729271D01*
X161865105Y-136772947D01*
X161828739Y-136814615D01*
X161772490Y-136855482D01*
X161605485Y-137022487D01*
X161605485Y-137022488D01*
X161605483Y-137022490D01*
X161548805Y-137100500D01*
X161466657Y-137213566D01*
X161359433Y-137424003D01*
X161286446Y-137648631D01*
X161249500Y-137881902D01*
X161249500Y-138118097D01*
X161286446Y-138351368D01*
X161359433Y-138575996D01*
X161458628Y-138770675D01*
X161466657Y-138786433D01*
X161605483Y-138977510D01*
X161772490Y-139144517D01*
X161963567Y-139283343D01*
X162062991Y-139334002D01*
X162174003Y-139390566D01*
X162174005Y-139390566D01*
X162174008Y-139390568D01*
X162294412Y-139429689D01*
X162398631Y-139463553D01*
X162631903Y-139500500D01*
X162631908Y-139500500D01*
X162868097Y-139500500D01*
X163101368Y-139463553D01*
X163325992Y-139390568D01*
X163536433Y-139283343D01*
X163727510Y-139144517D01*
X163894517Y-138977510D01*
X164033343Y-138786433D01*
X164140568Y-138575992D01*
X164213553Y-138351368D01*
X164229791Y-138248846D01*
X164250500Y-138118097D01*
X164250500Y-137881902D01*
X164213553Y-137648631D01*
X164157952Y-137477510D01*
X164140568Y-137424008D01*
X164140566Y-137424005D01*
X164140566Y-137424003D01*
X164063948Y-137273633D01*
X164033343Y-137213567D01*
X163894517Y-137022490D01*
X163727510Y-136855483D01*
X163671259Y-136814614D01*
X163628595Y-136759284D01*
X163623902Y-136727455D01*
X162879408Y-135982962D01*
X162942993Y-135965925D01*
X163057007Y-135900099D01*
X163150099Y-135807007D01*
X163215925Y-135692993D01*
X163232962Y-135629409D01*
X163972658Y-136369105D01*
X163972658Y-136369104D01*
X164032914Y-136286169D01*
X164032918Y-136286163D01*
X164140102Y-136075802D01*
X164213065Y-135851247D01*
X164250000Y-135618052D01*
X164250000Y-135381947D01*
X164213065Y-135148752D01*
X164140102Y-134924197D01*
X164032914Y-134713828D01*
X163963394Y-134618142D01*
X163939914Y-134552335D01*
X163955739Y-134484281D01*
X163989401Y-134445989D01*
X163992329Y-134443796D01*
X163992331Y-134443796D01*
X164107546Y-134357546D01*
X164193796Y-134242331D01*
X164244091Y-134107483D01*
X164250500Y-134047873D01*
X164250499Y-131952128D01*
X164244091Y-131892517D01*
X164239134Y-131879227D01*
X164193797Y-131757671D01*
X164193793Y-131757664D01*
X164107547Y-131642455D01*
X164107544Y-131642452D01*
X163992335Y-131556206D01*
X163992328Y-131556202D01*
X163857482Y-131505908D01*
X163857483Y-131505908D01*
X163797883Y-131499501D01*
X163797881Y-131499500D01*
X163797873Y-131499500D01*
X163797865Y-131499500D01*
X162790518Y-131499500D01*
X162723479Y-131479815D01*
X162677724Y-131427011D01*
X162667780Y-131357853D01*
X162696805Y-131294297D01*
X162702837Y-131287819D01*
X164183139Y-129807517D01*
X165681616Y-128309039D01*
X165742937Y-128275556D01*
X165793486Y-128275105D01*
X165921153Y-128300499D01*
X165921156Y-128300500D01*
X165921158Y-128300500D01*
X166078844Y-128300500D01*
X166078845Y-128300499D01*
X166233497Y-128269737D01*
X166379179Y-128209394D01*
X166510289Y-128121789D01*
X166621789Y-128010289D01*
X166709394Y-127879179D01*
X166769737Y-127733497D01*
X166800500Y-127578842D01*
X166800500Y-127421158D01*
X166800500Y-127421155D01*
X166800499Y-127421153D01*
X166783921Y-127337809D01*
X166769737Y-127266503D01*
X166764491Y-127253838D01*
X166709396Y-127120825D01*
X166709394Y-127120822D01*
X166709394Y-127120821D01*
X166674694Y-127068889D01*
X166653816Y-127002215D01*
X166672300Y-126934835D01*
X166674676Y-126931136D01*
X166709394Y-126879179D01*
X166769737Y-126733497D01*
X166800500Y-126578842D01*
X166800500Y-126421158D01*
X166800500Y-126421155D01*
X166800499Y-126421153D01*
X166792150Y-126379179D01*
X166769737Y-126266503D01*
X166769732Y-126266492D01*
X166767969Y-126260676D01*
X166770097Y-126260030D01*
X166763699Y-126200476D01*
X166794977Y-126137999D01*
X166855068Y-126102350D01*
X166885727Y-126098500D01*
X170556481Y-126098500D01*
X170585921Y-126107144D01*
X170615908Y-126113668D01*
X170620923Y-126117422D01*
X170623520Y-126118185D01*
X170644162Y-126134819D01*
X170703928Y-126194585D01*
X170730808Y-126234814D01*
X170790602Y-126379172D01*
X170790609Y-126379185D01*
X170878210Y-126510288D01*
X170878213Y-126510292D01*
X170989707Y-126621786D01*
X170989711Y-126621789D01*
X171120814Y-126709390D01*
X171120827Y-126709397D01*
X171225753Y-126752858D01*
X171266503Y-126769737D01*
X171421153Y-126800499D01*
X171421156Y-126800500D01*
X171421158Y-126800500D01*
X171578844Y-126800500D01*
X171578845Y-126800499D01*
X171733497Y-126769737D01*
X171879179Y-126709394D01*
X172010289Y-126621789D01*
X172121789Y-126510289D01*
X172209394Y-126379179D01*
X172209395Y-126379176D01*
X172209397Y-126379173D01*
X172256063Y-126266510D01*
X172269192Y-126234810D01*
X172296071Y-126194585D01*
X176044114Y-122446543D01*
X176120775Y-122331811D01*
X176173580Y-122204329D01*
X176183005Y-122156946D01*
X176200500Y-122068993D01*
X176200500Y-119425316D01*
X176209939Y-119377864D01*
X176246082Y-119290606D01*
X176269737Y-119233497D01*
X176300500Y-119078842D01*
X176300500Y-118921158D01*
X176300500Y-118921155D01*
X176300499Y-118921153D01*
X176291100Y-118873903D01*
X176269737Y-118766503D01*
X176256066Y-118733497D01*
X176209397Y-118620827D01*
X176209390Y-118620814D01*
X176121789Y-118489711D01*
X176121786Y-118489707D01*
X176010292Y-118378213D01*
X176010288Y-118378210D01*
X175879185Y-118290609D01*
X175879172Y-118290602D01*
X175733501Y-118230264D01*
X175733489Y-118230261D01*
X175578845Y-118199500D01*
X175578842Y-118199500D01*
X175421158Y-118199500D01*
X175421155Y-118199500D01*
X175266510Y-118230261D01*
X175266498Y-118230264D01*
X175120827Y-118290602D01*
X175120814Y-118290609D01*
X174989711Y-118378210D01*
X174989707Y-118378213D01*
X174878213Y-118489707D01*
X174878210Y-118489711D01*
X174790609Y-118620814D01*
X174790602Y-118620827D01*
X174730264Y-118766498D01*
X174730261Y-118766510D01*
X174699500Y-118921153D01*
X174699500Y-119078846D01*
X174730261Y-119233489D01*
X174730264Y-119233501D01*
X174790061Y-119377864D01*
X174799500Y-119425316D01*
X174799500Y-121658481D01*
X174779815Y-121725520D01*
X174763181Y-121746162D01*
X171587681Y-124921661D01*
X171526358Y-124955146D01*
X171456666Y-124950162D01*
X171412319Y-124921661D01*
X171344545Y-124853887D01*
X171229807Y-124777222D01*
X171102332Y-124724421D01*
X171102322Y-124724418D01*
X170966996Y-124697500D01*
X170966994Y-124697500D01*
X170966993Y-124697500D01*
X169924500Y-124697500D01*
X169857461Y-124677815D01*
X169811706Y-124625011D01*
X169800500Y-124573500D01*
X169800500Y-124421155D01*
X169800499Y-124421153D01*
X169791671Y-124376771D01*
X169769737Y-124266503D01*
X169757442Y-124236819D01*
X169709397Y-124120827D01*
X169709390Y-124120814D01*
X169621789Y-123989711D01*
X169621786Y-123989707D01*
X169510292Y-123878213D01*
X169510288Y-123878210D01*
X169379185Y-123790609D01*
X169379172Y-123790602D01*
X169234814Y-123730808D01*
X169194585Y-123703928D01*
X167809041Y-122318384D01*
X167775556Y-122257061D01*
X167775105Y-122206511D01*
X167800500Y-122078844D01*
X167800500Y-121918558D01*
X167820185Y-121851519D01*
X167872989Y-121805764D01*
X167924500Y-121794558D01*
X168219273Y-121794558D01*
X168219289Y-121794559D01*
X168226885Y-121794559D01*
X168384996Y-121794559D01*
X168384999Y-121794559D01*
X168537727Y-121753635D01*
X168621253Y-121705411D01*
X168674658Y-121674578D01*
X168786462Y-121562774D01*
X168786462Y-121562772D01*
X168796666Y-121552569D01*
X168796670Y-121552564D01*
X168992896Y-121356337D01*
X169054217Y-121322854D01*
X169123909Y-121327838D01*
X169179842Y-121369710D01*
X169204259Y-121435174D01*
X169204575Y-121444020D01*
X169204575Y-121704316D01*
X169204576Y-121704323D01*
X169210983Y-121763930D01*
X169261277Y-121898775D01*
X169261281Y-121898782D01*
X169347527Y-122013991D01*
X169347530Y-122013994D01*
X169462739Y-122100240D01*
X169462746Y-122100244D01*
X169597592Y-122150538D01*
X169597591Y-122150538D01*
X169604519Y-122151282D01*
X169657202Y-122156947D01*
X173752947Y-122156946D01*
X173812558Y-122150538D01*
X173947406Y-122100243D01*
X174062621Y-122013993D01*
X174148871Y-121898778D01*
X174199166Y-121763930D01*
X174205575Y-121704320D01*
X174205574Y-118056543D01*
X174225259Y-117989505D01*
X174241893Y-117968863D01*
X175073938Y-117136819D01*
X175135261Y-117103334D01*
X175161619Y-117100500D01*
X180849959Y-117100500D01*
X180916998Y-117120185D01*
X180937640Y-117136819D01*
X182496953Y-118696132D01*
X182530438Y-118757455D01*
X182525454Y-118827147D01*
X182492873Y-118872758D01*
X182494018Y-118873903D01*
X182378213Y-118989707D01*
X182378210Y-118989711D01*
X182290609Y-119120814D01*
X182290602Y-119120827D01*
X182230264Y-119266498D01*
X182230261Y-119266510D01*
X182199500Y-119421153D01*
X182199500Y-119578846D01*
X182212573Y-119644568D01*
X182206346Y-119714159D01*
X182163483Y-119769337D01*
X182138411Y-119783319D01*
X182120826Y-119790603D01*
X182120814Y-119790609D01*
X181989711Y-119878210D01*
X181989707Y-119878213D01*
X181878213Y-119989707D01*
X181878210Y-119989711D01*
X181790609Y-120120814D01*
X181790602Y-120120827D01*
X181730264Y-120266498D01*
X181730261Y-120266510D01*
X181699500Y-120421153D01*
X181699500Y-120578846D01*
X181730261Y-120733489D01*
X181730264Y-120733501D01*
X181790602Y-120879172D01*
X181790609Y-120879185D01*
X181878210Y-121010288D01*
X181878213Y-121010292D01*
X181989707Y-121121786D01*
X181989711Y-121121789D01*
X182120814Y-121209390D01*
X182120827Y-121209397D01*
X182212540Y-121247385D01*
X182266503Y-121269737D01*
X182320798Y-121280537D01*
X182421849Y-121300638D01*
X182483760Y-121333023D01*
X182485339Y-121334574D01*
X183637527Y-122486762D01*
X183637537Y-122486773D01*
X183641867Y-122491103D01*
X183641868Y-122491104D01*
X183753672Y-122602908D01*
X183836105Y-122650500D01*
X183890603Y-122681965D01*
X184043331Y-122722888D01*
X190140520Y-122722888D01*
X190207559Y-122742573D01*
X190253314Y-122795377D01*
X190264520Y-122846888D01*
X190264520Y-122875049D01*
X190295281Y-123029692D01*
X190295284Y-123029704D01*
X190355622Y-123175375D01*
X190355629Y-123175388D01*
X190397471Y-123238008D01*
X190418349Y-123304685D01*
X190408933Y-123354345D01*
X190406565Y-123360062D01*
X190406562Y-123360070D01*
X190375802Y-123514712D01*
X190375802Y-123672405D01*
X190406563Y-123827048D01*
X190406566Y-123827060D01*
X190466906Y-123972735D01*
X190466907Y-123972737D01*
X190466908Y-123972738D01*
X190479341Y-123991346D01*
X190489734Y-124006899D01*
X190510612Y-124073576D01*
X190492128Y-124140956D01*
X190489739Y-124144674D01*
X190488111Y-124147110D01*
X190488103Y-124147124D01*
X190427765Y-124292794D01*
X190427762Y-124292806D01*
X190397001Y-124447449D01*
X190397001Y-124605142D01*
X190427762Y-124759785D01*
X190427764Y-124759793D01*
X190456450Y-124829047D01*
X190463919Y-124898517D01*
X190432644Y-124960996D01*
X190372555Y-124996648D01*
X190341889Y-125000500D01*
X185401098Y-125000500D01*
X185334059Y-124980815D01*
X185313417Y-124964181D01*
X183900090Y-123550855D01*
X183900088Y-123550852D01*
X183781217Y-123431981D01*
X183781212Y-123431977D01*
X183660298Y-123362168D01*
X183660277Y-123362156D01*
X183659615Y-123361774D01*
X183644285Y-123352923D01*
X183643401Y-123352686D01*
X183636093Y-123348585D01*
X183616612Y-123328647D01*
X183594909Y-123311152D01*
X183592530Y-123304000D01*
X183587264Y-123298611D01*
X183581655Y-123271308D01*
X183572855Y-123244854D01*
X183572777Y-123240449D01*
X183572777Y-123148878D01*
X183572776Y-123148876D01*
X183567194Y-123120814D01*
X183542014Y-122994226D01*
X183526133Y-122955886D01*
X183481674Y-122848550D01*
X183481667Y-122848537D01*
X183394066Y-122717434D01*
X183394063Y-122717430D01*
X183282569Y-122605936D01*
X183282565Y-122605933D01*
X183151462Y-122518332D01*
X183151449Y-122518325D01*
X183005778Y-122457987D01*
X183005766Y-122457984D01*
X182851122Y-122427223D01*
X182851119Y-122427223D01*
X182693435Y-122427223D01*
X182693432Y-122427223D01*
X182538787Y-122457984D01*
X182538775Y-122457987D01*
X182393104Y-122518325D01*
X182393091Y-122518332D01*
X182261402Y-122606325D01*
X182194724Y-122627203D01*
X182192511Y-122627223D01*
X179912062Y-122627223D01*
X179912046Y-122627222D01*
X179904450Y-122627222D01*
X179746336Y-122627222D01*
X179593608Y-122668146D01*
X179593606Y-122668147D01*
X179566377Y-122683866D01*
X179566378Y-122683867D01*
X179456680Y-122747200D01*
X179456675Y-122747204D01*
X178771530Y-123432349D01*
X178771526Y-123432354D01*
X178729241Y-123505596D01*
X178729241Y-123505597D01*
X178692472Y-123569281D01*
X178682039Y-123608218D01*
X178651548Y-123722010D01*
X178651548Y-123722012D01*
X178651548Y-123890113D01*
X178651549Y-123890126D01*
X178651549Y-124128861D01*
X178631864Y-124195900D01*
X178615230Y-124216542D01*
X172562180Y-130269592D01*
X172500857Y-130303077D01*
X172431165Y-130298093D01*
X172375232Y-130256221D01*
X172350815Y-130190757D01*
X172350499Y-130181911D01*
X172350499Y-128852129D01*
X172350498Y-128852123D01*
X172350497Y-128852116D01*
X172344091Y-128792517D01*
X172338694Y-128778048D01*
X172293797Y-128657671D01*
X172293793Y-128657664D01*
X172207547Y-128542455D01*
X172207544Y-128542452D01*
X172092335Y-128456206D01*
X172092328Y-128456202D01*
X171957482Y-128405908D01*
X171957483Y-128405908D01*
X171897883Y-128399501D01*
X171897881Y-128399500D01*
X171897873Y-128399500D01*
X171897864Y-128399500D01*
X168602129Y-128399500D01*
X168602123Y-128399501D01*
X168542516Y-128405908D01*
X168407671Y-128456202D01*
X168407664Y-128456206D01*
X168292455Y-128542452D01*
X168292452Y-128542455D01*
X168206206Y-128657664D01*
X168206202Y-128657671D01*
X168155908Y-128792517D01*
X168151069Y-128837533D01*
X168149501Y-128852123D01*
X168149500Y-128852135D01*
X168149500Y-130947870D01*
X168149501Y-130947876D01*
X168155908Y-131007483D01*
X168206202Y-131142328D01*
X168206206Y-131142335D01*
X168292452Y-131257544D01*
X168292455Y-131257547D01*
X168407664Y-131343793D01*
X168407671Y-131343797D01*
X168542517Y-131394091D01*
X168542516Y-131394091D01*
X168549444Y-131394835D01*
X168602127Y-131400500D01*
X169525500Y-131400499D01*
X169592539Y-131420183D01*
X169638294Y-131472987D01*
X169649500Y-131524499D01*
X169649500Y-139475500D01*
X169629815Y-139542539D01*
X169577011Y-139588294D01*
X169525500Y-139599500D01*
X168602129Y-139599500D01*
X168602123Y-139599501D01*
X168542516Y-139605908D01*
X168407671Y-139656202D01*
X168407664Y-139656206D01*
X168292455Y-139742452D01*
X168292452Y-139742455D01*
X168206206Y-139857664D01*
X168206202Y-139857671D01*
X168155908Y-139992517D01*
X168149957Y-140047872D01*
X168149501Y-140052123D01*
X168149500Y-140052135D01*
X168149500Y-142147870D01*
X168149501Y-142147876D01*
X168155908Y-142207483D01*
X168202413Y-142332167D01*
X168207397Y-142401859D01*
X168173912Y-142463182D01*
X168112589Y-142496666D01*
X168086231Y-142499500D01*
X144384500Y-142499500D01*
X144317461Y-142479815D01*
X144271706Y-142427011D01*
X144260500Y-142375500D01*
X144260500Y-136952135D01*
X144685078Y-136952135D01*
X144685078Y-140047870D01*
X144685079Y-140047876D01*
X144691486Y-140107483D01*
X144741780Y-140242328D01*
X144741784Y-140242335D01*
X144828030Y-140357544D01*
X144828033Y-140357547D01*
X144943242Y-140443793D01*
X144943249Y-140443797D01*
X145078095Y-140494091D01*
X145078094Y-140494091D01*
X145085022Y-140494835D01*
X145137705Y-140500500D01*
X148233450Y-140500499D01*
X148293061Y-140494091D01*
X148427909Y-140443796D01*
X148543124Y-140357546D01*
X148629374Y-140242331D01*
X148679669Y-140107483D01*
X148686078Y-140047873D01*
X148686077Y-138368905D01*
X149765578Y-138368905D01*
X149765578Y-138631094D01*
X149799798Y-138891009D01*
X149799800Y-138891020D01*
X149867653Y-139144255D01*
X149967982Y-139386471D01*
X149967987Y-139386482D01*
X150099066Y-139613516D01*
X150099072Y-139613524D01*
X150185658Y-139726365D01*
X151080345Y-138831677D01*
X151092075Y-138859995D01*
X151175248Y-138984472D01*
X151281106Y-139090330D01*
X151405583Y-139173503D01*
X151433898Y-139185231D01*
X150539211Y-140079917D01*
X150539211Y-140079918D01*
X150652053Y-140166505D01*
X150652061Y-140166511D01*
X150879095Y-140297590D01*
X150879106Y-140297595D01*
X151121322Y-140397924D01*
X151374557Y-140465777D01*
X151374568Y-140465779D01*
X151634483Y-140499999D01*
X151634498Y-140500000D01*
X151896658Y-140500000D01*
X151896672Y-140499999D01*
X152156587Y-140465779D01*
X152156598Y-140465777D01*
X152409833Y-140397924D01*
X152652049Y-140297595D01*
X152652060Y-140297590D01*
X152879094Y-140166511D01*
X152879112Y-140166499D01*
X152991943Y-140079919D01*
X152991943Y-140079917D01*
X152097257Y-139185231D01*
X152125573Y-139173503D01*
X152250050Y-139090330D01*
X152355908Y-138984472D01*
X152439081Y-138859995D01*
X152450809Y-138831679D01*
X153345495Y-139726365D01*
X153345497Y-139726365D01*
X153432077Y-139613534D01*
X153432089Y-139613516D01*
X153563168Y-139386482D01*
X153563173Y-139386471D01*
X153663502Y-139144255D01*
X153731355Y-138891020D01*
X153731357Y-138891009D01*
X153765577Y-138631094D01*
X153765578Y-138631080D01*
X153765578Y-138368919D01*
X153765577Y-138368905D01*
X153731357Y-138108990D01*
X153731356Y-138108983D01*
X153677806Y-137909130D01*
X153677806Y-137909128D01*
X153663502Y-137855745D01*
X153563173Y-137613528D01*
X153563168Y-137613517D01*
X153432089Y-137386483D01*
X153432083Y-137386475D01*
X153345496Y-137273633D01*
X153345495Y-137273633D01*
X152450809Y-138168319D01*
X152439081Y-138140005D01*
X152355908Y-138015528D01*
X152250050Y-137909670D01*
X152125573Y-137826497D01*
X152097255Y-137814767D01*
X152991943Y-136920080D01*
X152879102Y-136833494D01*
X152879094Y-136833488D01*
X152652060Y-136702409D01*
X152652049Y-136702404D01*
X152409833Y-136602075D01*
X152156598Y-136534222D01*
X152156587Y-136534220D01*
X151896672Y-136500000D01*
X151634483Y-136500000D01*
X151374568Y-136534220D01*
X151374557Y-136534222D01*
X151121322Y-136602075D01*
X150879106Y-136702404D01*
X150879095Y-136702409D01*
X150652049Y-136833496D01*
X150539211Y-136920079D01*
X150539211Y-136920080D01*
X151433899Y-137814768D01*
X151405583Y-137826497D01*
X151281106Y-137909670D01*
X151175248Y-138015528D01*
X151092075Y-138140005D01*
X151080346Y-138168321D01*
X150185658Y-137273633D01*
X150185657Y-137273633D01*
X150099074Y-137386471D01*
X149967987Y-137613517D01*
X149967982Y-137613528D01*
X149867653Y-137855744D01*
X149799800Y-138108979D01*
X149799798Y-138108990D01*
X149765578Y-138368905D01*
X148686077Y-138368905D01*
X148686077Y-136952128D01*
X148680109Y-136896613D01*
X148679669Y-136892516D01*
X148629375Y-136757671D01*
X148629371Y-136757664D01*
X148543125Y-136642455D01*
X148543122Y-136642452D01*
X148427913Y-136556206D01*
X148427906Y-136556202D01*
X148293060Y-136505908D01*
X148293061Y-136505908D01*
X148233461Y-136499501D01*
X148233459Y-136499500D01*
X148233451Y-136499500D01*
X148233442Y-136499500D01*
X145137707Y-136499500D01*
X145137701Y-136499501D01*
X145078094Y-136505908D01*
X144943249Y-136556202D01*
X144943242Y-136556206D01*
X144828033Y-136642452D01*
X144828030Y-136642455D01*
X144741784Y-136757664D01*
X144741780Y-136757671D01*
X144691486Y-136892517D01*
X144685079Y-136952116D01*
X144685079Y-136952123D01*
X144685078Y-136952135D01*
X144260500Y-136952135D01*
X144260500Y-126169077D01*
X144280185Y-126102038D01*
X144332989Y-126056283D01*
X144402147Y-126046339D01*
X144465703Y-126075364D01*
X144472181Y-126081396D01*
X144487533Y-126096748D01*
X144487537Y-126096751D01*
X144651315Y-126206185D01*
X144651328Y-126206192D01*
X144833306Y-126281569D01*
X144833318Y-126281572D01*
X145026504Y-126319999D01*
X145026508Y-126320000D01*
X145175000Y-126320000D01*
X145175000Y-125620000D01*
X145675000Y-125620000D01*
X145675000Y-126320000D01*
X145823492Y-126320000D01*
X145823495Y-126319999D01*
X146016681Y-126281572D01*
X146016693Y-126281569D01*
X146198671Y-126206192D01*
X146198684Y-126206185D01*
X146362462Y-126096751D01*
X146362466Y-126096748D01*
X146501748Y-125957466D01*
X146501751Y-125957462D01*
X146611185Y-125793684D01*
X146611192Y-125793671D01*
X146686569Y-125611692D01*
X146686569Y-125611690D01*
X146694862Y-125570000D01*
X145891988Y-125570000D01*
X145909205Y-125560060D01*
X145965060Y-125504205D01*
X146004556Y-125435796D01*
X146025000Y-125359496D01*
X146025000Y-125280504D01*
X146004556Y-125204204D01*
X145965060Y-125135795D01*
X145909205Y-125079940D01*
X145891988Y-125070000D01*
X146694862Y-125070000D01*
X148085138Y-125070000D01*
X148888012Y-125070000D01*
X148870795Y-125079940D01*
X148814940Y-125135795D01*
X148775444Y-125204204D01*
X148755000Y-125280504D01*
X148755000Y-125359496D01*
X148775444Y-125435796D01*
X148814940Y-125504205D01*
X148870795Y-125560060D01*
X148888012Y-125570000D01*
X148085138Y-125570000D01*
X148093430Y-125611690D01*
X148093430Y-125611692D01*
X148168807Y-125793671D01*
X148168814Y-125793684D01*
X148278248Y-125957462D01*
X148278251Y-125957466D01*
X148417533Y-126096748D01*
X148417537Y-126096751D01*
X148581315Y-126206185D01*
X148581328Y-126206192D01*
X148763306Y-126281569D01*
X148763318Y-126281572D01*
X148956504Y-126319999D01*
X148956508Y-126320000D01*
X149355000Y-126320000D01*
X149355000Y-125620000D01*
X149855000Y-125620000D01*
X149855000Y-126320000D01*
X150253492Y-126320000D01*
X150253495Y-126319999D01*
X150446681Y-126281572D01*
X150446693Y-126281569D01*
X150628671Y-126206192D01*
X150628684Y-126206185D01*
X150792462Y-126096751D01*
X150792466Y-126096748D01*
X150931748Y-125957466D01*
X150931751Y-125957462D01*
X151041185Y-125793684D01*
X151041192Y-125793671D01*
X151116569Y-125611692D01*
X151116569Y-125611690D01*
X151124862Y-125570000D01*
X150321988Y-125570000D01*
X150339205Y-125560060D01*
X150395060Y-125504205D01*
X150434556Y-125435796D01*
X150455000Y-125359496D01*
X150455000Y-125280504D01*
X150434556Y-125204204D01*
X150395060Y-125135795D01*
X150339205Y-125079940D01*
X150321988Y-125070000D01*
X151124862Y-125070000D01*
X151116569Y-125028309D01*
X151116569Y-125028307D01*
X151041192Y-124846328D01*
X151041185Y-124846315D01*
X150931751Y-124682537D01*
X150931748Y-124682533D01*
X150792466Y-124543251D01*
X150792462Y-124543248D01*
X150628684Y-124433814D01*
X150628671Y-124433807D01*
X150446693Y-124358430D01*
X150446681Y-124358427D01*
X150253495Y-124320000D01*
X149855000Y-124320000D01*
X149855000Y-125020000D01*
X149355000Y-125020000D01*
X149355000Y-124481784D01*
X149374685Y-124414745D01*
X149417000Y-124374397D01*
X149417208Y-124374277D01*
X149458365Y-124350515D01*
X149565515Y-124243365D01*
X149573079Y-124230264D01*
X149586721Y-124206637D01*
X149635709Y-124121786D01*
X149641281Y-124112135D01*
X149680500Y-123965766D01*
X149680500Y-123814234D01*
X149641281Y-123667865D01*
X149565515Y-123536635D01*
X149458365Y-123429485D01*
X149443934Y-123421153D01*
X150699500Y-123421153D01*
X150699500Y-123578846D01*
X150730261Y-123733489D01*
X150730264Y-123733501D01*
X150790602Y-123879172D01*
X150790609Y-123879185D01*
X150878210Y-124010288D01*
X150878213Y-124010292D01*
X150989707Y-124121786D01*
X150989711Y-124121789D01*
X151120814Y-124209390D01*
X151120827Y-124209397D01*
X151257954Y-124266196D01*
X151266503Y-124269737D01*
X151382418Y-124292794D01*
X151421153Y-124300499D01*
X151421156Y-124300500D01*
X151421158Y-124300500D01*
X151578844Y-124300500D01*
X151578845Y-124300499D01*
X151733497Y-124269737D01*
X151828794Y-124230264D01*
X151877864Y-124209939D01*
X151925316Y-124200500D01*
X153658481Y-124200500D01*
X153725520Y-124220185D01*
X153746162Y-124236819D01*
X156951545Y-127442201D01*
X156951566Y-127442224D01*
X157203928Y-127694585D01*
X157230808Y-127734814D01*
X157290602Y-127879172D01*
X157290609Y-127879185D01*
X157378210Y-128010288D01*
X157378213Y-128010292D01*
X157489707Y-128121786D01*
X157489711Y-128121789D01*
X157620814Y-128209390D01*
X157620827Y-128209397D01*
X157750897Y-128263273D01*
X157766503Y-128269737D01*
X157921153Y-128300499D01*
X157921156Y-128300500D01*
X157921158Y-128300500D01*
X158078844Y-128300500D01*
X158078845Y-128300499D01*
X158233497Y-128269737D01*
X158379179Y-128209394D01*
X158510289Y-128121789D01*
X158621789Y-128010289D01*
X158709394Y-127879179D01*
X158769737Y-127733497D01*
X158800500Y-127578842D01*
X158800500Y-127421158D01*
X158800500Y-127421155D01*
X158800499Y-127421153D01*
X158783921Y-127337809D01*
X158769737Y-127266503D01*
X158764491Y-127253838D01*
X158709397Y-127120827D01*
X158709390Y-127120814D01*
X158621789Y-126989711D01*
X158621786Y-126989707D01*
X158510292Y-126878213D01*
X158510288Y-126878210D01*
X158379185Y-126790609D01*
X158379172Y-126790602D01*
X158234814Y-126730808D01*
X158194585Y-126703928D01*
X157942224Y-126451566D01*
X157942201Y-126451545D01*
X154446546Y-122955888D01*
X154446545Y-122955887D01*
X154331807Y-122879222D01*
X154204332Y-122826421D01*
X154204322Y-122826418D01*
X154068996Y-122799500D01*
X154068994Y-122799500D01*
X154068993Y-122799500D01*
X151925316Y-122799500D01*
X151877864Y-122790061D01*
X151733501Y-122730264D01*
X151733489Y-122730261D01*
X151578845Y-122699500D01*
X151578842Y-122699500D01*
X151421158Y-122699500D01*
X151421155Y-122699500D01*
X151266510Y-122730261D01*
X151266498Y-122730264D01*
X151120827Y-122790602D01*
X151120814Y-122790609D01*
X150989711Y-122878210D01*
X150989707Y-122878213D01*
X150878213Y-122989707D01*
X150878210Y-122989711D01*
X150790609Y-123120814D01*
X150790602Y-123120827D01*
X150730264Y-123266498D01*
X150730261Y-123266510D01*
X150699500Y-123421153D01*
X149443934Y-123421153D01*
X149390152Y-123390102D01*
X149327136Y-123353719D01*
X149253950Y-123334109D01*
X149180766Y-123314500D01*
X149029234Y-123314500D01*
X148882863Y-123353719D01*
X148751635Y-123429485D01*
X148751632Y-123429487D01*
X148644487Y-123536632D01*
X148644485Y-123536635D01*
X148568719Y-123667863D01*
X148551135Y-123733489D01*
X148529500Y-123814234D01*
X148529500Y-123965766D01*
X148541430Y-124010289D01*
X148568719Y-124112136D01*
X148608030Y-124180224D01*
X148644485Y-124243365D01*
X148644486Y-124243366D01*
X148648549Y-124250403D01*
X148646346Y-124251674D01*
X148666959Y-124304983D01*
X148652923Y-124373428D01*
X148604112Y-124423420D01*
X148590845Y-124429866D01*
X148581324Y-124433809D01*
X148581315Y-124433814D01*
X148417537Y-124543248D01*
X148417533Y-124543251D01*
X148278251Y-124682533D01*
X148278248Y-124682537D01*
X148168814Y-124846315D01*
X148168807Y-124846328D01*
X148093430Y-125028307D01*
X148093430Y-125028309D01*
X148085138Y-125070000D01*
X146694862Y-125070000D01*
X146686569Y-125028309D01*
X146686569Y-125028307D01*
X146611192Y-124846328D01*
X146611185Y-124846315D01*
X146501751Y-124682537D01*
X146501748Y-124682533D01*
X146362466Y-124543251D01*
X146362462Y-124543248D01*
X146198684Y-124433814D01*
X146198671Y-124433807D01*
X146016693Y-124358430D01*
X146016681Y-124358427D01*
X145823495Y-124320000D01*
X145675000Y-124320000D01*
X145675000Y-125020000D01*
X145175000Y-125020000D01*
X145175000Y-124320000D01*
X145026504Y-124320000D01*
X144833318Y-124358427D01*
X144833306Y-124358430D01*
X144651328Y-124433807D01*
X144651315Y-124433814D01*
X144487537Y-124543248D01*
X144487533Y-124543251D01*
X144472181Y-124558604D01*
X144410858Y-124592089D01*
X144341166Y-124587105D01*
X144285233Y-124545233D01*
X144260816Y-124479769D01*
X144260500Y-124470923D01*
X144260500Y-117529077D01*
X144280185Y-117462038D01*
X144332989Y-117416283D01*
X144402147Y-117406339D01*
X144465703Y-117435364D01*
X144472181Y-117441396D01*
X144487533Y-117456748D01*
X144487537Y-117456751D01*
X144651315Y-117566185D01*
X144651328Y-117566192D01*
X144833306Y-117641569D01*
X144833318Y-117641572D01*
X145026504Y-117679999D01*
X145026508Y-117680000D01*
X145175000Y-117680000D01*
X145175000Y-116980000D01*
X145675000Y-116980000D01*
X145675000Y-117680000D01*
X145823492Y-117680000D01*
X145823495Y-117679999D01*
X146016681Y-117641572D01*
X146016693Y-117641569D01*
X146198671Y-117566192D01*
X146198684Y-117566185D01*
X146362462Y-117456751D01*
X146362466Y-117456748D01*
X146501748Y-117317466D01*
X146501751Y-117317462D01*
X146611185Y-117153684D01*
X146611192Y-117153671D01*
X146686569Y-116971692D01*
X146686569Y-116971690D01*
X146694862Y-116930000D01*
X145891988Y-116930000D01*
X145909205Y-116920060D01*
X145965060Y-116864205D01*
X146004556Y-116795796D01*
X146025000Y-116719496D01*
X146025000Y-116640504D01*
X146004556Y-116564204D01*
X145965060Y-116495795D01*
X145909205Y-116439940D01*
X145891988Y-116430000D01*
X146694862Y-116430000D01*
X146686569Y-116388309D01*
X146686569Y-116388307D01*
X146611192Y-116206328D01*
X146611185Y-116206315D01*
X146501751Y-116042537D01*
X146501748Y-116042533D01*
X146362466Y-115903251D01*
X146362462Y-115903248D01*
X146198684Y-115793814D01*
X146198671Y-115793807D01*
X146066500Y-115739061D01*
X146012096Y-115695220D01*
X145990031Y-115628926D01*
X146007310Y-115561227D01*
X146058447Y-115513616D01*
X146113952Y-115500500D01*
X148666048Y-115500500D01*
X148733087Y-115520185D01*
G37*
G04 #@! TD.AperFunction*
G04 #@! TA.AperFunction,Conductor*
G36*
X175267834Y-129364922D02*
G01*
X175323767Y-129406794D01*
X175348184Y-129472258D01*
X175348500Y-129481104D01*
X175348500Y-138452222D01*
X175348499Y-138452240D01*
X175348499Y-138617946D01*
X175348498Y-138617946D01*
X175348499Y-138617949D01*
X175389423Y-138770677D01*
X175390297Y-138772190D01*
X175390305Y-138772220D01*
X175390312Y-138772217D01*
X175468475Y-138907601D01*
X175468481Y-138907609D01*
X175587349Y-139026477D01*
X175587355Y-139026482D01*
X178848692Y-142287819D01*
X178882177Y-142349142D01*
X178877193Y-142418834D01*
X178835321Y-142474767D01*
X178769857Y-142499184D01*
X178761011Y-142499500D01*
X172413769Y-142499500D01*
X172346730Y-142479815D01*
X172300975Y-142427011D01*
X172291031Y-142357853D01*
X172297587Y-142332167D01*
X172305547Y-142310822D01*
X172344091Y-142207483D01*
X172350500Y-142147873D01*
X172350499Y-140052128D01*
X172344091Y-139992517D01*
X172293796Y-139857669D01*
X172293795Y-139857668D01*
X172293793Y-139857664D01*
X172207547Y-139742455D01*
X172207544Y-139742452D01*
X172092335Y-139656206D01*
X172092328Y-139656202D01*
X171957482Y-139605908D01*
X171957483Y-139605908D01*
X171897883Y-139599501D01*
X171897881Y-139599500D01*
X171897873Y-139599500D01*
X171897865Y-139599500D01*
X170974500Y-139599500D01*
X170907461Y-139579815D01*
X170861706Y-139527011D01*
X170850500Y-139475500D01*
X170850500Y-132424500D01*
X170870185Y-132357461D01*
X170922989Y-132311706D01*
X170974500Y-132300500D01*
X171078844Y-132300500D01*
X171078845Y-132300499D01*
X171233497Y-132269737D01*
X171379179Y-132209394D01*
X171432777Y-132173581D01*
X171510875Y-132121398D01*
X171577553Y-132100520D01*
X171579766Y-132100500D01*
X172094339Y-132100500D01*
X172094355Y-132100501D01*
X172101951Y-132100501D01*
X172260062Y-132100501D01*
X172260065Y-132100501D01*
X172412793Y-132059577D01*
X172482241Y-132019481D01*
X172549724Y-131980520D01*
X172661528Y-131868716D01*
X172661528Y-131868714D01*
X172671732Y-131858511D01*
X172671735Y-131858506D01*
X175136821Y-129393421D01*
X175198142Y-129359938D01*
X175267834Y-129364922D01*
G37*
G04 #@! TD.AperFunction*
G04 #@! TA.AperFunction,Conductor*
G36*
X213077394Y-139624185D02*
G01*
X213123149Y-139676989D01*
X213133973Y-139738230D01*
X213130894Y-139777340D01*
X213829766Y-140476212D01*
X213787708Y-140487482D01*
X213662292Y-140559890D01*
X213559890Y-140662292D01*
X213487482Y-140787708D01*
X213476212Y-140829766D01*
X212777340Y-140130894D01*
X212717084Y-140213830D01*
X212609897Y-140424197D01*
X212536934Y-140648752D01*
X212500000Y-140881947D01*
X212500000Y-141118052D01*
X212536934Y-141351247D01*
X212609897Y-141575802D01*
X212717087Y-141786174D01*
X212777338Y-141869104D01*
X212777340Y-141869105D01*
X213476212Y-141170233D01*
X213487482Y-141212292D01*
X213559890Y-141337708D01*
X213662292Y-141440110D01*
X213787708Y-141512518D01*
X213829765Y-141523787D01*
X213130893Y-142222658D01*
X213203186Y-142275182D01*
X213245851Y-142330512D01*
X213251830Y-142400125D01*
X213219224Y-142461920D01*
X213158385Y-142496278D01*
X213130300Y-142499500D01*
X209345134Y-142499500D01*
X209278095Y-142479815D01*
X209232340Y-142427011D01*
X209222396Y-142357853D01*
X209230573Y-142328047D01*
X209269737Y-142233497D01*
X209300500Y-142078842D01*
X209300500Y-141921158D01*
X209300500Y-141921155D01*
X209300499Y-141921153D01*
X209290146Y-141869104D01*
X209269737Y-141766503D01*
X209234244Y-141680815D01*
X209209397Y-141620827D01*
X209209390Y-141620814D01*
X209121789Y-141489711D01*
X209121786Y-141489707D01*
X209010292Y-141378213D01*
X209010288Y-141378210D01*
X208879185Y-141290609D01*
X208879172Y-141290602D01*
X208733501Y-141230264D01*
X208733489Y-141230261D01*
X208578845Y-141199500D01*
X208578842Y-141199500D01*
X208421158Y-141199500D01*
X208421155Y-141199500D01*
X208266510Y-141230261D01*
X208266498Y-141230264D01*
X208120827Y-141290602D01*
X208120814Y-141290609D01*
X207989711Y-141378210D01*
X207989707Y-141378213D01*
X207878213Y-141489707D01*
X207878210Y-141489711D01*
X207790609Y-141620814D01*
X207790603Y-141620825D01*
X207789311Y-141623947D01*
X207788195Y-141625331D01*
X207787736Y-141626191D01*
X207787573Y-141626103D01*
X207745473Y-141678353D01*
X207679180Y-141700421D01*
X207674748Y-141700500D01*
X195520258Y-141700500D01*
X195453219Y-141680815D01*
X195407464Y-141628011D01*
X195397520Y-141558853D01*
X195402327Y-141538182D01*
X195463065Y-141351248D01*
X195500000Y-141118052D01*
X195500000Y-140881947D01*
X195463065Y-140648752D01*
X195390102Y-140424197D01*
X195282914Y-140213828D01*
X195222658Y-140130894D01*
X195222658Y-140130893D01*
X194523787Y-140829764D01*
X194512518Y-140787708D01*
X194440110Y-140662292D01*
X194337708Y-140559890D01*
X194212292Y-140487482D01*
X194170234Y-140476212D01*
X194869105Y-139777340D01*
X194866027Y-139738229D01*
X194880391Y-139669851D01*
X194929443Y-139620095D01*
X194989645Y-139604500D01*
X213010355Y-139604500D01*
X213077394Y-139624185D01*
G37*
G04 #@! TD.AperFunction*
G04 #@! TA.AperFunction,Conductor*
G36*
X219577394Y-139624185D02*
G01*
X219623149Y-139676989D01*
X219633973Y-139738230D01*
X219630894Y-139777340D01*
X220329766Y-140476212D01*
X220287708Y-140487482D01*
X220162292Y-140559890D01*
X220059890Y-140662292D01*
X219987482Y-140787708D01*
X219976212Y-140829766D01*
X219277340Y-140130894D01*
X219217084Y-140213830D01*
X219109897Y-140424197D01*
X219036934Y-140648752D01*
X219000000Y-140881947D01*
X219000000Y-141118052D01*
X219036934Y-141351247D01*
X219109897Y-141575802D01*
X219217087Y-141786174D01*
X219277338Y-141869104D01*
X219277340Y-141869105D01*
X219976212Y-141170233D01*
X219987482Y-141212292D01*
X220059890Y-141337708D01*
X220162292Y-141440110D01*
X220287708Y-141512518D01*
X220329765Y-141523787D01*
X219630893Y-142222658D01*
X219703186Y-142275182D01*
X219745851Y-142330512D01*
X219751830Y-142400125D01*
X219719224Y-142461920D01*
X219658385Y-142496278D01*
X219630300Y-142499500D01*
X214869699Y-142499500D01*
X214802660Y-142479815D01*
X214756905Y-142427011D01*
X214746961Y-142357853D01*
X214775986Y-142294297D01*
X214796813Y-142275182D01*
X214869104Y-142222658D01*
X214869105Y-142222658D01*
X214170233Y-141523787D01*
X214212292Y-141512518D01*
X214337708Y-141440110D01*
X214440110Y-141337708D01*
X214512518Y-141212292D01*
X214523787Y-141170234D01*
X215222658Y-141869105D01*
X215222658Y-141869104D01*
X215282914Y-141786169D01*
X215282918Y-141786163D01*
X215390102Y-141575802D01*
X215463065Y-141351247D01*
X215500000Y-141118052D01*
X215500000Y-140881947D01*
X215463065Y-140648752D01*
X215390102Y-140424197D01*
X215282914Y-140213828D01*
X215222658Y-140130894D01*
X215222658Y-140130893D01*
X214523787Y-140829765D01*
X214512518Y-140787708D01*
X214440110Y-140662292D01*
X214337708Y-140559890D01*
X214212292Y-140487482D01*
X214170234Y-140476212D01*
X214869105Y-139777340D01*
X214866027Y-139738229D01*
X214880391Y-139669851D01*
X214929443Y-139620095D01*
X214989645Y-139604500D01*
X219510355Y-139604500D01*
X219577394Y-139624185D01*
G37*
G04 #@! TD.AperFunction*
G04 #@! TA.AperFunction,Conductor*
G36*
X237652130Y-117566211D02*
G01*
X237710363Y-117604821D01*
X237738477Y-117668785D01*
X237739500Y-117684677D01*
X237739500Y-121818523D01*
X237719815Y-121885562D01*
X237667011Y-121931317D01*
X237597853Y-121941261D01*
X237534297Y-121912236D01*
X237496523Y-121853458D01*
X237493027Y-121837921D01*
X237463065Y-121648752D01*
X237390102Y-121424197D01*
X237282914Y-121213828D01*
X237222658Y-121130894D01*
X237222658Y-121130893D01*
X236523787Y-121829765D01*
X236512518Y-121787708D01*
X236440110Y-121662292D01*
X236337708Y-121559890D01*
X236212292Y-121487482D01*
X236170234Y-121476212D01*
X236869105Y-120777340D01*
X236869104Y-120777338D01*
X236786174Y-120717087D01*
X236575802Y-120609897D01*
X236351247Y-120536934D01*
X236351248Y-120536934D01*
X236118052Y-120500000D01*
X235881948Y-120500000D01*
X235648752Y-120536934D01*
X235424197Y-120609897D01*
X235213830Y-120717084D01*
X235130894Y-120777340D01*
X235829766Y-121476212D01*
X235787708Y-121487482D01*
X235662292Y-121559890D01*
X235559890Y-121662292D01*
X235487482Y-121787708D01*
X235476212Y-121829766D01*
X234777340Y-121130894D01*
X234717084Y-121213830D01*
X234609897Y-121424197D01*
X234536934Y-121648752D01*
X234500000Y-121881947D01*
X234500000Y-122118052D01*
X234536934Y-122351247D01*
X234609897Y-122575802D01*
X234717087Y-122786174D01*
X234777338Y-122869104D01*
X234777340Y-122869105D01*
X235476212Y-122170233D01*
X235487482Y-122212292D01*
X235559890Y-122337708D01*
X235662292Y-122440110D01*
X235787708Y-122512518D01*
X235829765Y-122523787D01*
X235130893Y-123222658D01*
X235213828Y-123282914D01*
X235424197Y-123390102D01*
X235648752Y-123463065D01*
X235648751Y-123463065D01*
X235881948Y-123500000D01*
X236118052Y-123500000D01*
X236351247Y-123463065D01*
X236575802Y-123390102D01*
X236786163Y-123282918D01*
X236786169Y-123282914D01*
X236869104Y-123222658D01*
X236869105Y-123222658D01*
X236170233Y-122523787D01*
X236212292Y-122512518D01*
X236337708Y-122440110D01*
X236440110Y-122337708D01*
X236512518Y-122212292D01*
X236523787Y-122170233D01*
X237222658Y-122869105D01*
X237222658Y-122869104D01*
X237282914Y-122786169D01*
X237282918Y-122786163D01*
X237390102Y-122575802D01*
X237463065Y-122351247D01*
X237493027Y-122162078D01*
X237522956Y-122098943D01*
X237582268Y-122062012D01*
X237652130Y-122063010D01*
X237710363Y-122101620D01*
X237738477Y-122165583D01*
X237739500Y-122181476D01*
X237739500Y-142375500D01*
X237719815Y-142442539D01*
X237667011Y-142488294D01*
X237615500Y-142499500D01*
X221369699Y-142499500D01*
X221302660Y-142479815D01*
X221256905Y-142427011D01*
X221246961Y-142357853D01*
X221275986Y-142294297D01*
X221296813Y-142275182D01*
X221369104Y-142222658D01*
X221369105Y-142222658D01*
X220670233Y-141523787D01*
X220712292Y-141512518D01*
X220837708Y-141440110D01*
X220940110Y-141337708D01*
X221012518Y-141212292D01*
X221023787Y-141170234D01*
X221722658Y-141869105D01*
X221722658Y-141869104D01*
X221782914Y-141786169D01*
X221782918Y-141786163D01*
X221890102Y-141575802D01*
X221963065Y-141351247D01*
X222000000Y-141118052D01*
X222000000Y-140881947D01*
X221963065Y-140648752D01*
X221890102Y-140424197D01*
X221782914Y-140213828D01*
X221722658Y-140130894D01*
X221722658Y-140130893D01*
X221023787Y-140829764D01*
X221012518Y-140787708D01*
X220940110Y-140662292D01*
X220837708Y-140559890D01*
X220712292Y-140487482D01*
X220670234Y-140476212D01*
X221369105Y-139777341D01*
X221366027Y-139738230D01*
X221380391Y-139669853D01*
X221429443Y-139620096D01*
X221489645Y-139604501D01*
X221616246Y-139604501D01*
X221616249Y-139604501D01*
X221768977Y-139563577D01*
X221819096Y-139534639D01*
X221905908Y-139484520D01*
X222017712Y-139372716D01*
X222017712Y-139372714D01*
X222027920Y-139362507D01*
X222027921Y-139362504D01*
X223413608Y-137976819D01*
X223474931Y-137943334D01*
X223501289Y-137940500D01*
X233329740Y-137940500D01*
X233396779Y-137960185D01*
X233442534Y-138012989D01*
X233452478Y-138082147D01*
X233451357Y-138088692D01*
X233419500Y-138248843D01*
X233419500Y-138248846D01*
X233419500Y-138431154D01*
X233419500Y-138431156D01*
X233419499Y-138431156D01*
X233455065Y-138609952D01*
X233455068Y-138609962D01*
X233524831Y-138778387D01*
X233524833Y-138778391D01*
X233626113Y-138929967D01*
X233626119Y-138929975D01*
X233755024Y-139058880D01*
X233755032Y-139058886D01*
X233906608Y-139160166D01*
X233906612Y-139160168D01*
X234075037Y-139229931D01*
X234075042Y-139229933D01*
X234075046Y-139229933D01*
X234075047Y-139229934D01*
X234253843Y-139265500D01*
X234253846Y-139265500D01*
X234436156Y-139265500D01*
X234556445Y-139241572D01*
X234614958Y-139229933D01*
X234783389Y-139160167D01*
X234783391Y-139160166D01*
X234887908Y-139090330D01*
X234934972Y-139058883D01*
X235063883Y-138929972D01*
X235165167Y-138778389D01*
X235167737Y-138772186D01*
X235234931Y-138609962D01*
X235234933Y-138609958D01*
X235256805Y-138500001D01*
X235270500Y-138431156D01*
X235270500Y-138248843D01*
X235234934Y-138070047D01*
X235234933Y-138070046D01*
X235234933Y-138070042D01*
X235182449Y-137943334D01*
X235165169Y-137901615D01*
X235163482Y-137898459D01*
X235163097Y-137896613D01*
X235162836Y-137895982D01*
X235162955Y-137895932D01*
X235149236Y-137830057D01*
X235163482Y-137781541D01*
X235165163Y-137778394D01*
X235165167Y-137778389D01*
X235234933Y-137609958D01*
X235263007Y-137468825D01*
X235270500Y-137431156D01*
X235270500Y-137248843D01*
X235234934Y-137070047D01*
X235234933Y-137070046D01*
X235234933Y-137070042D01*
X235221736Y-137038181D01*
X235165169Y-136901615D01*
X235163482Y-136898459D01*
X235163097Y-136896613D01*
X235162836Y-136895982D01*
X235162955Y-136895932D01*
X235149236Y-136830057D01*
X235163482Y-136781541D01*
X235165163Y-136778394D01*
X235165167Y-136778389D01*
X235234933Y-136609958D01*
X235256734Y-136500360D01*
X235270500Y-136431156D01*
X235270500Y-136248843D01*
X235234934Y-136070047D01*
X235234933Y-136070046D01*
X235234933Y-136070042D01*
X235188424Y-135957758D01*
X235165169Y-135901615D01*
X235163482Y-135898459D01*
X235163097Y-135896613D01*
X235162836Y-135895982D01*
X235162955Y-135895932D01*
X235149236Y-135830057D01*
X235163482Y-135781541D01*
X235165163Y-135778394D01*
X235165167Y-135778389D01*
X235234933Y-135609958D01*
X235265834Y-135454612D01*
X235270500Y-135431156D01*
X235270500Y-135248843D01*
X235234934Y-135070047D01*
X235234933Y-135070046D01*
X235234933Y-135070042D01*
X235182526Y-134943519D01*
X235165169Y-134901615D01*
X235163482Y-134898459D01*
X235163097Y-134896613D01*
X235162836Y-134895982D01*
X235162955Y-134895932D01*
X235149236Y-134830057D01*
X235163482Y-134781541D01*
X235165163Y-134778394D01*
X235165167Y-134778389D01*
X235234933Y-134609958D01*
X235259932Y-134484281D01*
X235270500Y-134431156D01*
X235270500Y-134248843D01*
X235234934Y-134070047D01*
X235234933Y-134070046D01*
X235234933Y-134070042D01*
X235234931Y-134070037D01*
X235165169Y-133901615D01*
X235163482Y-133898459D01*
X235163097Y-133896613D01*
X235162836Y-133895982D01*
X235162955Y-133895932D01*
X235149236Y-133830057D01*
X235163482Y-133781541D01*
X235165163Y-133778394D01*
X235165167Y-133778389D01*
X235234933Y-133609958D01*
X235270500Y-133431154D01*
X235270500Y-133248846D01*
X235270500Y-133248843D01*
X235234934Y-133070047D01*
X235234933Y-133070046D01*
X235234933Y-133070042D01*
X235202079Y-132990724D01*
X235165169Y-132901615D01*
X235163482Y-132898459D01*
X235163097Y-132896613D01*
X235162836Y-132895982D01*
X235162955Y-132895932D01*
X235149236Y-132830057D01*
X235163482Y-132781541D01*
X235165163Y-132778394D01*
X235165167Y-132778389D01*
X235234933Y-132609958D01*
X235256554Y-132501265D01*
X235270500Y-132431156D01*
X235270500Y-132341816D01*
X235279145Y-132312372D01*
X235285668Y-132282390D01*
X235289422Y-132277374D01*
X235290185Y-132274777D01*
X235306810Y-132254144D01*
X235429509Y-132131444D01*
X235429514Y-132131441D01*
X235439714Y-132121240D01*
X235439716Y-132121240D01*
X235551520Y-132009436D01*
X235601638Y-131922628D01*
X235626696Y-131879227D01*
X235626697Y-131879226D01*
X235630576Y-131872507D01*
X235630576Y-131872506D01*
X235630577Y-131872505D01*
X235671500Y-131719778D01*
X235671500Y-131561663D01*
X235671500Y-129703060D01*
X235671501Y-129703047D01*
X235671501Y-129534944D01*
X235665548Y-129512726D01*
X235630577Y-129382216D01*
X235628820Y-129379172D01*
X235551524Y-129245290D01*
X235551518Y-129245282D01*
X229932480Y-123626244D01*
X229898995Y-123564921D01*
X229903979Y-123495229D01*
X229945851Y-123439296D01*
X229981843Y-123420632D01*
X230075802Y-123390102D01*
X230286163Y-123282918D01*
X230286169Y-123282914D01*
X230369104Y-123222658D01*
X230369105Y-123222658D01*
X229670234Y-122523787D01*
X229712292Y-122512518D01*
X229837708Y-122440110D01*
X229940110Y-122337708D01*
X230012518Y-122212292D01*
X230023787Y-122170234D01*
X230722658Y-122869105D01*
X230722658Y-122869104D01*
X230782914Y-122786169D01*
X230782918Y-122786163D01*
X230890102Y-122575802D01*
X230963065Y-122351247D01*
X231000000Y-122118052D01*
X231000000Y-121881947D01*
X230963065Y-121648752D01*
X230890102Y-121424197D01*
X230782914Y-121213828D01*
X230722658Y-121130894D01*
X230722658Y-121130893D01*
X230023787Y-121829765D01*
X230012518Y-121787708D01*
X229940110Y-121662292D01*
X229837708Y-121559890D01*
X229712292Y-121487482D01*
X229670233Y-121476212D01*
X230369105Y-120777340D01*
X230369104Y-120777339D01*
X230286174Y-120717087D01*
X230075802Y-120609897D01*
X229851247Y-120536934D01*
X229851248Y-120536934D01*
X229618052Y-120500000D01*
X229381948Y-120500000D01*
X229148752Y-120536934D01*
X228924194Y-120609898D01*
X228881794Y-120631502D01*
X228813125Y-120644398D01*
X228748385Y-120618121D01*
X228708128Y-120561015D01*
X228701500Y-120521017D01*
X228701500Y-118979544D01*
X228721185Y-118912505D01*
X228773989Y-118866750D01*
X228843147Y-118856806D01*
X228881796Y-118869060D01*
X228924001Y-118890565D01*
X228924004Y-118890565D01*
X228924008Y-118890568D01*
X229072894Y-118938944D01*
X229148631Y-118963553D01*
X229381903Y-119000500D01*
X229381908Y-119000500D01*
X229618097Y-119000500D01*
X229851368Y-118963553D01*
X229922545Y-118940426D01*
X230075992Y-118890568D01*
X230286433Y-118783343D01*
X230477510Y-118644517D01*
X230644517Y-118477510D01*
X230783343Y-118286433D01*
X230843583Y-118168204D01*
X230891558Y-118117409D01*
X230954068Y-118100500D01*
X234545932Y-118100500D01*
X234612971Y-118120185D01*
X234656416Y-118168203D01*
X234716657Y-118286433D01*
X234855483Y-118477510D01*
X235022490Y-118644517D01*
X235213567Y-118783343D01*
X235299270Y-118827011D01*
X235424003Y-118890566D01*
X235424005Y-118890566D01*
X235424008Y-118890568D01*
X235512310Y-118919259D01*
X235648631Y-118963553D01*
X235881903Y-119000500D01*
X235881908Y-119000500D01*
X236118097Y-119000500D01*
X236351368Y-118963553D01*
X236422545Y-118940426D01*
X236575992Y-118890568D01*
X236786433Y-118783343D01*
X236977510Y-118644517D01*
X237144517Y-118477510D01*
X237283343Y-118286433D01*
X237390568Y-118075992D01*
X237463553Y-117851368D01*
X237473177Y-117790606D01*
X237493027Y-117665279D01*
X237522956Y-117602144D01*
X237582268Y-117565213D01*
X237652130Y-117566211D01*
G37*
G04 #@! TD.AperFunction*
G04 #@! TA.AperFunction,Conductor*
G36*
X184674077Y-137497850D02*
G01*
X184680553Y-137503880D01*
X186661192Y-139484520D01*
X186703521Y-139508958D01*
X186751737Y-139559525D01*
X186764961Y-139628132D01*
X186738993Y-139692997D01*
X186714407Y-139716664D01*
X186630894Y-139777339D01*
X186630894Y-139777340D01*
X187329766Y-140476212D01*
X187287708Y-140487482D01*
X187162292Y-140559890D01*
X187059890Y-140662292D01*
X186987482Y-140787708D01*
X186976212Y-140829766D01*
X186277340Y-140130894D01*
X186217084Y-140213830D01*
X186109897Y-140424197D01*
X186036934Y-140648752D01*
X186000000Y-140881947D01*
X186000000Y-141118052D01*
X186036934Y-141351248D01*
X186097673Y-141538182D01*
X186099668Y-141608023D01*
X186063588Y-141667856D01*
X186000887Y-141698684D01*
X185979742Y-141700500D01*
X184321958Y-141700500D01*
X184254919Y-141680815D01*
X184209164Y-141628011D01*
X184199220Y-141558853D01*
X184228245Y-141495297D01*
X184247646Y-141477234D01*
X184262796Y-141465891D01*
X184325921Y-141418637D01*
X184412171Y-141303422D01*
X184462466Y-141168574D01*
X184468875Y-141108964D01*
X184468874Y-137591562D01*
X184488559Y-137524524D01*
X184541363Y-137478769D01*
X184610521Y-137468825D01*
X184674077Y-137497850D01*
G37*
G04 #@! TD.AperFunction*
G04 #@! TA.AperFunction,Conductor*
G36*
X193077394Y-139624185D02*
G01*
X193123149Y-139676989D01*
X193133973Y-139738230D01*
X193130894Y-139777340D01*
X193829766Y-140476212D01*
X193787708Y-140487482D01*
X193662292Y-140559890D01*
X193559890Y-140662292D01*
X193487482Y-140787708D01*
X193476212Y-140829766D01*
X192777340Y-140130894D01*
X192717084Y-140213830D01*
X192609897Y-140424197D01*
X192536934Y-140648752D01*
X192500000Y-140881947D01*
X192500000Y-141118052D01*
X192536934Y-141351248D01*
X192597673Y-141538182D01*
X192599668Y-141608023D01*
X192563588Y-141667856D01*
X192500887Y-141698684D01*
X192479742Y-141700500D01*
X189020258Y-141700500D01*
X188953219Y-141680815D01*
X188907464Y-141628011D01*
X188897520Y-141558853D01*
X188902327Y-141538182D01*
X188963065Y-141351248D01*
X189000000Y-141118052D01*
X189000000Y-140881947D01*
X188963065Y-140648752D01*
X188890102Y-140424197D01*
X188782914Y-140213828D01*
X188722658Y-140130894D01*
X188722658Y-140130893D01*
X188023787Y-140829764D01*
X188012518Y-140787708D01*
X187940110Y-140662292D01*
X187837708Y-140559890D01*
X187712292Y-140487482D01*
X187670234Y-140476212D01*
X188369105Y-139777340D01*
X188366027Y-139738229D01*
X188380391Y-139669851D01*
X188429443Y-139620095D01*
X188489645Y-139604500D01*
X193010355Y-139604500D01*
X193077394Y-139624185D01*
G37*
G04 #@! TD.AperFunction*
G04 #@! TA.AperFunction,Conductor*
G36*
X192471248Y-128727731D02*
G01*
X192497569Y-128747804D01*
X201139583Y-137389819D01*
X201173068Y-137451142D01*
X201168084Y-137520834D01*
X201126212Y-137576767D01*
X201060748Y-137601184D01*
X201051902Y-137601500D01*
X195297797Y-137601500D01*
X195230758Y-137581815D01*
X195185003Y-137529011D01*
X195175059Y-137459853D01*
X195197479Y-137404614D01*
X195283343Y-137286433D01*
X195390568Y-137075992D01*
X195463553Y-136851368D01*
X195471918Y-136798553D01*
X195500500Y-136618097D01*
X195500500Y-136381902D01*
X195463553Y-136148631D01*
X195407931Y-135977446D01*
X195390568Y-135924008D01*
X195390566Y-135924005D01*
X195390566Y-135924003D01*
X195310315Y-135766503D01*
X195283343Y-135713567D01*
X195144517Y-135522490D01*
X194977510Y-135355483D01*
X194786433Y-135216657D01*
X194765276Y-135205877D01*
X194575996Y-135109433D01*
X194351368Y-135036446D01*
X194118097Y-134999500D01*
X194118092Y-134999500D01*
X193881908Y-134999500D01*
X193881903Y-134999500D01*
X193648631Y-135036446D01*
X193424003Y-135109433D01*
X193213566Y-135216657D01*
X193111791Y-135290602D01*
X193022490Y-135355483D01*
X193022488Y-135355485D01*
X193022487Y-135355485D01*
X192855485Y-135522487D01*
X192855485Y-135522488D01*
X192855483Y-135522490D01*
X192804698Y-135592390D01*
X192716657Y-135713566D01*
X192694092Y-135757853D01*
X192657303Y-135830057D01*
X192656417Y-135831795D01*
X192608442Y-135882591D01*
X192545932Y-135899500D01*
X189249097Y-135899500D01*
X189182058Y-135879815D01*
X189136303Y-135827011D01*
X189126359Y-135757853D01*
X189155384Y-135694297D01*
X189161416Y-135687819D01*
X189815160Y-135034075D01*
X191858506Y-132990727D01*
X191858511Y-132990724D01*
X191868714Y-132980520D01*
X191868716Y-132980520D01*
X191980520Y-132868716D01*
X192002840Y-132830057D01*
X192038544Y-132768216D01*
X192038545Y-132768214D01*
X192058586Y-132733501D01*
X192059577Y-132731785D01*
X192100500Y-132579058D01*
X192100500Y-132420943D01*
X192100500Y-129579765D01*
X192120185Y-129512726D01*
X192121398Y-129510874D01*
X192147201Y-129472258D01*
X192209394Y-129379179D01*
X192269737Y-129233497D01*
X192300500Y-129078842D01*
X192300500Y-128921158D01*
X192300500Y-128921155D01*
X192300499Y-128921153D01*
X192288271Y-128859676D01*
X192294498Y-128790085D01*
X192337361Y-128734908D01*
X192403251Y-128711663D01*
X192471248Y-128727731D01*
G37*
G04 #@! TD.AperFunction*
G04 #@! TA.AperFunction,Conductor*
G36*
X203766942Y-127120185D02*
G01*
X203787584Y-127136819D01*
X212547200Y-135896435D01*
X212580685Y-135957758D01*
X212577450Y-136022433D01*
X212536447Y-136148628D01*
X212499500Y-136381902D01*
X212499500Y-136618097D01*
X212536446Y-136851368D01*
X212569667Y-136953608D01*
X212597147Y-137038182D01*
X212599142Y-137108022D01*
X212563062Y-137167855D01*
X212500361Y-137198684D01*
X212479216Y-137200500D01*
X202700098Y-137200500D01*
X202633059Y-137180815D01*
X202612417Y-137164181D01*
X193187590Y-127739355D01*
X193187588Y-127739352D01*
X193068717Y-127620481D01*
X193068716Y-127620480D01*
X192979537Y-127568993D01*
X192931785Y-127541423D01*
X192779057Y-127500499D01*
X192620943Y-127500499D01*
X192613347Y-127500499D01*
X192613331Y-127500500D01*
X190930941Y-127500500D01*
X190863902Y-127480815D01*
X190818147Y-127428011D01*
X190808203Y-127358853D01*
X190831708Y-127302144D01*
X190837010Y-127295067D01*
X190871789Y-127260289D01*
X190943595Y-127152823D01*
X190945603Y-127150144D01*
X190971005Y-127131146D01*
X190995346Y-127110804D01*
X190999308Y-127109979D01*
X191001556Y-127108298D01*
X191010400Y-127107669D01*
X191044836Y-127100500D01*
X203699903Y-127100500D01*
X203766942Y-127120185D01*
G37*
G04 #@! TD.AperFunction*
G04 #@! TA.AperFunction,Conductor*
G36*
X181786522Y-129415225D02*
G01*
X181842455Y-129457097D01*
X181846290Y-129462516D01*
X181878602Y-129510874D01*
X181899480Y-129577551D01*
X181899500Y-129579765D01*
X181899500Y-132449902D01*
X181879815Y-132516941D01*
X181863181Y-132537583D01*
X177853563Y-136547200D01*
X177792240Y-136580685D01*
X177727564Y-136577450D01*
X177601370Y-136536447D01*
X177368097Y-136499500D01*
X177368092Y-136499500D01*
X177131908Y-136499500D01*
X177131903Y-136499500D01*
X176898630Y-136536447D01*
X176898627Y-136536447D01*
X176711818Y-136597146D01*
X176641977Y-136599141D01*
X176582144Y-136563061D01*
X176551316Y-136500360D01*
X176549500Y-136479215D01*
X176549500Y-134520784D01*
X176569185Y-134453745D01*
X176621989Y-134407990D01*
X176691147Y-134398046D01*
X176711812Y-134402851D01*
X176798925Y-134431156D01*
X176898631Y-134463553D01*
X177131903Y-134500500D01*
X177131908Y-134500500D01*
X177368097Y-134500500D01*
X177601368Y-134463553D01*
X177655424Y-134445989D01*
X177825992Y-134390568D01*
X178036433Y-134283343D01*
X178227510Y-134144517D01*
X178394517Y-133977510D01*
X178533343Y-133786433D01*
X178640568Y-133575992D01*
X178713553Y-133351368D01*
X178726482Y-133269737D01*
X178750500Y-133118097D01*
X178750500Y-132881902D01*
X178713553Y-132648635D01*
X178713553Y-132648632D01*
X178672547Y-132522433D01*
X178670553Y-132452593D01*
X178702796Y-132396437D01*
X181655509Y-129443724D01*
X181716830Y-129410241D01*
X181786522Y-129415225D01*
G37*
G04 #@! TD.AperFunction*
G04 #@! TA.AperFunction,Conductor*
G36*
X188112311Y-128707435D02*
G01*
X188133351Y-128708563D01*
X188145165Y-128717082D01*
X188159137Y-128721185D01*
X188172932Y-128737105D01*
X188190023Y-128749430D01*
X188195355Y-128762983D01*
X188204892Y-128773989D01*
X188207890Y-128794843D01*
X188215604Y-128814448D01*
X188214274Y-128839244D01*
X188214836Y-128843147D01*
X188213715Y-128849691D01*
X188199500Y-128921153D01*
X188199500Y-129078846D01*
X188230261Y-129233489D01*
X188230264Y-129233501D01*
X188290602Y-129379172D01*
X188290609Y-129379185D01*
X188378602Y-129510874D01*
X188399480Y-129577551D01*
X188399500Y-129579765D01*
X188399500Y-132860010D01*
X188379815Y-132927049D01*
X188363181Y-132947691D01*
X185718481Y-135592390D01*
X185718475Y-135592398D01*
X185670835Y-135674915D01*
X185670835Y-135674916D01*
X185639423Y-135729323D01*
X185598499Y-135882051D01*
X185598499Y-135882053D01*
X185596396Y-135889902D01*
X185593238Y-135889055D01*
X185571114Y-135939003D01*
X185512771Y-135977446D01*
X185442905Y-135978243D01*
X185388799Y-135946556D01*
X184385762Y-134943519D01*
X184352277Y-134882196D01*
X184349443Y-134855838D01*
X184349443Y-132424500D01*
X184369128Y-132357461D01*
X184421932Y-132311706D01*
X184473443Y-132300500D01*
X184578844Y-132300500D01*
X184578845Y-132300499D01*
X184733497Y-132269737D01*
X184808963Y-132238478D01*
X184877864Y-132209939D01*
X184925316Y-132200500D01*
X186068996Y-132200500D01*
X186160040Y-132182389D01*
X186204328Y-132173580D01*
X186268069Y-132147177D01*
X186331807Y-132120777D01*
X186331808Y-132120776D01*
X186331811Y-132120775D01*
X186446543Y-132044114D01*
X187194586Y-131296069D01*
X187234810Y-131269192D01*
X187301446Y-131241592D01*
X187379173Y-131209397D01*
X187379176Y-131209395D01*
X187379179Y-131209394D01*
X187510289Y-131121789D01*
X187621789Y-131010289D01*
X187709394Y-130879179D01*
X187769737Y-130733497D01*
X187800500Y-130578842D01*
X187800500Y-130421158D01*
X187800500Y-130421155D01*
X187800499Y-130421153D01*
X187769737Y-130266503D01*
X187765478Y-130256221D01*
X187709397Y-130120827D01*
X187709390Y-130120814D01*
X187621789Y-129989711D01*
X187621786Y-129989707D01*
X187510292Y-129878213D01*
X187510288Y-129878210D01*
X187379185Y-129790609D01*
X187379172Y-129790602D01*
X187233501Y-129730264D01*
X187233489Y-129730261D01*
X187078845Y-129699500D01*
X187078842Y-129699500D01*
X186921158Y-129699500D01*
X186921155Y-129699500D01*
X186766510Y-129730261D01*
X186766498Y-129730264D01*
X186620827Y-129790602D01*
X186620814Y-129790609D01*
X186489711Y-129878210D01*
X186489707Y-129878213D01*
X186378213Y-129989707D01*
X186378210Y-129989711D01*
X186290609Y-130120814D01*
X186290604Y-130120823D01*
X186230809Y-130265184D01*
X186203929Y-130305412D01*
X185746162Y-130763181D01*
X185684839Y-130796666D01*
X185658481Y-130799500D01*
X184999153Y-130799500D01*
X184932114Y-130779815D01*
X184886359Y-130727011D01*
X184876415Y-130657853D01*
X184905440Y-130594297D01*
X184911472Y-130587819D01*
X185591121Y-129908170D01*
X186350490Y-129148801D01*
X186411811Y-129115318D01*
X186481503Y-129120302D01*
X186507060Y-129133382D01*
X186620814Y-129209390D01*
X186620827Y-129209397D01*
X186752727Y-129264031D01*
X186766503Y-129269737D01*
X186909575Y-129298196D01*
X186921153Y-129300499D01*
X186921156Y-129300500D01*
X186921158Y-129300500D01*
X187078844Y-129300500D01*
X187078845Y-129300499D01*
X187233497Y-129269737D01*
X187379179Y-129209394D01*
X187510289Y-129121789D01*
X187621789Y-129010289D01*
X187709394Y-128879179D01*
X187716481Y-128862069D01*
X187751284Y-128778048D01*
X187795125Y-128723644D01*
X187861419Y-128701579D01*
X187865845Y-128701500D01*
X188092098Y-128701500D01*
X188112311Y-128707435D01*
G37*
G04 #@! TD.AperFunction*
G04 #@! TA.AperFunction,Conductor*
G36*
X224169481Y-126622185D02*
G01*
X224215236Y-126674989D01*
X224224059Y-126702309D01*
X224230261Y-126733489D01*
X224230263Y-126733498D01*
X224290602Y-126879172D01*
X224290609Y-126879185D01*
X224378210Y-127010288D01*
X224378213Y-127010292D01*
X224489707Y-127121786D01*
X224489711Y-127121789D01*
X224620814Y-127209390D01*
X224620827Y-127209397D01*
X224758683Y-127266498D01*
X224766503Y-127269737D01*
X224921153Y-127300499D01*
X224921156Y-127300500D01*
X224921158Y-127300500D01*
X225078844Y-127300500D01*
X225201072Y-127276187D01*
X225270664Y-127282414D01*
X225312945Y-127310123D01*
X231530641Y-133527819D01*
X231564126Y-133589142D01*
X231559142Y-133658834D01*
X231517270Y-133714767D01*
X231451806Y-133739184D01*
X231442960Y-133739500D01*
X224578949Y-133739500D01*
X224420835Y-133739500D01*
X224268107Y-133780423D01*
X224268106Y-133780423D01*
X224268104Y-133780424D01*
X224268101Y-133780425D01*
X224217988Y-133809359D01*
X224217987Y-133809360D01*
X224174581Y-133834420D01*
X224131177Y-133859479D01*
X224131174Y-133859481D01*
X224019370Y-133971286D01*
X222070685Y-135919970D01*
X222009362Y-135953455D01*
X221939670Y-135948471D01*
X221883737Y-135906599D01*
X221872519Y-135888584D01*
X221810315Y-135766503D01*
X221783343Y-135713567D01*
X221644517Y-135522490D01*
X221477510Y-135355483D01*
X221286433Y-135216657D01*
X221265276Y-135205877D01*
X221075996Y-135109433D01*
X220851368Y-135036446D01*
X220618097Y-134999500D01*
X220618092Y-134999500D01*
X220381908Y-134999500D01*
X220381903Y-134999500D01*
X220148631Y-135036446D01*
X219924003Y-135109433D01*
X219713566Y-135216657D01*
X219611791Y-135290602D01*
X219522490Y-135355483D01*
X219522488Y-135355485D01*
X219522487Y-135355485D01*
X219355485Y-135522487D01*
X219355485Y-135522488D01*
X219355483Y-135522490D01*
X219304698Y-135592390D01*
X219216657Y-135713566D01*
X219194092Y-135757853D01*
X219157303Y-135830057D01*
X219156417Y-135831795D01*
X219108442Y-135882591D01*
X219045932Y-135899500D01*
X215454068Y-135899500D01*
X215387029Y-135879815D01*
X215343583Y-135831795D01*
X215283343Y-135713567D01*
X215144517Y-135522490D01*
X214977510Y-135355483D01*
X214786433Y-135216657D01*
X214765276Y-135205877D01*
X214575996Y-135109433D01*
X214351368Y-135036446D01*
X214118097Y-134999500D01*
X214118092Y-134999500D01*
X213881908Y-134999500D01*
X213881903Y-134999500D01*
X213648628Y-135036447D01*
X213522433Y-135077450D01*
X213452592Y-135079445D01*
X213396435Y-135047200D01*
X207647431Y-129298196D01*
X207637334Y-129279704D01*
X207623255Y-129264031D01*
X207620925Y-129249654D01*
X207613946Y-129236873D01*
X207615448Y-129215857D01*
X207612079Y-129195061D01*
X207617891Y-129181708D01*
X207618930Y-129167181D01*
X207631556Y-129150314D01*
X207639965Y-129130997D01*
X207658442Y-129114399D01*
X207660802Y-129111248D01*
X207666211Y-129107419D01*
X207757294Y-129046560D01*
X207757293Y-129046560D01*
X207757881Y-129046168D01*
X207824558Y-129025291D01*
X207826771Y-129025271D01*
X208124674Y-129025271D01*
X208191713Y-129044956D01*
X208212355Y-129061590D01*
X209665425Y-130514660D01*
X209698910Y-130575983D01*
X209699361Y-130578149D01*
X209730261Y-130733491D01*
X209730264Y-130733501D01*
X209790602Y-130879172D01*
X209790609Y-130879185D01*
X209878210Y-131010288D01*
X209878213Y-131010292D01*
X209989707Y-131121786D01*
X209989711Y-131121789D01*
X210120814Y-131209390D01*
X210120827Y-131209397D01*
X210240801Y-131259091D01*
X210266503Y-131269737D01*
X210369739Y-131290272D01*
X210421153Y-131300499D01*
X210421156Y-131300500D01*
X210421158Y-131300500D01*
X210578844Y-131300500D01*
X210578845Y-131300499D01*
X210733497Y-131269737D01*
X210879179Y-131209394D01*
X211010289Y-131121789D01*
X211121789Y-131010289D01*
X211209394Y-130879179D01*
X211269737Y-130733497D01*
X211300500Y-130578842D01*
X211300500Y-130421158D01*
X211300500Y-130421155D01*
X211300499Y-130421153D01*
X211269737Y-130266503D01*
X211265478Y-130256221D01*
X211209397Y-130120827D01*
X211209390Y-130120814D01*
X211121789Y-129989711D01*
X211121786Y-129989707D01*
X211010292Y-129878213D01*
X211010288Y-129878210D01*
X210879185Y-129790609D01*
X210879172Y-129790602D01*
X210733501Y-129730264D01*
X210733491Y-129730261D01*
X210578149Y-129699361D01*
X210516238Y-129666976D01*
X210514660Y-129665425D01*
X208912361Y-128063126D01*
X208912359Y-128063123D01*
X208793488Y-127944252D01*
X208793487Y-127944251D01*
X208680779Y-127879179D01*
X208680779Y-127879178D01*
X208680774Y-127879177D01*
X208672323Y-127874297D01*
X208656557Y-127865194D01*
X208618374Y-127854963D01*
X208503828Y-127824270D01*
X208345714Y-127824270D01*
X208338118Y-127824270D01*
X208338102Y-127824271D01*
X207826771Y-127824271D01*
X207759732Y-127804586D01*
X207757880Y-127803373D01*
X207626190Y-127715380D01*
X207626177Y-127715373D01*
X207480506Y-127655035D01*
X207480494Y-127655032D01*
X207325850Y-127624271D01*
X207325847Y-127624271D01*
X207168163Y-127624271D01*
X207168160Y-127624271D01*
X207013515Y-127655032D01*
X207013503Y-127655035D01*
X206867832Y-127715373D01*
X206867819Y-127715380D01*
X206736716Y-127802981D01*
X206736712Y-127802984D01*
X206625218Y-127914478D01*
X206625212Y-127914486D01*
X206564363Y-128005554D01*
X206510751Y-128050360D01*
X206441426Y-128059067D01*
X206378399Y-128028913D01*
X206373580Y-128024345D01*
X205163416Y-126814181D01*
X205129931Y-126752858D01*
X205134915Y-126683166D01*
X205176787Y-126627233D01*
X205242251Y-126602816D01*
X205251097Y-126602500D01*
X224102442Y-126602500D01*
X224169481Y-126622185D01*
G37*
G04 #@! TD.AperFunction*
G04 #@! TA.AperFunction,Conductor*
G36*
X229805703Y-125198384D02*
G01*
X229812180Y-125204415D01*
X231838025Y-127230261D01*
X233833517Y-129225753D01*
X233867002Y-129287076D01*
X233862018Y-129356768D01*
X233820146Y-129412701D01*
X233789170Y-129429616D01*
X233677669Y-129471203D01*
X233677664Y-129471206D01*
X233562455Y-129557452D01*
X233562452Y-129557455D01*
X233476206Y-129672664D01*
X233476202Y-129672671D01*
X233425908Y-129807517D01*
X233419501Y-129867116D01*
X233419500Y-129867135D01*
X233419500Y-130812870D01*
X233419501Y-130812876D01*
X233425908Y-130872483D01*
X233461702Y-130968451D01*
X233466686Y-131038143D01*
X233460085Y-131059227D01*
X233455549Y-131070180D01*
X233455545Y-131070190D01*
X233420000Y-131248891D01*
X233420000Y-131431109D01*
X233455545Y-131609805D01*
X233455548Y-131609817D01*
X233525275Y-131778153D01*
X233526808Y-131781022D01*
X233527156Y-131782695D01*
X233527606Y-131783781D01*
X233527400Y-131783866D01*
X233541046Y-131849426D01*
X233526811Y-131897909D01*
X233524834Y-131901607D01*
X233455067Y-132070041D01*
X233455065Y-132070047D01*
X233419500Y-132248843D01*
X233419500Y-132248846D01*
X233419500Y-132431154D01*
X233419500Y-132431156D01*
X233419499Y-132431156D01*
X233451357Y-132591308D01*
X233445130Y-132660900D01*
X233402267Y-132716077D01*
X233336378Y-132739322D01*
X233329740Y-132739500D01*
X232492154Y-132739500D01*
X232425115Y-132719815D01*
X232404473Y-132703181D01*
X231004207Y-131302915D01*
X230970722Y-131241592D01*
X230975706Y-131171900D01*
X231007411Y-131127526D01*
X231005982Y-131126097D01*
X231121786Y-131010292D01*
X231121789Y-131010289D01*
X231209394Y-130879179D01*
X231269737Y-130733497D01*
X231300500Y-130578842D01*
X231300500Y-130421158D01*
X231300500Y-130421155D01*
X231300499Y-130421153D01*
X231269737Y-130266503D01*
X231265478Y-130256221D01*
X231209397Y-130120827D01*
X231209390Y-130120814D01*
X231121789Y-129989711D01*
X231121786Y-129989707D01*
X231010292Y-129878213D01*
X231010288Y-129878210D01*
X230879185Y-129790609D01*
X230879172Y-129790602D01*
X230733501Y-129730264D01*
X230733491Y-129730261D01*
X230578149Y-129699361D01*
X230516238Y-129666976D01*
X230514660Y-129665425D01*
X229636819Y-128787584D01*
X229603334Y-128726261D01*
X229600500Y-128699903D01*
X229600500Y-125292097D01*
X229620185Y-125225058D01*
X229672989Y-125179303D01*
X229742147Y-125169359D01*
X229805703Y-125198384D01*
G37*
G04 #@! TD.AperFunction*
G04 #@! TA.AperFunction,Conductor*
G36*
X179180484Y-127120185D02*
G01*
X179226239Y-127172989D01*
X179236183Y-127242147D01*
X179231159Y-127260411D01*
X179232031Y-127260676D01*
X179230261Y-127266510D01*
X179199500Y-127421153D01*
X179199500Y-127578846D01*
X179230261Y-127733489D01*
X179230264Y-127733501D01*
X179290602Y-127879172D01*
X179290609Y-127879185D01*
X179378210Y-128010288D01*
X179378213Y-128010292D01*
X179489707Y-128121786D01*
X179489711Y-128121789D01*
X179620814Y-128209390D01*
X179620827Y-128209397D01*
X179750897Y-128263273D01*
X179766503Y-128269737D01*
X179921153Y-128300499D01*
X179921156Y-128300500D01*
X179921158Y-128300500D01*
X180078844Y-128300500D01*
X180078845Y-128300499D01*
X180233497Y-128269737D01*
X180379179Y-128209394D01*
X180510289Y-128121789D01*
X180553236Y-128078842D01*
X180596260Y-128035819D01*
X180657583Y-128002334D01*
X180683941Y-127999500D01*
X181101903Y-127999500D01*
X181168942Y-128019185D01*
X181214697Y-128071989D01*
X181224641Y-128141147D01*
X181195616Y-128204703D01*
X181189584Y-128211181D01*
X177853563Y-131547200D01*
X177792240Y-131580685D01*
X177727564Y-131577450D01*
X177601370Y-131536447D01*
X177368097Y-131499500D01*
X177368092Y-131499500D01*
X177131908Y-131499500D01*
X177131903Y-131499500D01*
X176898630Y-131536447D01*
X176898627Y-131536447D01*
X176711818Y-131597146D01*
X176641977Y-131599141D01*
X176582144Y-131563061D01*
X176551316Y-131500360D01*
X176549500Y-131479215D01*
X176549500Y-129351097D01*
X176569185Y-129284058D01*
X176585819Y-129263416D01*
X178712417Y-127136819D01*
X178773740Y-127103334D01*
X178800098Y-127100500D01*
X179113445Y-127100500D01*
X179180484Y-127120185D01*
G37*
G04 #@! TD.AperFunction*
G04 #@! TA.AperFunction,Conductor*
G36*
X225166941Y-122520184D02*
G01*
X225187583Y-122536818D01*
X227165425Y-124514660D01*
X227198910Y-124575983D01*
X227199361Y-124578149D01*
X227230261Y-124733491D01*
X227230264Y-124733501D01*
X227290602Y-124879172D01*
X227290609Y-124879185D01*
X227378210Y-125010288D01*
X227378213Y-125010292D01*
X227489707Y-125121786D01*
X227489711Y-125121789D01*
X227620814Y-125209390D01*
X227620827Y-125209397D01*
X227766498Y-125269735D01*
X227766503Y-125269737D01*
X227878914Y-125292097D01*
X227921153Y-125300499D01*
X227921156Y-125300500D01*
X227921158Y-125300500D01*
X228078844Y-125300500D01*
X228078845Y-125300499D01*
X228233497Y-125269737D01*
X228233509Y-125269731D01*
X228239324Y-125267969D01*
X228240158Y-125270720D01*
X228297359Y-125264497D01*
X228359878Y-125295691D01*
X228395608Y-125355734D01*
X228399500Y-125386555D01*
X228399500Y-128398846D01*
X228379815Y-128465885D01*
X228327011Y-128511640D01*
X228257853Y-128521584D01*
X228194297Y-128492559D01*
X228187819Y-128486527D01*
X226237819Y-126536527D01*
X226204334Y-126475204D01*
X226201500Y-126448846D01*
X226201500Y-124840116D01*
X226201501Y-124840103D01*
X226201501Y-124672002D01*
X226201501Y-124672000D01*
X226160577Y-124519272D01*
X226123981Y-124455886D01*
X226081520Y-124382341D01*
X225969716Y-124270537D01*
X225969715Y-124270536D01*
X225965385Y-124266206D01*
X225965374Y-124266196D01*
X224411358Y-122712180D01*
X224377873Y-122650857D01*
X224382857Y-122581165D01*
X224424729Y-122525232D01*
X224490193Y-122500815D01*
X224499039Y-122500499D01*
X225099902Y-122500499D01*
X225166941Y-122520184D01*
G37*
G04 #@! TD.AperFunction*
G04 #@! TA.AperFunction,Conductor*
G36*
X167024520Y-123519185D02*
G01*
X167045162Y-123535819D01*
X167995162Y-124485819D01*
X168028647Y-124547142D01*
X168023663Y-124616834D01*
X167981791Y-124672767D01*
X167916327Y-124697184D01*
X167907481Y-124697500D01*
X166824009Y-124697500D01*
X166756970Y-124677815D01*
X166711215Y-124625011D01*
X166709445Y-124620945D01*
X166709394Y-124620821D01*
X166621789Y-124489711D01*
X166621786Y-124489707D01*
X166510292Y-124378213D01*
X166510288Y-124378210D01*
X166379185Y-124290609D01*
X166379172Y-124290602D01*
X166233501Y-124230264D01*
X166233489Y-124230261D01*
X166078845Y-124199500D01*
X166078842Y-124199500D01*
X165921158Y-124199500D01*
X165921155Y-124199500D01*
X165766510Y-124230261D01*
X165766498Y-124230264D01*
X165620827Y-124290602D01*
X165620814Y-124290609D01*
X165489711Y-124378210D01*
X165489707Y-124378213D01*
X165378213Y-124489707D01*
X165378210Y-124489711D01*
X165290609Y-124620814D01*
X165290602Y-124620827D01*
X165230264Y-124766498D01*
X165230261Y-124766510D01*
X165199500Y-124921153D01*
X165199500Y-124985931D01*
X165179815Y-125052970D01*
X165127011Y-125098725D01*
X165057853Y-125108669D01*
X165006610Y-125089034D01*
X164961774Y-125059076D01*
X164961763Y-125059070D01*
X164816092Y-124998732D01*
X164816080Y-124998729D01*
X164661436Y-124967968D01*
X164661433Y-124967968D01*
X164503749Y-124967968D01*
X164503746Y-124967968D01*
X164349101Y-124998729D01*
X164349094Y-124998731D01*
X164315304Y-125012727D01*
X164245835Y-125020194D01*
X164183356Y-124988919D01*
X164147704Y-124928829D01*
X164150199Y-124859004D01*
X164180170Y-124810486D01*
X165454838Y-123535819D01*
X165516161Y-123502334D01*
X165542519Y-123499500D01*
X166957481Y-123499500D01*
X167024520Y-123519185D01*
G37*
G04 #@! TD.AperFunction*
G04 #@! TA.AperFunction,Conductor*
G36*
X220512617Y-123008445D02*
G01*
X220543511Y-123015746D01*
X220545895Y-123018217D01*
X220549191Y-123019185D01*
X220569980Y-123043177D01*
X220592027Y-123066025D01*
X220593571Y-123070402D01*
X220594946Y-123071989D01*
X220603769Y-123099308D01*
X220630261Y-123232491D01*
X220630264Y-123232501D01*
X220690602Y-123378172D01*
X220690609Y-123378185D01*
X220778602Y-123509874D01*
X220799480Y-123576551D01*
X220799500Y-123578765D01*
X220799500Y-124876500D01*
X220779815Y-124943539D01*
X220727011Y-124989294D01*
X220675500Y-125000500D01*
X205185768Y-125000500D01*
X205118729Y-124980815D01*
X205072974Y-124928011D01*
X205063030Y-124858853D01*
X205085450Y-124803615D01*
X205117294Y-124759785D01*
X205155051Y-124707816D01*
X205251557Y-124518412D01*
X205317246Y-124316243D01*
X205350500Y-124106287D01*
X205350500Y-123893713D01*
X205317246Y-123683757D01*
X205251557Y-123481588D01*
X205155051Y-123292184D01*
X205104538Y-123222658D01*
X205085450Y-123196385D01*
X205061970Y-123130579D01*
X205077796Y-123062525D01*
X205127902Y-123013830D01*
X205185768Y-122999500D01*
X220482152Y-122999500D01*
X220512617Y-123008445D01*
G37*
G04 #@! TD.AperFunction*
G04 #@! TA.AperFunction,Conductor*
G36*
X194973039Y-123469185D02*
G01*
X195018794Y-123521989D01*
X195030000Y-123573500D01*
X195030000Y-123750000D01*
X195946988Y-123750000D01*
X195914075Y-123807007D01*
X195880000Y-123934174D01*
X195880000Y-124065826D01*
X195914075Y-124192993D01*
X195946988Y-124250000D01*
X195030000Y-124250000D01*
X195030000Y-124426500D01*
X195010315Y-124493539D01*
X194957511Y-124539294D01*
X194906000Y-124550500D01*
X192122302Y-124550500D01*
X192092861Y-124541855D01*
X192062875Y-124535332D01*
X192057859Y-124531577D01*
X192055263Y-124530815D01*
X192034621Y-124514181D01*
X192032075Y-124511635D01*
X191998590Y-124450312D01*
X191998139Y-124448145D01*
X191978719Y-124350516D01*
X191967238Y-124292799D01*
X191957686Y-124269738D01*
X191906898Y-124147123D01*
X191906890Y-124147108D01*
X191884069Y-124112955D01*
X191863190Y-124046278D01*
X191881674Y-123978897D01*
X191884034Y-123975225D01*
X191885696Y-123972738D01*
X191946039Y-123827056D01*
X191974543Y-123683757D01*
X191976940Y-123671709D01*
X191985704Y-123654952D01*
X191989725Y-123636473D01*
X192008470Y-123611431D01*
X192009325Y-123609798D01*
X192010769Y-123608326D01*
X192133279Y-123485816D01*
X192194600Y-123452334D01*
X192220958Y-123449500D01*
X194906000Y-123449500D01*
X194973039Y-123469185D01*
G37*
G04 #@! TD.AperFunction*
G04 #@! TA.AperFunction,Conductor*
G36*
X207418835Y-120182914D02*
G01*
X207474768Y-120224786D01*
X207499185Y-120290250D01*
X207499501Y-120299096D01*
X207499501Y-121547872D01*
X207505909Y-121607483D01*
X207518479Y-121641186D01*
X207520447Y-121651707D01*
X207517966Y-121676252D01*
X207519726Y-121700860D01*
X207514514Y-121710403D01*
X207513421Y-121721222D01*
X207498063Y-121740529D01*
X207486240Y-121762182D01*
X207476696Y-121767393D01*
X207469927Y-121775904D01*
X207446569Y-121783843D01*
X207424916Y-121795667D01*
X207405713Y-121797731D01*
X207403775Y-121798390D01*
X207402509Y-121798075D01*
X207398560Y-121798500D01*
X206000097Y-121798500D01*
X205933058Y-121778815D01*
X205887303Y-121726011D01*
X205877359Y-121656853D01*
X205906384Y-121593297D01*
X205912416Y-121586819D01*
X207287820Y-120211415D01*
X207349143Y-120177930D01*
X207418835Y-120182914D01*
G37*
G04 #@! TD.AperFunction*
G04 #@! TA.AperFunction,Conductor*
G36*
X217465674Y-117609145D02*
G01*
X217495657Y-117615668D01*
X217498887Y-117618898D01*
X217503270Y-117620185D01*
X217523362Y-117643372D01*
X217545063Y-117665073D01*
X217546034Y-117669537D01*
X217549025Y-117672989D01*
X217553392Y-117703360D01*
X217559915Y-117733346D01*
X217558583Y-117739466D01*
X217558969Y-117742147D01*
X217552413Y-117767833D01*
X217505908Y-117892517D01*
X217499501Y-117952116D01*
X217499500Y-117952127D01*
X217499500Y-119817903D01*
X217499501Y-121674500D01*
X217479816Y-121741539D01*
X217427012Y-121787294D01*
X217375501Y-121798500D01*
X212601440Y-121798500D01*
X212534401Y-121778815D01*
X212488646Y-121726011D01*
X212478702Y-121656853D01*
X212485258Y-121631168D01*
X212494090Y-121607485D01*
X212494091Y-121607483D01*
X212495616Y-121593297D01*
X212500500Y-121547873D01*
X212500499Y-117724499D01*
X212520184Y-117657461D01*
X212572988Y-117611706D01*
X212624499Y-117600500D01*
X217436231Y-117600500D01*
X217465674Y-117609145D01*
G37*
G04 #@! TD.AperFunction*
G04 #@! TA.AperFunction,Conductor*
G36*
X195642681Y-119309307D02*
G01*
X195688436Y-119362111D01*
X195697265Y-119415066D01*
X195699500Y-119415066D01*
X195699500Y-119578846D01*
X195730261Y-119733489D01*
X195730264Y-119733501D01*
X195790602Y-119879172D01*
X195790609Y-119879185D01*
X195878210Y-120010288D01*
X195878213Y-120010292D01*
X195989707Y-120121786D01*
X195989711Y-120121789D01*
X196120814Y-120209390D01*
X196120827Y-120209397D01*
X196242317Y-120259719D01*
X196266503Y-120269737D01*
X196409148Y-120298111D01*
X196421153Y-120300499D01*
X196421156Y-120300500D01*
X196421158Y-120300500D01*
X196578844Y-120300500D01*
X196578845Y-120300499D01*
X196733497Y-120269737D01*
X196879179Y-120209394D01*
X196960973Y-120154741D01*
X197010875Y-120121398D01*
X197077553Y-120100520D01*
X197079766Y-120100500D01*
X199375501Y-120100500D01*
X199442540Y-120120185D01*
X199488295Y-120172989D01*
X199499501Y-120224500D01*
X199499501Y-121076500D01*
X199479816Y-121143539D01*
X199427012Y-121189294D01*
X199375501Y-121200500D01*
X192841448Y-121200500D01*
X192774409Y-121180815D01*
X192728654Y-121128011D01*
X192718710Y-121058853D01*
X192726887Y-121029048D01*
X192781860Y-120896329D01*
X192787175Y-120883497D01*
X192817938Y-120728842D01*
X192817938Y-120571158D01*
X192817938Y-120571155D01*
X192817937Y-120571153D01*
X192803343Y-120497786D01*
X192787175Y-120416503D01*
X192777451Y-120393026D01*
X192726835Y-120270828D01*
X192726834Y-120270827D01*
X192726832Y-120270821D01*
X192723947Y-120266503D01*
X192721397Y-120262686D01*
X192700520Y-120196008D01*
X192700500Y-120193797D01*
X192700500Y-119715438D01*
X192709939Y-119667986D01*
X192757175Y-119553947D01*
X192769737Y-119523619D01*
X192792598Y-119408692D01*
X192796429Y-119389431D01*
X192828814Y-119327520D01*
X192889529Y-119292946D01*
X192918046Y-119289622D01*
X195575642Y-119289622D01*
X195642681Y-119309307D01*
G37*
G04 #@! TD.AperFunction*
G04 #@! TA.AperFunction,Conductor*
G36*
X207442539Y-117620185D02*
G01*
X207488294Y-117672989D01*
X207499500Y-117724500D01*
X207499500Y-118775500D01*
X207479815Y-118842539D01*
X207427011Y-118888294D01*
X207375500Y-118899500D01*
X207070940Y-118899500D01*
X207030019Y-118910464D01*
X207030019Y-118910465D01*
X207003190Y-118917654D01*
X206918214Y-118940423D01*
X206918209Y-118940426D01*
X206781290Y-119019475D01*
X206781282Y-119019481D01*
X204712180Y-121088584D01*
X204650857Y-121122069D01*
X204581165Y-121117085D01*
X204525232Y-121075213D01*
X204500815Y-121009749D01*
X204500499Y-121000929D01*
X204500499Y-117724499D01*
X204520184Y-117657461D01*
X204572988Y-117611706D01*
X204624499Y-117600500D01*
X207375500Y-117600500D01*
X207442539Y-117620185D01*
G37*
G04 #@! TD.AperFunction*
G04 #@! TA.AperFunction,Conductor*
G36*
X188721905Y-115520185D02*
G01*
X188767660Y-115572989D01*
X188777604Y-115642147D01*
X188769427Y-115671953D01*
X188730263Y-115766502D01*
X188730261Y-115766510D01*
X188699500Y-115921153D01*
X188699500Y-116078846D01*
X188730261Y-116233489D01*
X188730264Y-116233501D01*
X188790061Y-116377864D01*
X188799500Y-116425316D01*
X188799500Y-117431006D01*
X188799500Y-117568994D01*
X188799500Y-117568996D01*
X188799499Y-117568996D01*
X188826418Y-117704322D01*
X188826421Y-117704332D01*
X188879222Y-117831807D01*
X188955887Y-117946545D01*
X188955888Y-117946546D01*
X189703928Y-118694585D01*
X189730808Y-118734814D01*
X189790602Y-118879172D01*
X189790609Y-118879185D01*
X189875883Y-119006806D01*
X189885370Y-119037104D01*
X189896465Y-119066850D01*
X189895734Y-119070206D01*
X189896761Y-119073484D01*
X189888363Y-119104092D01*
X189881614Y-119135123D01*
X189878831Y-119138840D01*
X189878276Y-119140864D01*
X189860463Y-119163377D01*
X189692394Y-119331449D01*
X189631071Y-119364935D01*
X189604712Y-119367769D01*
X189554939Y-119367769D01*
X189554923Y-119367768D01*
X189547327Y-119367768D01*
X189389213Y-119367768D01*
X189281857Y-119396534D01*
X189236480Y-119408693D01*
X189236479Y-119408694D01*
X189189307Y-119435930D01*
X189189306Y-119435931D01*
X189166327Y-119449198D01*
X189099555Y-119487748D01*
X189099552Y-119487750D01*
X188987748Y-119599555D01*
X188516285Y-120071017D01*
X188454962Y-120104502D01*
X188385270Y-120099518D01*
X188329337Y-120057646D01*
X188306987Y-120007529D01*
X188294000Y-119942237D01*
X188267480Y-119878211D01*
X188233660Y-119796561D01*
X188233653Y-119796548D01*
X188146052Y-119665445D01*
X188146049Y-119665441D01*
X188034555Y-119553947D01*
X188034551Y-119553944D01*
X187903448Y-119466343D01*
X187903435Y-119466336D01*
X187757764Y-119405998D01*
X187757754Y-119405995D01*
X187602412Y-119375095D01*
X187540501Y-119342710D01*
X187538923Y-119341159D01*
X183909945Y-115712181D01*
X183876460Y-115650858D01*
X183881444Y-115581166D01*
X183923316Y-115525233D01*
X183988780Y-115500816D01*
X183997626Y-115500500D01*
X188654866Y-115500500D01*
X188721905Y-115520185D01*
G37*
G04 #@! TD.AperFunction*
G04 #@! TA.AperFunction,Conductor*
G36*
X220342539Y-117194685D02*
G01*
X220388294Y-117247489D01*
X220399500Y-117299000D01*
X220399500Y-117375500D01*
X220379815Y-117442539D01*
X220327011Y-117488294D01*
X220275500Y-117499500D01*
X219150153Y-117499500D01*
X219128904Y-117493260D01*
X219106819Y-117491681D01*
X219096036Y-117483609D01*
X219083114Y-117479815D01*
X219068615Y-117463082D01*
X219050885Y-117449810D01*
X219046177Y-117437188D01*
X219037359Y-117427011D01*
X219034207Y-117405094D01*
X219026469Y-117384345D01*
X219029331Y-117371184D01*
X219027415Y-117357853D01*
X219036613Y-117337710D01*
X219041321Y-117316072D01*
X219054591Y-117298345D01*
X219056440Y-117294297D01*
X219062452Y-117287838D01*
X219138974Y-117211317D01*
X219200297Y-117177834D01*
X219226654Y-117175000D01*
X220275500Y-117175000D01*
X220342539Y-117194685D01*
G37*
G04 #@! TD.AperFunction*
G04 #@! TD*
M02*
