M48
; DRILL file {KiCad 9.0.3} date 2025-08-18T18:11:48-0400
; FORMAT={-:-/ absolute / metric / decimal}
; #@! TF.CreationDate,2025-08-18T18:11:48-04:00
; #@! TF.GenerationSoftware,Kicad,Pcbnew,9.0.3
; #@! TF.FileFunction,Plated,1,2,PTH
FMAT,2
METRIC
; #@! TA.AperFunction,Plated,PTH,ViaDrill
T1C0.300
; #@! TA.AperFunction,Plated,PTH,ComponentDrill
T2C0.500
; #@! TA.AperFunction,Plated,PTH,ComponentDrill
T3C0.600
; #@! TA.AperFunction,Plated,PTH,ComponentDrill
T4C1.000
; #@! TA.AperFunction,Plated,PTH,ComponentDrill
T5C1.100
; #@! TA.AperFunction,Plated,PTH,ComponentDrill
T6C1.500
; #@! TA.AperFunction,Plated,PTH,ComponentDrill
T7C1.520
%
G90
G05
T1
X145.5Y-126.5
X149.0Y-132.5
X150.0Y-130.5
X151.5Y-123.5
X152.5Y-117.0
X152.5Y-125.0
X154.0Y-120.0
X154.0Y-121.0
X158.0Y-126.0
X158.0Y-127.5
X158.5Y-130.5
X159.338Y-121.837
X160.0Y-119.5
X160.0Y-127.5
X161.0Y-128.5
X161.0Y-135.5
X161.819Y-120.284
X164.583Y-125.768
X164.734Y-119.539
X164.75Y-118.224
X165.204Y-120.187
X165.808Y-121.194
X166.0Y-125.0
X166.0Y-126.5
X166.0Y-127.5
X166.25Y-128.276
X167.0Y-122.0
X167.0Y-123.5
X168.1Y-120.0
X168.832Y-120.322
X169.0Y-124.5
X169.509Y-126.326
X169.662Y-128.338
X171.0Y-131.5
X171.5Y-116.5
X171.5Y-126.0
X173.687Y-131.088
X174.75Y-117.75
X175.5Y-119.0
X176.499Y-117.776
X178.349Y-128.616
X178.5Y-135.5
X179.812Y-117.464
X179.853Y-124.05
X180.0Y-127.5
X181.707Y-126.587
X182.0Y-136.0
X182.139Y-123.912
X182.5Y-120.5
X182.5Y-129.0
X182.772Y-123.228
X183.0Y-119.5
X183.1Y-128.0
X183.9Y-128.0
X184.5Y-131.5
X185.5Y-116.506
X186.0Y-121.0
X186.714Y-122.857
X187.0Y-128.5
X187.0Y-130.5
X187.5Y-121.0
X187.5Y-131.276
X187.524Y-120.176
X188.5Y-127.5
X189.0Y-129.0
X189.072Y-126.845
X189.5Y-116.0
X190.25Y-126.75
X190.5Y-118.5
X190.54Y-121.326
X191.065Y-122.796
X191.176Y-123.594
X191.198Y-124.526
X191.5Y-129.0
X192.0Y-119.29
X192.017Y-120.65
X192.25Y-131.276
X194.0Y-123.5
X194.5Y-121.0
X194.75Y-119.5
X196.5Y-118.0
X196.5Y-119.5
X196.75Y-130.0
X197.25Y-127.25
X197.5Y-141.0
X199.0Y-132.0
X199.75Y-127.25
X202.25Y-127.25
X206.25Y-119.5
X206.5Y-127.25
X206.5Y-130.25
X207.0Y-121.75
X207.247Y-128.425
X208.0Y-131.75
X208.0Y-133.75
X208.5Y-142.0
X209.5Y-130.75
X210.5Y-130.5
X211.0Y-124.0
X211.0Y-141.0
X211.25Y-132.5
X211.75Y-126.75
X213.0Y-134.25
X215.0Y-119.5
X217.25Y-141.0
X217.372Y-139.72
X218.5Y-126.75
X219.175Y-117.175
X221.2Y-117.3
X221.4Y-122.999
X222.4Y-122.999
X222.4Y-124.4
X223.25Y-126.75
X224.25Y-133.5
X225.0Y-123.0
X225.0Y-125.0
X225.0Y-126.5
X225.5Y-138.0
X227.5Y-129.75
X227.547Y-122.874
X228.0Y-124.5
X228.25Y-133.5
X228.5Y-138.0
X229.5Y-120.5
X230.5Y-130.5
X231.5Y-133.5
X231.5Y-138.0
X233.0Y-131.34
T2
X234.345Y-130.34
X234.345Y-131.34
X234.345Y-132.34
X234.345Y-133.34
X234.345Y-134.34
X234.345Y-135.34
X234.345Y-136.34
X234.345Y-137.34
X234.345Y-138.34
T4
X162.75Y-133.0
X162.75Y-135.5
X162.75Y-138.0
X177.25Y-133.0
X177.25Y-138.0
X196.38Y-124.0
X198.92Y-124.0
X201.46Y-124.0
X204.0Y-124.0
T5
X187.5Y-136.5
X187.5Y-141.0
X194.0Y-136.5
X194.0Y-141.0
X214.0Y-136.5
X214.0Y-141.0
X220.5Y-136.5
X220.5Y-141.0
X229.5Y-117.5
X229.5Y-122.0
X236.0Y-117.5
X236.0Y-122.0
T7
X146.686Y-138.5
X151.766Y-138.5
T3
G00X145.725Y-116.68
M15
G01X145.125Y-116.68
M16
G05
G00X145.725Y-125.32
M15
G01X145.125Y-125.32
M16
G05
G00X150.155Y-116.68
M15
G01X149.055Y-116.68
M16
G05
G00X150.155Y-125.32
M15
G01X149.055Y-125.32
M16
G05
T6
G00X169.6Y-129.9
M15
G01X170.9Y-129.9
M16
G05
G00X169.6Y-141.1
M15
G01X170.9Y-141.1
M16
G05
M30
