G04 #@! TF.GenerationSoftware,KiCad,Pcbnew,9.0.3*
G04 #@! TF.CreationDate,2025-08-18T18:11:48-04:00*
G04 #@! TF.ProjectId,Calender,43616c65-6e64-4657-922e-6b696361645f,rev?*
G04 #@! TF.SameCoordinates,Original*
G04 #@! TF.FileFunction,Legend,Top*
G04 #@! TF.FilePolarity,Positive*
%FSLAX46Y46*%
G04 Gerber Fmt 4.6, Leading zero omitted, Abs format (unit mm)*
G04 Created by KiCad (PCBNEW 9.0.3) date 2025-08-18 18:11:48*
%MOMM*%
%LPD*%
G01*
G04 APERTURE LIST*
G04 Aperture macros list*
%AMRoundRect*
0 Rectangle with rounded corners*
0 $1 Rounding radius*
0 $2 $3 $4 $5 $6 $7 $8 $9 X,Y pos of 4 corners*
0 Add a 4 corners polygon primitive as box body*
4,1,4,$2,$3,$4,$5,$6,$7,$8,$9,$2,$3,0*
0 Add four circle primitives for the rounded corners*
1,1,$1+$1,$2,$3*
1,1,$1+$1,$4,$5*
1,1,$1+$1,$6,$7*
1,1,$1+$1,$8,$9*
0 Add four rect primitives between the rounded corners*
20,1,$1+$1,$2,$3,$4,$5,0*
20,1,$1+$1,$4,$5,$6,$7,0*
20,1,$1+$1,$6,$7,$8,$9,0*
20,1,$1+$1,$8,$9,$2,$3,0*%
G04 Aperture macros list end*
%ADD10C,0.200000*%
%ADD11C,0.000000*%
%ADD12C,0.120000*%
%ADD13RoundRect,0.200000X0.275000X-0.200000X0.275000X0.200000X-0.275000X0.200000X-0.275000X-0.200000X0*%
%ADD14RoundRect,0.200000X0.200000X0.275000X-0.200000X0.275000X-0.200000X-0.275000X0.200000X-0.275000X0*%
%ADD15RoundRect,0.225000X-0.250000X0.225000X-0.250000X-0.225000X0.250000X-0.225000X0.250000X0.225000X0*%
%ADD16C,2.000000*%
%ADD17RoundRect,0.375000X0.625000X0.375000X-0.625000X0.375000X-0.625000X-0.375000X0.625000X-0.375000X0*%
%ADD18RoundRect,0.500000X0.500000X1.400000X-0.500000X1.400000X-0.500000X-1.400000X0.500000X-1.400000X0*%
%ADD19RoundRect,0.200000X-0.200000X-0.275000X0.200000X-0.275000X0.200000X0.275000X-0.200000X0.275000X0*%
%ADD20RoundRect,0.062500X0.350000X0.062500X-0.350000X0.062500X-0.350000X-0.062500X0.350000X-0.062500X0*%
%ADD21RoundRect,0.062500X0.062500X0.350000X-0.062500X0.350000X-0.062500X-0.350000X0.062500X-0.350000X0*%
%ADD22R,2.500000X2.500000*%
%ADD23R,3.000000X3.000000*%
%ADD24C,3.000000*%
%ADD25RoundRect,0.225000X-0.225000X-0.250000X0.225000X-0.250000X0.225000X0.250000X-0.225000X0.250000X0*%
%ADD26R,0.850000X0.850000*%
%ADD27C,0.850000*%
%ADD28R,2.000000X2.000000*%
%ADD29R,3.200000X2.000000*%
%ADD30RoundRect,0.225000X0.250000X-0.225000X0.250000X0.225000X-0.250000X0.225000X-0.250000X-0.225000X0*%
%ADD31RoundRect,0.200000X-0.275000X0.200000X-0.275000X-0.200000X0.275000X-0.200000X0.275000X0.200000X0*%
%ADD32RoundRect,0.225000X0.225000X0.250000X-0.225000X0.250000X-0.225000X-0.250000X0.225000X-0.250000X0*%
%ADD33R,1.500000X0.900000*%
%ADD34R,4.000000X4.000000*%
%ADD35RoundRect,0.075000X-0.662500X-0.075000X0.662500X-0.075000X0.662500X0.075000X-0.662500X0.075000X0*%
%ADD36RoundRect,0.075000X-0.075000X-0.662500X0.075000X-0.662500X0.075000X0.662500X-0.075000X0.662500X0*%
%ADD37C,0.650000*%
%ADD38RoundRect,0.150000X-0.500000X0.150000X-0.500000X-0.150000X0.500000X-0.150000X0.500000X0.150000X0*%
%ADD39RoundRect,0.075000X-0.575000X0.075000X-0.575000X-0.075000X0.575000X-0.075000X0.575000X0.075000X0*%
%ADD40O,2.100000X1.000000*%
%ADD41O,1.600000X1.000000*%
%ADD42RoundRect,0.162500X-0.650000X-0.162500X0.650000X-0.162500X0.650000X0.162500X-0.650000X0.162500X0*%
%ADD43R,1.700000X1.700000*%
%ADD44C,1.700000*%
G04 APERTURE END LIST*
D10*
X224869673Y-141867219D02*
X224869673Y-140867219D01*
X224869673Y-140867219D02*
X225107768Y-140867219D01*
X225107768Y-140867219D02*
X225250625Y-140914838D01*
X225250625Y-140914838D02*
X225345863Y-141010076D01*
X225345863Y-141010076D02*
X225393482Y-141105314D01*
X225393482Y-141105314D02*
X225441101Y-141295790D01*
X225441101Y-141295790D02*
X225441101Y-141438647D01*
X225441101Y-141438647D02*
X225393482Y-141629123D01*
X225393482Y-141629123D02*
X225345863Y-141724361D01*
X225345863Y-141724361D02*
X225250625Y-141819600D01*
X225250625Y-141819600D02*
X225107768Y-141867219D01*
X225107768Y-141867219D02*
X224869673Y-141867219D01*
X226250625Y-141819600D02*
X226155387Y-141867219D01*
X226155387Y-141867219D02*
X225964911Y-141867219D01*
X225964911Y-141867219D02*
X225869673Y-141819600D01*
X225869673Y-141819600D02*
X225822054Y-141724361D01*
X225822054Y-141724361D02*
X225822054Y-141343409D01*
X225822054Y-141343409D02*
X225869673Y-141248171D01*
X225869673Y-141248171D02*
X225964911Y-141200552D01*
X225964911Y-141200552D02*
X226155387Y-141200552D01*
X226155387Y-141200552D02*
X226250625Y-141248171D01*
X226250625Y-141248171D02*
X226298244Y-141343409D01*
X226298244Y-141343409D02*
X226298244Y-141438647D01*
X226298244Y-141438647D02*
X225822054Y-141533885D01*
X226679197Y-141819600D02*
X226774435Y-141867219D01*
X226774435Y-141867219D02*
X226964911Y-141867219D01*
X226964911Y-141867219D02*
X227060149Y-141819600D01*
X227060149Y-141819600D02*
X227107768Y-141724361D01*
X227107768Y-141724361D02*
X227107768Y-141676742D01*
X227107768Y-141676742D02*
X227060149Y-141581504D01*
X227060149Y-141581504D02*
X226964911Y-141533885D01*
X226964911Y-141533885D02*
X226822054Y-141533885D01*
X226822054Y-141533885D02*
X226726816Y-141486266D01*
X226726816Y-141486266D02*
X226679197Y-141391028D01*
X226679197Y-141391028D02*
X226679197Y-141343409D01*
X226679197Y-141343409D02*
X226726816Y-141248171D01*
X226726816Y-141248171D02*
X226822054Y-141200552D01*
X226822054Y-141200552D02*
X226964911Y-141200552D01*
X226964911Y-141200552D02*
X227060149Y-141248171D01*
X227536340Y-141867219D02*
X227536340Y-141200552D01*
X227536340Y-140867219D02*
X227488721Y-140914838D01*
X227488721Y-140914838D02*
X227536340Y-140962457D01*
X227536340Y-140962457D02*
X227583959Y-140914838D01*
X227583959Y-140914838D02*
X227536340Y-140867219D01*
X227536340Y-140867219D02*
X227536340Y-140962457D01*
X228441101Y-141200552D02*
X228441101Y-142010076D01*
X228441101Y-142010076D02*
X228393482Y-142105314D01*
X228393482Y-142105314D02*
X228345863Y-142152933D01*
X228345863Y-142152933D02*
X228250625Y-142200552D01*
X228250625Y-142200552D02*
X228107768Y-142200552D01*
X228107768Y-142200552D02*
X228012530Y-142152933D01*
X228441101Y-141819600D02*
X228345863Y-141867219D01*
X228345863Y-141867219D02*
X228155387Y-141867219D01*
X228155387Y-141867219D02*
X228060149Y-141819600D01*
X228060149Y-141819600D02*
X228012530Y-141771980D01*
X228012530Y-141771980D02*
X227964911Y-141676742D01*
X227964911Y-141676742D02*
X227964911Y-141391028D01*
X227964911Y-141391028D02*
X228012530Y-141295790D01*
X228012530Y-141295790D02*
X228060149Y-141248171D01*
X228060149Y-141248171D02*
X228155387Y-141200552D01*
X228155387Y-141200552D02*
X228345863Y-141200552D01*
X228345863Y-141200552D02*
X228441101Y-141248171D01*
X228917292Y-141200552D02*
X228917292Y-141867219D01*
X228917292Y-141295790D02*
X228964911Y-141248171D01*
X228964911Y-141248171D02*
X229060149Y-141200552D01*
X229060149Y-141200552D02*
X229203006Y-141200552D01*
X229203006Y-141200552D02*
X229298244Y-141248171D01*
X229298244Y-141248171D02*
X229345863Y-141343409D01*
X229345863Y-141343409D02*
X229345863Y-141867219D01*
X230203006Y-141819600D02*
X230107768Y-141867219D01*
X230107768Y-141867219D02*
X229917292Y-141867219D01*
X229917292Y-141867219D02*
X229822054Y-141819600D01*
X229822054Y-141819600D02*
X229774435Y-141724361D01*
X229774435Y-141724361D02*
X229774435Y-141343409D01*
X229774435Y-141343409D02*
X229822054Y-141248171D01*
X229822054Y-141248171D02*
X229917292Y-141200552D01*
X229917292Y-141200552D02*
X230107768Y-141200552D01*
X230107768Y-141200552D02*
X230203006Y-141248171D01*
X230203006Y-141248171D02*
X230250625Y-141343409D01*
X230250625Y-141343409D02*
X230250625Y-141438647D01*
X230250625Y-141438647D02*
X229774435Y-141533885D01*
X231107768Y-141867219D02*
X231107768Y-140867219D01*
X231107768Y-141819600D02*
X231012530Y-141867219D01*
X231012530Y-141867219D02*
X230822054Y-141867219D01*
X230822054Y-141867219D02*
X230726816Y-141819600D01*
X230726816Y-141819600D02*
X230679197Y-141771980D01*
X230679197Y-141771980D02*
X230631578Y-141676742D01*
X230631578Y-141676742D02*
X230631578Y-141391028D01*
X230631578Y-141391028D02*
X230679197Y-141295790D01*
X230679197Y-141295790D02*
X230726816Y-141248171D01*
X230726816Y-141248171D02*
X230822054Y-141200552D01*
X230822054Y-141200552D02*
X231012530Y-141200552D01*
X231012530Y-141200552D02*
X231107768Y-141248171D01*
X232345864Y-141867219D02*
X232345864Y-140867219D01*
X232345864Y-141248171D02*
X232441102Y-141200552D01*
X232441102Y-141200552D02*
X232631578Y-141200552D01*
X232631578Y-141200552D02*
X232726816Y-141248171D01*
X232726816Y-141248171D02*
X232774435Y-141295790D01*
X232774435Y-141295790D02*
X232822054Y-141391028D01*
X232822054Y-141391028D02*
X232822054Y-141676742D01*
X232822054Y-141676742D02*
X232774435Y-141771980D01*
X232774435Y-141771980D02*
X232726816Y-141819600D01*
X232726816Y-141819600D02*
X232631578Y-141867219D01*
X232631578Y-141867219D02*
X232441102Y-141867219D01*
X232441102Y-141867219D02*
X232345864Y-141819600D01*
X233155388Y-141200552D02*
X233393483Y-141867219D01*
X233631578Y-141200552D02*
X233393483Y-141867219D01*
X233393483Y-141867219D02*
X233298245Y-142105314D01*
X233298245Y-142105314D02*
X233250626Y-142152933D01*
X233250626Y-142152933D02*
X233155388Y-142200552D01*
X234012531Y-141771980D02*
X234060150Y-141819600D01*
X234060150Y-141819600D02*
X234012531Y-141867219D01*
X234012531Y-141867219D02*
X233964912Y-141819600D01*
X233964912Y-141819600D02*
X234012531Y-141771980D01*
X234012531Y-141771980D02*
X234012531Y-141867219D01*
X234012531Y-141248171D02*
X234060150Y-141295790D01*
X234060150Y-141295790D02*
X234012531Y-141343409D01*
X234012531Y-141343409D02*
X233964912Y-141295790D01*
X233964912Y-141295790D02*
X234012531Y-141248171D01*
X234012531Y-141248171D02*
X234012531Y-141343409D01*
X235203007Y-141581504D02*
X235679197Y-141581504D01*
X235107769Y-141867219D02*
X235441102Y-140867219D01*
X235441102Y-140867219D02*
X235774435Y-141867219D01*
X235964912Y-140867219D02*
X236536340Y-140867219D01*
X236250626Y-141867219D02*
X236250626Y-140867219D01*
X237060150Y-141391028D02*
X237060150Y-141867219D01*
X236726817Y-140867219D02*
X237060150Y-141391028D01*
X237060150Y-141391028D02*
X237393483Y-140867219D01*
D11*
G04 #@! TO.C,G\u002A\u002A\u002A*
G36*
X202613530Y-130739995D02*
G01*
X202649163Y-130933027D01*
X202660639Y-131268377D01*
X202661333Y-131457666D01*
X202656787Y-131841084D01*
X202640164Y-132083726D01*
X202606979Y-132213980D01*
X202552752Y-132260230D01*
X202534333Y-132261999D01*
X202465480Y-132227265D01*
X202425998Y-132102325D01*
X202409255Y-131856069D01*
X202407333Y-131666354D01*
X202404121Y-131358059D01*
X202387997Y-131188239D01*
X202349227Y-131126064D01*
X202278079Y-131140705D01*
X202246463Y-131156803D01*
X202094406Y-131196975D01*
X202033069Y-131133862D01*
X202064014Y-131008138D01*
X202188808Y-130860482D01*
X202233727Y-130825708D01*
X202418608Y-130705246D01*
X202540943Y-130670372D01*
X202613530Y-130739995D01*
G37*
G36*
X205605073Y-130945955D02*
G01*
X205627813Y-132974245D01*
X205057010Y-133549455D01*
X204486207Y-134124666D01*
X202470446Y-134124666D01*
X201797753Y-134122540D01*
X201278430Y-134115610D01*
X200896562Y-134103051D01*
X200636234Y-134084035D01*
X200481528Y-134057736D01*
X200416530Y-134023328D01*
X200413698Y-134017855D01*
X200404036Y-133908811D01*
X200396693Y-133652525D01*
X200391827Y-133271076D01*
X200389909Y-132854666D01*
X201645333Y-132854666D01*
X202999999Y-132854666D01*
X204354666Y-132854666D01*
X204354666Y-131499999D01*
X204354666Y-130145333D01*
X202999999Y-130145333D01*
X201645333Y-130145333D01*
X201645333Y-131499999D01*
X201645333Y-132854666D01*
X200389909Y-132854666D01*
X200389595Y-132786543D01*
X200390153Y-132221004D01*
X200393659Y-131596538D01*
X200394469Y-131499999D01*
X200395188Y-131414355D01*
X200417666Y-128917666D01*
X202999999Y-128917666D01*
X205582333Y-128917666D01*
X205605073Y-130945955D01*
G37*
G36*
X203726585Y-130693494D02*
G01*
X203829733Y-130754932D01*
X203905785Y-130911303D01*
X203928598Y-131122398D01*
X203896036Y-131307075D01*
X203846016Y-131373401D01*
X203824238Y-131466012D01*
X203888350Y-131553778D01*
X204005277Y-131772929D01*
X203965378Y-132014708D01*
X203846666Y-132177333D01*
X203593035Y-132325060D01*
X203305811Y-132315384D01*
X203103505Y-132214865D01*
X202962732Y-132074936D01*
X202915333Y-131960865D01*
X202976713Y-131859709D01*
X203105013Y-131846418D01*
X203211666Y-131923333D01*
X203328034Y-131988183D01*
X203476551Y-132007999D01*
X203632368Y-131978963D01*
X203667001Y-131862789D01*
X203662054Y-131817499D01*
X203565640Y-131646333D01*
X203444499Y-131599944D01*
X203285200Y-131531679D01*
X203274061Y-131418912D01*
X203411761Y-131300342D01*
X203439022Y-131287243D01*
X203597446Y-131180902D01*
X203657729Y-131097877D01*
X203628797Y-130985246D01*
X203495450Y-130929454D01*
X203317568Y-130946323D01*
X203232802Y-130985588D01*
X203060578Y-131042054D01*
X202966268Y-130988224D01*
X202986842Y-130861830D01*
X203042937Y-130791823D01*
X203234984Y-130690617D01*
X203489941Y-130656571D01*
X203726585Y-130693494D01*
G37*
D12*
G04 #@! TO.C,R9*
X205477500Y-117062258D02*
X205477500Y-116587742D01*
X206522500Y-117062258D02*
X206522500Y-116587742D01*
G04 #@! TO.C,R12*
X231412258Y-126977500D02*
X230937742Y-126977500D01*
X231412258Y-128022500D02*
X230937742Y-128022500D01*
G04 #@! TO.C,C8*
X192490000Y-119134420D02*
X192490000Y-119415580D01*
X193510000Y-119134420D02*
X193510000Y-119415580D01*
G04 #@! TO.C,SW3*
X213750000Y-138000000D02*
X213750000Y-139500000D01*
X215000000Y-142000000D02*
X219500000Y-142000000D01*
X219500000Y-135500000D02*
X215000000Y-135500000D01*
X220750000Y-139500000D02*
X220750000Y-138000000D01*
G04 #@! TO.C,U4*
X172090000Y-118865000D02*
X172090000Y-120125000D01*
X172090000Y-125685000D02*
X172090000Y-124425000D01*
X175850000Y-118865000D02*
X172090000Y-118865000D01*
X175850000Y-125685000D02*
X172090000Y-125685000D01*
X177370000Y-125915000D02*
X176890000Y-125915000D01*
X177130000Y-125585000D01*
X177370000Y-125915000D01*
G36*
X177370000Y-125915000D02*
G01*
X176890000Y-125915000D01*
X177130000Y-125585000D01*
X177370000Y-125915000D01*
G37*
G04 #@! TO.C,R8*
X167762742Y-126977500D02*
X168237258Y-126977500D01*
X167762742Y-128022500D02*
X168237258Y-128022500D01*
G04 #@! TO.C,R18*
X196477500Y-139062258D02*
X196477500Y-138587742D01*
X197522500Y-139062258D02*
X197522500Y-138587742D01*
G04 #@! TO.C,U3*
X161827500Y-120890000D02*
X161827500Y-121615000D01*
X161827500Y-125110000D02*
X161827500Y-124385000D01*
X162552500Y-120890000D02*
X161827500Y-120890000D01*
X162552500Y-125110000D02*
X161827500Y-125110000D01*
X165322500Y-120890000D02*
X166047500Y-120890000D01*
X165322500Y-125110000D02*
X165747500Y-125110000D01*
X166047500Y-120890000D02*
X166047500Y-121615000D01*
X166047500Y-124385000D02*
X166047500Y-124870000D01*
X166287500Y-125440000D02*
X165807500Y-125440000D01*
X166047500Y-125110000D01*
X166287500Y-125440000D01*
G36*
X166287500Y-125440000D02*
G01*
X165807500Y-125440000D01*
X166047500Y-125110000D01*
X166287500Y-125440000D01*
G37*
G04 #@! TO.C,R19*
X206260827Y-124236526D02*
X206260827Y-123762010D01*
X207305827Y-124236526D02*
X207305827Y-123762010D01*
G04 #@! TO.C,J3*
X144145578Y-134690000D02*
X144145578Y-142310000D01*
X144145578Y-142310000D02*
X154305578Y-142310000D01*
X154305578Y-134690000D02*
X144145578Y-134690000D01*
X154305578Y-141040000D02*
X144145578Y-141040000D01*
X154305578Y-142310000D02*
X154305578Y-134690000D01*
G04 #@! TO.C,C5*
X176359420Y-116490000D02*
X176640580Y-116490000D01*
X176359420Y-117510000D02*
X176640580Y-117510000D01*
G04 #@! TO.C,J1*
X233600000Y-129605000D02*
X234345000Y-129605000D01*
X233600000Y-130340000D02*
X233600000Y-129605000D01*
X233600000Y-131075000D02*
X233600000Y-138950000D01*
X233600000Y-131075000D02*
X233659435Y-131075000D01*
X233600000Y-138950000D02*
X233934970Y-138950000D01*
X234755030Y-138950000D02*
X235090000Y-138950000D01*
X235030565Y-131075000D02*
X235090000Y-131075000D01*
X235090000Y-131075000D02*
X235090000Y-138950000D01*
G04 #@! TO.C,SW1*
X162450000Y-131400000D02*
X163050000Y-131400000D01*
X162750000Y-131700000D02*
X162450000Y-131400000D01*
X163050000Y-131400000D02*
X162750000Y-131700000D01*
X164150000Y-129600000D02*
X164150000Y-141400000D01*
X168250000Y-129600000D02*
X164150000Y-129600000D01*
X168250000Y-141400000D02*
X164150000Y-141400000D01*
X169750000Y-135500000D02*
X170750000Y-135500000D01*
X170250000Y-135000000D02*
X170250000Y-136000000D01*
X172250000Y-129600000D02*
X176350000Y-129600000D01*
X176350000Y-129600000D02*
X176350000Y-132000000D01*
X176350000Y-134200000D02*
X176350000Y-136800000D01*
X176350000Y-139000000D02*
X176350000Y-141400000D01*
X176350000Y-141400000D02*
X172250000Y-141400000D01*
X173250000Y-135500000D02*
G75*
G02*
X167250000Y-135500000I-3000000J0D01*
G01*
X167250000Y-135500000D02*
G75*
G02*
X173250000Y-135500000I3000000J0D01*
G01*
G04 #@! TO.C,R7*
X166262742Y-115977500D02*
X166737258Y-115977500D01*
X166262742Y-117022500D02*
X166737258Y-117022500D01*
G04 #@! TO.C,R3*
X166437742Y-118477500D02*
X166912258Y-118477500D01*
X166437742Y-119522500D02*
X166912258Y-119522500D01*
G04 #@! TO.C,C2*
X158490000Y-126640580D02*
X158490000Y-126359420D01*
X159510000Y-126640580D02*
X159510000Y-126359420D01*
G04 #@! TO.C,C9*
X188859420Y-129990000D02*
X189140580Y-129990000D01*
X188859420Y-131010000D02*
X189140580Y-131010000D01*
G04 #@! TO.C,R13*
X168198349Y-121935900D02*
X168198349Y-122410416D01*
X169243349Y-121935900D02*
X169243349Y-122410416D01*
G04 #@! TO.C,C11*
X173084420Y-116490000D02*
X173365580Y-116490000D01*
X173084420Y-117510000D02*
X173365580Y-117510000D01*
G04 #@! TO.C,R6*
X158762742Y-128977500D02*
X159237258Y-128977500D01*
X158762742Y-130022500D02*
X159237258Y-130022500D01*
G04 #@! TO.C,C1*
X149640580Y-130990000D02*
X149359420Y-130990000D01*
X149640580Y-132010000D02*
X149359420Y-132010000D01*
G04 #@! TO.C,R14*
X188237258Y-115477500D02*
X187762742Y-115477500D01*
X188237258Y-116522500D02*
X187762742Y-116522500D01*
G04 #@! TO.C,C3*
X172134420Y-126990000D02*
X172415580Y-126990000D01*
X172134420Y-128010000D02*
X172415580Y-128010000D01*
G04 #@! TO.C,R4*
X163062258Y-118477500D02*
X162587742Y-118477500D01*
X163062258Y-119522500D02*
X162587742Y-119522500D01*
G04 #@! TO.C,SW2*
X229250000Y-119000000D02*
X229250000Y-120500000D01*
X230500000Y-123000000D02*
X235000000Y-123000000D01*
X235000000Y-116500000D02*
X230500000Y-116500000D01*
X236250000Y-120500000D02*
X236250000Y-119000000D01*
G04 #@! TO.C,U5*
X208380000Y-108880000D02*
X208380000Y-114900000D01*
X208380000Y-108880000D02*
X226620000Y-108880000D01*
X208380000Y-128800000D02*
X208380000Y-129120000D01*
X208380000Y-129120000D02*
X209400000Y-129120000D01*
X225500000Y-129120000D02*
X226620000Y-129120000D01*
X226620000Y-108880000D02*
X226620000Y-115400000D01*
X226620000Y-128800000D02*
X226620000Y-129100000D01*
X208050000Y-115400000D02*
X207810000Y-115064000D01*
X208290000Y-115064000D01*
X208050000Y-115400000D01*
G36*
X208050000Y-115400000D02*
G01*
X207810000Y-115064000D01*
X208290000Y-115064000D01*
X208050000Y-115400000D01*
G37*
G04 #@! TO.C,C10*
X184859420Y-129990000D02*
X185140580Y-129990000D01*
X184859420Y-131010000D02*
X185140580Y-131010000D01*
G04 #@! TO.C,R2*
X151977500Y-122937742D02*
X151977500Y-123412258D01*
X153022500Y-122937742D02*
X153022500Y-123412258D01*
G04 #@! TO.C,C4*
X164078080Y-126990000D02*
X163796920Y-126990000D01*
X164078080Y-128010000D02*
X163796920Y-128010000D01*
G04 #@! TO.C,R5*
X159763510Y-122453969D02*
X159763510Y-121979453D01*
X160808510Y-122453969D02*
X160808510Y-121979453D01*
G04 #@! TO.C,U1*
X181640000Y-118552500D02*
X181640000Y-119002500D01*
X181640000Y-125772500D02*
X181640000Y-125322500D01*
X182090000Y-118552500D02*
X181640000Y-118552500D01*
X182090000Y-125772500D02*
X181640000Y-125772500D01*
X188410000Y-118552500D02*
X188860000Y-118552500D01*
X188410000Y-125772500D02*
X188860000Y-125772500D01*
X188860000Y-118552500D02*
X188860000Y-119002500D01*
X188860000Y-125772500D02*
X188860000Y-125322500D01*
X181050000Y-119002500D02*
X180710000Y-118532500D01*
X181390000Y-118532500D01*
X181050000Y-119002500D01*
G36*
X181050000Y-119002500D02*
G01*
X180710000Y-118532500D01*
X181390000Y-118532500D01*
X181050000Y-119002500D01*
G37*
G04 #@! TO.C,J2*
X148280000Y-116300000D02*
X146500000Y-116300000D01*
X148280000Y-125700000D02*
X146500000Y-125700000D01*
X151200000Y-118200000D02*
X151200000Y-117400000D01*
G04 #@! TO.C,C6*
X192490000Y-124640580D02*
X192490000Y-124359420D01*
X193510000Y-124640580D02*
X193510000Y-124359420D01*
G04 #@! TO.C,C7*
X193859420Y-129990000D02*
X194140580Y-129990000D01*
X193859420Y-131010000D02*
X194140580Y-131010000D01*
G04 #@! TO.C,R10*
X216762742Y-130977500D02*
X217237258Y-130977500D01*
X216762742Y-132022500D02*
X217237258Y-132022500D01*
G04 #@! TO.C,R15*
X170237258Y-116477500D02*
X169762742Y-116477500D01*
X170237258Y-117522500D02*
X169762742Y-117522500D01*
G04 #@! TO.C,U6*
X199740000Y-136740000D02*
X199740000Y-137010000D01*
X199740000Y-142260000D02*
X199740000Y-141990000D01*
X202500000Y-136740000D02*
X199740000Y-136740000D01*
X202500000Y-136740000D02*
X205260000Y-136740000D01*
X202500000Y-142260000D02*
X199740000Y-142260000D01*
X202500000Y-142260000D02*
X205260000Y-142260000D01*
X205260000Y-136740000D02*
X205260000Y-137010000D01*
X205260000Y-142260000D02*
X205260000Y-141990000D01*
X198975000Y-137010000D02*
X198735000Y-136680000D01*
X199215000Y-136680000D01*
X198975000Y-137010000D01*
G36*
X198975000Y-137010000D02*
G01*
X198735000Y-136680000D01*
X199215000Y-136680000D01*
X198975000Y-137010000D01*
G37*
G04 #@! TO.C,R1*
X151977500Y-118587742D02*
X151977500Y-119062258D01*
X153022500Y-118587742D02*
X153022500Y-119062258D01*
G04 #@! TO.C,J4*
X195000000Y-125380000D02*
X195000000Y-124000000D01*
X196380000Y-125380000D02*
X195000000Y-125380000D01*
X197650000Y-122620000D02*
X205380000Y-122620000D01*
X197650000Y-125380000D02*
X197650000Y-122620000D01*
X197650000Y-125380000D02*
X205380000Y-125380000D01*
X205380000Y-125380000D02*
X205380000Y-122620000D01*
G04 #@! TO.C,R16*
X207977500Y-138237258D02*
X207977500Y-137762742D01*
X209022500Y-138237258D02*
X209022500Y-137762742D01*
G04 #@! TO.C,C12*
X205915580Y-134990000D02*
X205634420Y-134990000D01*
X205915580Y-136010000D02*
X205634420Y-136010000D01*
G04 #@! TO.C,R11*
X230762742Y-130977500D02*
X231237258Y-130977500D01*
X230762742Y-132022500D02*
X231237258Y-132022500D01*
G04 #@! TO.C,R17*
X199341777Y-135220524D02*
X199816293Y-135220524D01*
X199341777Y-136265524D02*
X199816293Y-136265524D01*
G04 #@! TO.C,SW4*
X187250000Y-138000000D02*
X187250000Y-139500000D01*
X188500000Y-142000000D02*
X193000000Y-142000000D01*
X193000000Y-135500000D02*
X188500000Y-135500000D01*
X194250000Y-139500000D02*
X194250000Y-138000000D01*
G04 #@! TD*
%LPC*%
D13*
G04 #@! TO.C,R9*
X206000000Y-117650000D03*
X206000000Y-116000000D03*
G04 #@! TD*
D14*
G04 #@! TO.C,R12*
X232000000Y-127500000D03*
X230350000Y-127500000D03*
G04 #@! TD*
D15*
G04 #@! TO.C,C8*
X193000000Y-118500000D03*
X193000000Y-120050000D03*
G04 #@! TD*
D16*
G04 #@! TO.C,SW3*
X214000000Y-136500000D03*
X220500000Y-136500000D03*
X214000000Y-141000000D03*
X220500000Y-141000000D03*
G04 #@! TD*
D17*
G04 #@! TO.C,U4*
X177150000Y-124575000D03*
X177150000Y-122275000D03*
D18*
X170850000Y-122275000D03*
D17*
X177150000Y-119975000D03*
G04 #@! TD*
D19*
G04 #@! TO.C,R8*
X167175000Y-127500000D03*
X168825000Y-127500000D03*
G04 #@! TD*
D13*
G04 #@! TO.C,R18*
X197000000Y-139650000D03*
X197000000Y-138000000D03*
G04 #@! TD*
D20*
G04 #@! TO.C,U3*
X165875000Y-124000000D03*
X165875000Y-123500000D03*
X165875000Y-123000000D03*
X165875000Y-122500000D03*
X165875000Y-122000000D03*
D21*
X164937500Y-121062500D03*
X164437500Y-121062500D03*
X163937500Y-121062500D03*
X163437500Y-121062500D03*
X162937500Y-121062500D03*
D20*
X162000000Y-122000000D03*
X162000000Y-122500000D03*
X162000000Y-123000000D03*
X162000000Y-123500000D03*
X162000000Y-124000000D03*
D21*
X162937500Y-124937500D03*
X163437500Y-124937500D03*
X163937500Y-124937500D03*
X164437500Y-124937500D03*
X164937500Y-124937500D03*
D22*
X163937500Y-123000000D03*
G04 #@! TD*
D13*
G04 #@! TO.C,R19*
X206783327Y-124824268D03*
X206783327Y-123174268D03*
G04 #@! TD*
D23*
G04 #@! TO.C,J3*
X146685578Y-138500000D03*
D24*
X151765578Y-138500000D03*
G04 #@! TD*
D25*
G04 #@! TO.C,C5*
X175725000Y-117000000D03*
X177275000Y-117000000D03*
G04 #@! TD*
D26*
G04 #@! TO.C,J1*
X234345000Y-130340000D03*
D27*
X234345000Y-131340000D03*
X234345000Y-132340000D03*
X234345000Y-133340000D03*
X234345000Y-134340000D03*
X234345000Y-135340000D03*
X234345000Y-136340000D03*
X234345000Y-137340000D03*
X234345000Y-138340000D03*
G04 #@! TD*
D28*
G04 #@! TO.C,SW1*
X162750000Y-133000000D03*
D16*
X162750000Y-138000000D03*
X162750000Y-135500000D03*
D29*
X170250000Y-129900000D03*
X170250000Y-141100000D03*
D16*
X177250000Y-138000000D03*
X177250000Y-133000000D03*
G04 #@! TD*
D19*
G04 #@! TO.C,R7*
X165675000Y-116500000D03*
X167325000Y-116500000D03*
G04 #@! TD*
G04 #@! TO.C,R3*
X165850000Y-119000000D03*
X167500000Y-119000000D03*
G04 #@! TD*
D30*
G04 #@! TO.C,C2*
X159000000Y-127275000D03*
X159000000Y-125725000D03*
G04 #@! TD*
D25*
G04 #@! TO.C,C9*
X188225000Y-130500000D03*
X189775000Y-130500000D03*
G04 #@! TD*
D31*
G04 #@! TO.C,R13*
X168720849Y-121348158D03*
X168720849Y-122998158D03*
G04 #@! TD*
D25*
G04 #@! TO.C,C11*
X172450000Y-117000000D03*
X174000000Y-117000000D03*
G04 #@! TD*
D19*
G04 #@! TO.C,R6*
X158175000Y-129500000D03*
X159825000Y-129500000D03*
G04 #@! TD*
D32*
G04 #@! TO.C,C1*
X150275000Y-131500000D03*
X148725000Y-131500000D03*
G04 #@! TD*
D14*
G04 #@! TO.C,R14*
X188825000Y-116000000D03*
X187175000Y-116000000D03*
G04 #@! TD*
D25*
G04 #@! TO.C,C3*
X171500000Y-127500000D03*
X173050000Y-127500000D03*
G04 #@! TD*
D14*
G04 #@! TO.C,R4*
X163650000Y-119000000D03*
X162000000Y-119000000D03*
G04 #@! TD*
D16*
G04 #@! TO.C,SW2*
X229500000Y-117500000D03*
X236000000Y-117500000D03*
X229500000Y-122000000D03*
X236000000Y-122000000D03*
G04 #@! TD*
D33*
G04 #@! TO.C,U5*
X208750000Y-116100000D03*
X208750000Y-117600000D03*
X208750000Y-119100000D03*
X208750000Y-120600000D03*
X208750000Y-122100000D03*
X208750000Y-123600000D03*
X208750000Y-125100000D03*
X208750000Y-126600000D03*
X208750000Y-128100000D03*
X226250000Y-128100000D03*
X226250000Y-126600000D03*
X226250000Y-125100000D03*
X226250000Y-123600000D03*
X226250000Y-122100000D03*
X226250000Y-120600000D03*
X226250000Y-119100000D03*
X226250000Y-117600000D03*
X226250000Y-116100000D03*
D34*
X218600000Y-122710000D03*
G04 #@! TD*
D25*
G04 #@! TO.C,C10*
X184225000Y-130500000D03*
X185775000Y-130500000D03*
G04 #@! TD*
D31*
G04 #@! TO.C,R2*
X152500000Y-122350000D03*
X152500000Y-124000000D03*
G04 #@! TD*
D32*
G04 #@! TO.C,C4*
X164712500Y-127500000D03*
X163162500Y-127500000D03*
G04 #@! TD*
D13*
G04 #@! TO.C,R5*
X160286010Y-123041711D03*
X160286010Y-121391711D03*
G04 #@! TD*
D35*
G04 #@! TO.C,U1*
X181087500Y-119412500D03*
X181087500Y-119912500D03*
X181087500Y-120412500D03*
X181087500Y-120912500D03*
X181087500Y-121412500D03*
X181087500Y-121912500D03*
X181087500Y-122412500D03*
X181087500Y-122912500D03*
X181087500Y-123412500D03*
X181087500Y-123912500D03*
X181087500Y-124412500D03*
X181087500Y-124912500D03*
D36*
X182500000Y-126325000D03*
X183000000Y-126325000D03*
X183500000Y-126325000D03*
X184000000Y-126325000D03*
X184500000Y-126325000D03*
X185000000Y-126325000D03*
X185500000Y-126325000D03*
X186000000Y-126325000D03*
X186500000Y-126325000D03*
X187000000Y-126325000D03*
X187500000Y-126325000D03*
X188000000Y-126325000D03*
D35*
X189412500Y-124912500D03*
X189412500Y-124412500D03*
X189412500Y-123912500D03*
X189412500Y-123412500D03*
X189412500Y-122912500D03*
X189412500Y-122412500D03*
X189412500Y-121912500D03*
X189412500Y-121412500D03*
X189412500Y-120912500D03*
X189412500Y-120412500D03*
X189412500Y-119912500D03*
X189412500Y-119412500D03*
D36*
X188000000Y-118000000D03*
X187500000Y-118000000D03*
X187000000Y-118000000D03*
X186500000Y-118000000D03*
X186000000Y-118000000D03*
X185500000Y-118000000D03*
X185000000Y-118000000D03*
X184500000Y-118000000D03*
X184000000Y-118000000D03*
X183500000Y-118000000D03*
X183000000Y-118000000D03*
X182500000Y-118000000D03*
G04 #@! TD*
D37*
G04 #@! TO.C,J2*
X149105000Y-118110000D03*
X149105000Y-123890000D03*
D38*
X150245000Y-117800000D03*
X150245000Y-118600000D03*
D39*
X150245000Y-119750000D03*
X150245000Y-120750000D03*
X150245000Y-121250000D03*
X150245000Y-122250000D03*
D38*
X150245000Y-123400000D03*
X150245000Y-124200000D03*
X150245000Y-124200000D03*
X150245000Y-123400000D03*
D39*
X150245000Y-122750000D03*
X150245000Y-121750000D03*
X150245000Y-120250000D03*
X150245000Y-119250000D03*
D38*
X150245000Y-118600000D03*
X150245000Y-117800000D03*
D40*
X149605000Y-116680000D03*
D41*
X145425000Y-116680000D03*
D40*
X149605000Y-125320000D03*
D41*
X145425000Y-125320000D03*
G04 #@! TD*
D30*
G04 #@! TO.C,C6*
X193000000Y-125275000D03*
X193000000Y-123725000D03*
G04 #@! TD*
D25*
G04 #@! TO.C,C7*
X193225000Y-130500000D03*
X194775000Y-130500000D03*
G04 #@! TD*
D19*
G04 #@! TO.C,R10*
X216175000Y-131500000D03*
X217825000Y-131500000D03*
G04 #@! TD*
D14*
G04 #@! TO.C,R15*
X170825000Y-117000000D03*
X169175000Y-117000000D03*
G04 #@! TD*
D42*
G04 #@! TO.C,U6*
X198912500Y-137595000D03*
X198912500Y-138865000D03*
X198912500Y-140135000D03*
X198912500Y-141405000D03*
X206087500Y-141405000D03*
X206087500Y-140135000D03*
X206087500Y-138865000D03*
X206087500Y-137595000D03*
G04 #@! TD*
D31*
G04 #@! TO.C,R1*
X152500000Y-118000000D03*
X152500000Y-119650000D03*
G04 #@! TD*
D43*
G04 #@! TO.C,J4*
X196380000Y-124000000D03*
D44*
X198920000Y-124000000D03*
X201460000Y-124000000D03*
X204000000Y-124000000D03*
G04 #@! TD*
D13*
G04 #@! TO.C,R16*
X208500000Y-138825000D03*
X208500000Y-137175000D03*
G04 #@! TD*
D32*
G04 #@! TO.C,C12*
X206550000Y-135500000D03*
X205000000Y-135500000D03*
G04 #@! TD*
D19*
G04 #@! TO.C,R11*
X230175000Y-131500000D03*
X231825000Y-131500000D03*
G04 #@! TD*
G04 #@! TO.C,R17*
X198754035Y-135743024D03*
X200404035Y-135743024D03*
G04 #@! TD*
D16*
G04 #@! TO.C,SW4*
X187500000Y-136500000D03*
X194000000Y-136500000D03*
X187500000Y-141000000D03*
X194000000Y-141000000D03*
G04 #@! TD*
%LPD*%
M02*
