G04 #@! TF.GenerationSoftware,KiCad,Pcbnew,9.0.3*
G04 #@! TF.CreationDate,2025-08-18T18:11:48-04:00*
G04 #@! TF.ProjectId,Calender,43616c65-6e64-4657-922e-6b696361645f,rev?*
G04 #@! TF.SameCoordinates,Original*
G04 #@! TF.FileFunction,Paste,Top*
G04 #@! TF.FilePolarity,Positive*
%FSLAX46Y46*%
G04 Gerber Fmt 4.6, Leading zero omitted, Abs format (unit mm)*
G04 Created by KiCad (PCBNEW 9.0.3) date 2025-08-18 18:11:48*
%MOMM*%
%LPD*%
G01*
G04 APERTURE LIST*
G04 Aperture macros list*
%AMRoundRect*
0 Rectangle with rounded corners*
0 $1 Rounding radius*
0 $2 $3 $4 $5 $6 $7 $8 $9 X,Y pos of 4 corners*
0 Add a 4 corners polygon primitive as box body*
4,1,4,$2,$3,$4,$5,$6,$7,$8,$9,$2,$3,0*
0 Add four circle primitives for the rounded corners*
1,1,$1+$1,$2,$3*
1,1,$1+$1,$4,$5*
1,1,$1+$1,$6,$7*
1,1,$1+$1,$8,$9*
0 Add four rect primitives between the rounded corners*
20,1,$1+$1,$2,$3,$4,$5,0*
20,1,$1+$1,$4,$5,$6,$7,0*
20,1,$1+$1,$6,$7,$8,$9,0*
20,1,$1+$1,$8,$9,$2,$3,0*%
G04 Aperture macros list end*
%ADD10RoundRect,0.200000X0.275000X-0.200000X0.275000X0.200000X-0.275000X0.200000X-0.275000X-0.200000X0*%
%ADD11RoundRect,0.200000X0.200000X0.275000X-0.200000X0.275000X-0.200000X-0.275000X0.200000X-0.275000X0*%
%ADD12RoundRect,0.225000X-0.250000X0.225000X-0.250000X-0.225000X0.250000X-0.225000X0.250000X0.225000X0*%
%ADD13RoundRect,0.375000X0.625000X0.375000X-0.625000X0.375000X-0.625000X-0.375000X0.625000X-0.375000X0*%
%ADD14RoundRect,0.500000X0.500000X1.400000X-0.500000X1.400000X-0.500000X-1.400000X0.500000X-1.400000X0*%
%ADD15RoundRect,0.200000X-0.200000X-0.275000X0.200000X-0.275000X0.200000X0.275000X-0.200000X0.275000X0*%
%ADD16RoundRect,0.250000X0.255000X0.255000X-0.255000X0.255000X-0.255000X-0.255000X0.255000X-0.255000X0*%
%ADD17RoundRect,0.062500X0.350000X0.062500X-0.350000X0.062500X-0.350000X-0.062500X0.350000X-0.062500X0*%
%ADD18RoundRect,0.062500X0.062500X0.350000X-0.062500X0.350000X-0.062500X-0.350000X0.062500X-0.350000X0*%
%ADD19RoundRect,0.225000X-0.225000X-0.250000X0.225000X-0.250000X0.225000X0.250000X-0.225000X0.250000X0*%
%ADD20RoundRect,0.225000X0.250000X-0.225000X0.250000X0.225000X-0.250000X0.225000X-0.250000X-0.225000X0*%
%ADD21RoundRect,0.200000X-0.275000X0.200000X-0.275000X-0.200000X0.275000X-0.200000X0.275000X0.200000X0*%
%ADD22RoundRect,0.225000X0.225000X0.250000X-0.225000X0.250000X-0.225000X-0.250000X0.225000X-0.250000X0*%
%ADD23R,1.500000X0.900000*%
%ADD24R,4.000000X4.000000*%
%ADD25RoundRect,0.075000X-0.662500X-0.075000X0.662500X-0.075000X0.662500X0.075000X-0.662500X0.075000X0*%
%ADD26RoundRect,0.075000X-0.075000X-0.662500X0.075000X-0.662500X0.075000X0.662500X-0.075000X0.662500X0*%
%ADD27RoundRect,0.150000X-0.500000X0.150000X-0.500000X-0.150000X0.500000X-0.150000X0.500000X0.150000X0*%
%ADD28RoundRect,0.075000X-0.575000X0.075000X-0.575000X-0.075000X0.575000X-0.075000X0.575000X0.075000X0*%
%ADD29RoundRect,0.162500X-0.650000X-0.162500X0.650000X-0.162500X0.650000X0.162500X-0.650000X0.162500X0*%
G04 APERTURE END LIST*
D10*
G04 #@! TO.C,R9*
X206000000Y-117650000D03*
X206000000Y-116000000D03*
G04 #@! TD*
D11*
G04 #@! TO.C,R12*
X232000000Y-127500000D03*
X230350000Y-127500000D03*
G04 #@! TD*
D12*
G04 #@! TO.C,C8*
X193000000Y-118500000D03*
X193000000Y-120050000D03*
G04 #@! TD*
D13*
G04 #@! TO.C,U4*
X177150000Y-124575000D03*
X177150000Y-122275000D03*
D14*
X170850000Y-122275000D03*
D13*
X177150000Y-119975000D03*
G04 #@! TD*
D15*
G04 #@! TO.C,R8*
X167175000Y-127500000D03*
X168825000Y-127500000D03*
G04 #@! TD*
D10*
G04 #@! TO.C,R18*
X197000000Y-139650000D03*
X197000000Y-138000000D03*
G04 #@! TD*
D16*
G04 #@! TO.C,U3*
X164562500Y-123625000D03*
X164562500Y-122375000D03*
X163312500Y-123625000D03*
X163312500Y-122375000D03*
D17*
X165875000Y-124000000D03*
X165875000Y-123500000D03*
X165875000Y-123000000D03*
X165875000Y-122500000D03*
X165875000Y-122000000D03*
D18*
X164937500Y-121062500D03*
X164437500Y-121062500D03*
X163937500Y-121062500D03*
X163437500Y-121062500D03*
X162937500Y-121062500D03*
D17*
X162000000Y-122000000D03*
X162000000Y-122500000D03*
X162000000Y-123000000D03*
X162000000Y-123500000D03*
X162000000Y-124000000D03*
D18*
X162937500Y-124937500D03*
X163437500Y-124937500D03*
X163937500Y-124937500D03*
X164437500Y-124937500D03*
X164937500Y-124937500D03*
G04 #@! TD*
D10*
G04 #@! TO.C,R19*
X206783327Y-124824268D03*
X206783327Y-123174268D03*
G04 #@! TD*
D19*
G04 #@! TO.C,C5*
X175725000Y-117000000D03*
X177275000Y-117000000D03*
G04 #@! TD*
D15*
G04 #@! TO.C,R7*
X165675000Y-116500000D03*
X167325000Y-116500000D03*
G04 #@! TD*
G04 #@! TO.C,R3*
X165850000Y-119000000D03*
X167500000Y-119000000D03*
G04 #@! TD*
D20*
G04 #@! TO.C,C2*
X159000000Y-127275000D03*
X159000000Y-125725000D03*
G04 #@! TD*
D19*
G04 #@! TO.C,C9*
X188225000Y-130500000D03*
X189775000Y-130500000D03*
G04 #@! TD*
D21*
G04 #@! TO.C,R13*
X168720849Y-121348158D03*
X168720849Y-122998158D03*
G04 #@! TD*
D19*
G04 #@! TO.C,C11*
X172450000Y-117000000D03*
X174000000Y-117000000D03*
G04 #@! TD*
D15*
G04 #@! TO.C,R6*
X158175000Y-129500000D03*
X159825000Y-129500000D03*
G04 #@! TD*
D22*
G04 #@! TO.C,C1*
X150275000Y-131500000D03*
X148725000Y-131500000D03*
G04 #@! TD*
D11*
G04 #@! TO.C,R14*
X188825000Y-116000000D03*
X187175000Y-116000000D03*
G04 #@! TD*
D19*
G04 #@! TO.C,C3*
X171500000Y-127500000D03*
X173050000Y-127500000D03*
G04 #@! TD*
D11*
G04 #@! TO.C,R4*
X163650000Y-119000000D03*
X162000000Y-119000000D03*
G04 #@! TD*
D23*
G04 #@! TO.C,U5*
X208750000Y-116100000D03*
X208750000Y-117600000D03*
X208750000Y-119100000D03*
X208750000Y-120600000D03*
X208750000Y-122100000D03*
X208750000Y-123600000D03*
X208750000Y-125100000D03*
X208750000Y-126600000D03*
X208750000Y-128100000D03*
X226250000Y-128100000D03*
X226250000Y-126600000D03*
X226250000Y-125100000D03*
X226250000Y-123600000D03*
X226250000Y-122100000D03*
X226250000Y-120600000D03*
X226250000Y-119100000D03*
X226250000Y-117600000D03*
X226250000Y-116100000D03*
D24*
X218600000Y-122710000D03*
G04 #@! TD*
D19*
G04 #@! TO.C,C10*
X184225000Y-130500000D03*
X185775000Y-130500000D03*
G04 #@! TD*
D21*
G04 #@! TO.C,R2*
X152500000Y-122350000D03*
X152500000Y-124000000D03*
G04 #@! TD*
D22*
G04 #@! TO.C,C4*
X164712500Y-127500000D03*
X163162500Y-127500000D03*
G04 #@! TD*
D10*
G04 #@! TO.C,R5*
X160286010Y-123041711D03*
X160286010Y-121391711D03*
G04 #@! TD*
D25*
G04 #@! TO.C,U1*
X181087500Y-119412500D03*
X181087500Y-119912500D03*
X181087500Y-120412500D03*
X181087500Y-120912500D03*
X181087500Y-121412500D03*
X181087500Y-121912500D03*
X181087500Y-122412500D03*
X181087500Y-122912500D03*
X181087500Y-123412500D03*
X181087500Y-123912500D03*
X181087500Y-124412500D03*
X181087500Y-124912500D03*
D26*
X182500000Y-126325000D03*
X183000000Y-126325000D03*
X183500000Y-126325000D03*
X184000000Y-126325000D03*
X184500000Y-126325000D03*
X185000000Y-126325000D03*
X185500000Y-126325000D03*
X186000000Y-126325000D03*
X186500000Y-126325000D03*
X187000000Y-126325000D03*
X187500000Y-126325000D03*
X188000000Y-126325000D03*
D25*
X189412500Y-124912500D03*
X189412500Y-124412500D03*
X189412500Y-123912500D03*
X189412500Y-123412500D03*
X189412500Y-122912500D03*
X189412500Y-122412500D03*
X189412500Y-121912500D03*
X189412500Y-121412500D03*
X189412500Y-120912500D03*
X189412500Y-120412500D03*
X189412500Y-119912500D03*
X189412500Y-119412500D03*
D26*
X188000000Y-118000000D03*
X187500000Y-118000000D03*
X187000000Y-118000000D03*
X186500000Y-118000000D03*
X186000000Y-118000000D03*
X185500000Y-118000000D03*
X185000000Y-118000000D03*
X184500000Y-118000000D03*
X184000000Y-118000000D03*
X183500000Y-118000000D03*
X183000000Y-118000000D03*
X182500000Y-118000000D03*
G04 #@! TD*
D27*
G04 #@! TO.C,J2*
X150245000Y-117800000D03*
X150245000Y-118600000D03*
D28*
X150245000Y-119750000D03*
X150245000Y-120750000D03*
X150245000Y-121250000D03*
X150245000Y-122250000D03*
D27*
X150245000Y-123400000D03*
X150245000Y-124200000D03*
X150245000Y-124200000D03*
X150245000Y-123400000D03*
D28*
X150245000Y-122750000D03*
X150245000Y-121750000D03*
X150245000Y-120250000D03*
X150245000Y-119250000D03*
D27*
X150245000Y-118600000D03*
X150245000Y-117800000D03*
G04 #@! TD*
D20*
G04 #@! TO.C,C6*
X193000000Y-125275000D03*
X193000000Y-123725000D03*
G04 #@! TD*
D19*
G04 #@! TO.C,C7*
X193225000Y-130500000D03*
X194775000Y-130500000D03*
G04 #@! TD*
D15*
G04 #@! TO.C,R10*
X216175000Y-131500000D03*
X217825000Y-131500000D03*
G04 #@! TD*
D11*
G04 #@! TO.C,R15*
X170825000Y-117000000D03*
X169175000Y-117000000D03*
G04 #@! TD*
D29*
G04 #@! TO.C,U6*
X198912500Y-137595000D03*
X198912500Y-138865000D03*
X198912500Y-140135000D03*
X198912500Y-141405000D03*
X206087500Y-141405000D03*
X206087500Y-140135000D03*
X206087500Y-138865000D03*
X206087500Y-137595000D03*
G04 #@! TD*
D21*
G04 #@! TO.C,R1*
X152500000Y-118000000D03*
X152500000Y-119650000D03*
G04 #@! TD*
D10*
G04 #@! TO.C,R16*
X208500000Y-138825000D03*
X208500000Y-137175000D03*
G04 #@! TD*
D22*
G04 #@! TO.C,C12*
X206550000Y-135500000D03*
X205000000Y-135500000D03*
G04 #@! TD*
D15*
G04 #@! TO.C,R11*
X230175000Y-131500000D03*
X231825000Y-131500000D03*
G04 #@! TD*
G04 #@! TO.C,R17*
X198754035Y-135743024D03*
X200404035Y-135743024D03*
G04 #@! TD*
M02*
