%TF.GenerationSoftware,KiCad,Pcbnew,9.0.3*%
%TF.CreationDate,2025-08-18T18:11:48-04:00*%
%TF.ProjectId,Calender,43616c65-6e64-4657-922e-6b696361645f,rev?*%
%TF.SameCoordinates,Original*%
%TF.FileFunction,Drillmap*%
%TF.FilePolarity,Positive*%
%FSLAX45Y45*%
G04 Gerber Fmt 4.5, Leading zero omitted, Abs format (unit mm)*
G04 Created by KiCad (PCBNEW 9.0.3) date 2025-08-18 18:11:48*
%MOMM*%
%LPD*%
G01*
G04 APERTURE LIST*
%ADD10C,0.050000*%
%ADD11C,0.200000*%
%ADD12C,0.100000*%
G04 APERTURE END LIST*
D10*
X14401000Y-11525000D02*
X23799000Y-11525000D01*
X23799000Y-14275000D01*
X14401000Y-14275000D01*
X14401000Y-11525000D01*
D11*
D12*
X14878000Y-11778500D02*
X14943000Y-11843500D01*
X14943000Y-11778500D02*
X14878000Y-11843500D01*
X14878000Y-12356500D02*
X14943000Y-12421500D01*
X14943000Y-12356500D02*
X14878000Y-12421500D01*
D11*
X14659277Y-14588984D02*
X14659277Y-14388984D01*
X14659277Y-14388984D02*
X14706896Y-14388984D01*
X14706896Y-14388984D02*
X14735467Y-14398508D01*
X14735467Y-14398508D02*
X14754515Y-14417555D01*
X14754515Y-14417555D02*
X14764039Y-14436603D01*
X14764039Y-14436603D02*
X14773562Y-14474698D01*
X14773562Y-14474698D02*
X14773562Y-14503269D01*
X14773562Y-14503269D02*
X14764039Y-14541365D01*
X14764039Y-14541365D02*
X14754515Y-14560412D01*
X14754515Y-14560412D02*
X14735467Y-14579460D01*
X14735467Y-14579460D02*
X14706896Y-14588984D01*
X14706896Y-14588984D02*
X14659277Y-14588984D01*
X14859277Y-14588984D02*
X14859277Y-14455650D01*
X14859277Y-14493746D02*
X14868801Y-14474698D01*
X14868801Y-14474698D02*
X14878324Y-14465174D01*
X14878324Y-14465174D02*
X14897372Y-14455650D01*
X14897372Y-14455650D02*
X14916420Y-14455650D01*
X14983086Y-14588984D02*
X14983086Y-14455650D01*
X14983086Y-14388984D02*
X14973562Y-14398508D01*
X14973562Y-14398508D02*
X14983086Y-14408031D01*
X14983086Y-14408031D02*
X14992610Y-14398508D01*
X14992610Y-14398508D02*
X14983086Y-14388984D01*
X14983086Y-14388984D02*
X14983086Y-14408031D01*
X15106896Y-14588984D02*
X15087848Y-14579460D01*
X15087848Y-14579460D02*
X15078324Y-14560412D01*
X15078324Y-14560412D02*
X15078324Y-14388984D01*
X15211658Y-14588984D02*
X15192610Y-14579460D01*
X15192610Y-14579460D02*
X15183086Y-14560412D01*
X15183086Y-14560412D02*
X15183086Y-14388984D01*
X15440229Y-14588984D02*
X15440229Y-14388984D01*
X15440229Y-14388984D02*
X15506896Y-14531841D01*
X15506896Y-14531841D02*
X15573562Y-14388984D01*
X15573562Y-14388984D02*
X15573562Y-14588984D01*
X15754515Y-14588984D02*
X15754515Y-14484222D01*
X15754515Y-14484222D02*
X15744991Y-14465174D01*
X15744991Y-14465174D02*
X15725943Y-14455650D01*
X15725943Y-14455650D02*
X15687848Y-14455650D01*
X15687848Y-14455650D02*
X15668801Y-14465174D01*
X15754515Y-14579460D02*
X15735467Y-14588984D01*
X15735467Y-14588984D02*
X15687848Y-14588984D01*
X15687848Y-14588984D02*
X15668801Y-14579460D01*
X15668801Y-14579460D02*
X15659277Y-14560412D01*
X15659277Y-14560412D02*
X15659277Y-14541365D01*
X15659277Y-14541365D02*
X15668801Y-14522317D01*
X15668801Y-14522317D02*
X15687848Y-14512793D01*
X15687848Y-14512793D02*
X15735467Y-14512793D01*
X15735467Y-14512793D02*
X15754515Y-14503269D01*
X15849753Y-14455650D02*
X15849753Y-14655650D01*
X15849753Y-14465174D02*
X15868801Y-14455650D01*
X15868801Y-14455650D02*
X15906896Y-14455650D01*
X15906896Y-14455650D02*
X15925943Y-14465174D01*
X15925943Y-14465174D02*
X15935467Y-14474698D01*
X15935467Y-14474698D02*
X15944991Y-14493746D01*
X15944991Y-14493746D02*
X15944991Y-14550888D01*
X15944991Y-14550888D02*
X15935467Y-14569936D01*
X15935467Y-14569936D02*
X15925943Y-14579460D01*
X15925943Y-14579460D02*
X15906896Y-14588984D01*
X15906896Y-14588984D02*
X15868801Y-14588984D01*
X15868801Y-14588984D02*
X15849753Y-14579460D01*
X16030705Y-14569936D02*
X16040229Y-14579460D01*
X16040229Y-14579460D02*
X16030705Y-14588984D01*
X16030705Y-14588984D02*
X16021182Y-14579460D01*
X16021182Y-14579460D02*
X16030705Y-14569936D01*
X16030705Y-14569936D02*
X16030705Y-14588984D01*
X16030705Y-14465174D02*
X16040229Y-14474698D01*
X16040229Y-14474698D02*
X16030705Y-14484222D01*
X16030705Y-14484222D02*
X16021182Y-14474698D01*
X16021182Y-14474698D02*
X16030705Y-14465174D01*
X16030705Y-14465174D02*
X16030705Y-14484222D01*
D12*
X14333500Y-14885000D02*
X14398500Y-14950000D01*
X14398500Y-14885000D02*
X14333500Y-14950000D01*
D11*
X14697372Y-14808984D02*
X14716420Y-14808984D01*
X14716420Y-14808984D02*
X14735467Y-14818508D01*
X14735467Y-14818508D02*
X14744991Y-14828031D01*
X14744991Y-14828031D02*
X14754515Y-14847079D01*
X14754515Y-14847079D02*
X14764039Y-14885174D01*
X14764039Y-14885174D02*
X14764039Y-14932793D01*
X14764039Y-14932793D02*
X14754515Y-14970888D01*
X14754515Y-14970888D02*
X14744991Y-14989936D01*
X14744991Y-14989936D02*
X14735467Y-14999460D01*
X14735467Y-14999460D02*
X14716420Y-15008984D01*
X14716420Y-15008984D02*
X14697372Y-15008984D01*
X14697372Y-15008984D02*
X14678324Y-14999460D01*
X14678324Y-14999460D02*
X14668801Y-14989936D01*
X14668801Y-14989936D02*
X14659277Y-14970888D01*
X14659277Y-14970888D02*
X14649753Y-14932793D01*
X14649753Y-14932793D02*
X14649753Y-14885174D01*
X14649753Y-14885174D02*
X14659277Y-14847079D01*
X14659277Y-14847079D02*
X14668801Y-14828031D01*
X14668801Y-14828031D02*
X14678324Y-14818508D01*
X14678324Y-14818508D02*
X14697372Y-14808984D01*
X14849753Y-14989936D02*
X14859277Y-14999460D01*
X14859277Y-14999460D02*
X14849753Y-15008984D01*
X14849753Y-15008984D02*
X14840229Y-14999460D01*
X14840229Y-14999460D02*
X14849753Y-14989936D01*
X14849753Y-14989936D02*
X14849753Y-15008984D01*
X15030705Y-14808984D02*
X14992610Y-14808984D01*
X14992610Y-14808984D02*
X14973562Y-14818508D01*
X14973562Y-14818508D02*
X14964039Y-14828031D01*
X14964039Y-14828031D02*
X14944991Y-14856603D01*
X14944991Y-14856603D02*
X14935467Y-14894698D01*
X14935467Y-14894698D02*
X14935467Y-14970888D01*
X14935467Y-14970888D02*
X14944991Y-14989936D01*
X14944991Y-14989936D02*
X14954515Y-14999460D01*
X14954515Y-14999460D02*
X14973562Y-15008984D01*
X14973562Y-15008984D02*
X15011658Y-15008984D01*
X15011658Y-15008984D02*
X15030705Y-14999460D01*
X15030705Y-14999460D02*
X15040229Y-14989936D01*
X15040229Y-14989936D02*
X15049753Y-14970888D01*
X15049753Y-14970888D02*
X15049753Y-14923269D01*
X15049753Y-14923269D02*
X15040229Y-14904222D01*
X15040229Y-14904222D02*
X15030705Y-14894698D01*
X15030705Y-14894698D02*
X15011658Y-14885174D01*
X15011658Y-14885174D02*
X14973562Y-14885174D01*
X14973562Y-14885174D02*
X14954515Y-14894698D01*
X14954515Y-14894698D02*
X14944991Y-14904222D01*
X14944991Y-14904222D02*
X14935467Y-14923269D01*
X15230705Y-14808984D02*
X15135467Y-14808984D01*
X15135467Y-14808984D02*
X15125943Y-14904222D01*
X15125943Y-14904222D02*
X15135467Y-14894698D01*
X15135467Y-14894698D02*
X15154515Y-14885174D01*
X15154515Y-14885174D02*
X15202134Y-14885174D01*
X15202134Y-14885174D02*
X15221182Y-14894698D01*
X15221182Y-14894698D02*
X15230705Y-14904222D01*
X15230705Y-14904222D02*
X15240229Y-14923269D01*
X15240229Y-14923269D02*
X15240229Y-14970888D01*
X15240229Y-14970888D02*
X15230705Y-14989936D01*
X15230705Y-14989936D02*
X15221182Y-14999460D01*
X15221182Y-14999460D02*
X15202134Y-15008984D01*
X15202134Y-15008984D02*
X15154515Y-15008984D01*
X15154515Y-15008984D02*
X15135467Y-14999460D01*
X15135467Y-14999460D02*
X15125943Y-14989936D01*
X15364039Y-14808984D02*
X15383086Y-14808984D01*
X15383086Y-14808984D02*
X15402134Y-14818508D01*
X15402134Y-14818508D02*
X15411658Y-14828031D01*
X15411658Y-14828031D02*
X15421182Y-14847079D01*
X15421182Y-14847079D02*
X15430705Y-14885174D01*
X15430705Y-14885174D02*
X15430705Y-14932793D01*
X15430705Y-14932793D02*
X15421182Y-14970888D01*
X15421182Y-14970888D02*
X15411658Y-14989936D01*
X15411658Y-14989936D02*
X15402134Y-14999460D01*
X15402134Y-14999460D02*
X15383086Y-15008984D01*
X15383086Y-15008984D02*
X15364039Y-15008984D01*
X15364039Y-15008984D02*
X15344991Y-14999460D01*
X15344991Y-14999460D02*
X15335467Y-14989936D01*
X15335467Y-14989936D02*
X15325943Y-14970888D01*
X15325943Y-14970888D02*
X15316420Y-14932793D01*
X15316420Y-14932793D02*
X15316420Y-14885174D01*
X15316420Y-14885174D02*
X15325943Y-14847079D01*
X15325943Y-14847079D02*
X15335467Y-14828031D01*
X15335467Y-14828031D02*
X15344991Y-14818508D01*
X15344991Y-14818508D02*
X15364039Y-14808984D01*
X15516420Y-15008984D02*
X15516420Y-14875650D01*
X15516420Y-14894698D02*
X15525943Y-14885174D01*
X15525943Y-14885174D02*
X15544991Y-14875650D01*
X15544991Y-14875650D02*
X15573563Y-14875650D01*
X15573563Y-14875650D02*
X15592610Y-14885174D01*
X15592610Y-14885174D02*
X15602134Y-14904222D01*
X15602134Y-14904222D02*
X15602134Y-15008984D01*
X15602134Y-14904222D02*
X15611658Y-14885174D01*
X15611658Y-14885174D02*
X15630705Y-14875650D01*
X15630705Y-14875650D02*
X15659277Y-14875650D01*
X15659277Y-14875650D02*
X15678324Y-14885174D01*
X15678324Y-14885174D02*
X15687848Y-14904222D01*
X15687848Y-14904222D02*
X15687848Y-15008984D01*
X15783086Y-15008984D02*
X15783086Y-14875650D01*
X15783086Y-14894698D02*
X15792610Y-14885174D01*
X15792610Y-14885174D02*
X15811658Y-14875650D01*
X15811658Y-14875650D02*
X15840229Y-14875650D01*
X15840229Y-14875650D02*
X15859277Y-14885174D01*
X15859277Y-14885174D02*
X15868801Y-14904222D01*
X15868801Y-14904222D02*
X15868801Y-15008984D01*
X15868801Y-14904222D02*
X15878324Y-14885174D01*
X15878324Y-14885174D02*
X15897372Y-14875650D01*
X15897372Y-14875650D02*
X15925943Y-14875650D01*
X15925943Y-14875650D02*
X15944991Y-14885174D01*
X15944991Y-14885174D02*
X15954515Y-14904222D01*
X15954515Y-14904222D02*
X15954515Y-15008984D01*
X16344991Y-14799460D02*
X16173563Y-15056603D01*
X16602134Y-14808984D02*
X16621182Y-14808984D01*
X16621182Y-14808984D02*
X16640229Y-14818508D01*
X16640229Y-14818508D02*
X16649753Y-14828031D01*
X16649753Y-14828031D02*
X16659277Y-14847079D01*
X16659277Y-14847079D02*
X16668801Y-14885174D01*
X16668801Y-14885174D02*
X16668801Y-14932793D01*
X16668801Y-14932793D02*
X16659277Y-14970888D01*
X16659277Y-14970888D02*
X16649753Y-14989936D01*
X16649753Y-14989936D02*
X16640229Y-14999460D01*
X16640229Y-14999460D02*
X16621182Y-15008984D01*
X16621182Y-15008984D02*
X16602134Y-15008984D01*
X16602134Y-15008984D02*
X16583086Y-14999460D01*
X16583086Y-14999460D02*
X16573563Y-14989936D01*
X16573563Y-14989936D02*
X16564039Y-14970888D01*
X16564039Y-14970888D02*
X16554515Y-14932793D01*
X16554515Y-14932793D02*
X16554515Y-14885174D01*
X16554515Y-14885174D02*
X16564039Y-14847079D01*
X16564039Y-14847079D02*
X16573563Y-14828031D01*
X16573563Y-14828031D02*
X16583086Y-14818508D01*
X16583086Y-14818508D02*
X16602134Y-14808984D01*
X16754515Y-14989936D02*
X16764039Y-14999460D01*
X16764039Y-14999460D02*
X16754515Y-15008984D01*
X16754515Y-15008984D02*
X16744991Y-14999460D01*
X16744991Y-14999460D02*
X16754515Y-14989936D01*
X16754515Y-14989936D02*
X16754515Y-15008984D01*
X16887848Y-14808984D02*
X16906896Y-14808984D01*
X16906896Y-14808984D02*
X16925944Y-14818508D01*
X16925944Y-14818508D02*
X16935468Y-14828031D01*
X16935468Y-14828031D02*
X16944991Y-14847079D01*
X16944991Y-14847079D02*
X16954515Y-14885174D01*
X16954515Y-14885174D02*
X16954515Y-14932793D01*
X16954515Y-14932793D02*
X16944991Y-14970888D01*
X16944991Y-14970888D02*
X16935468Y-14989936D01*
X16935468Y-14989936D02*
X16925944Y-14999460D01*
X16925944Y-14999460D02*
X16906896Y-15008984D01*
X16906896Y-15008984D02*
X16887848Y-15008984D01*
X16887848Y-15008984D02*
X16868801Y-14999460D01*
X16868801Y-14999460D02*
X16859277Y-14989936D01*
X16859277Y-14989936D02*
X16849753Y-14970888D01*
X16849753Y-14970888D02*
X16840229Y-14932793D01*
X16840229Y-14932793D02*
X16840229Y-14885174D01*
X16840229Y-14885174D02*
X16849753Y-14847079D01*
X16849753Y-14847079D02*
X16859277Y-14828031D01*
X16859277Y-14828031D02*
X16868801Y-14818508D01*
X16868801Y-14818508D02*
X16887848Y-14808984D01*
X17030706Y-14828031D02*
X17040229Y-14818508D01*
X17040229Y-14818508D02*
X17059277Y-14808984D01*
X17059277Y-14808984D02*
X17106896Y-14808984D01*
X17106896Y-14808984D02*
X17125944Y-14818508D01*
X17125944Y-14818508D02*
X17135468Y-14828031D01*
X17135468Y-14828031D02*
X17144991Y-14847079D01*
X17144991Y-14847079D02*
X17144991Y-14866127D01*
X17144991Y-14866127D02*
X17135468Y-14894698D01*
X17135468Y-14894698D02*
X17021182Y-15008984D01*
X17021182Y-15008984D02*
X17144991Y-15008984D01*
X17325944Y-14808984D02*
X17230706Y-14808984D01*
X17230706Y-14808984D02*
X17221182Y-14904222D01*
X17221182Y-14904222D02*
X17230706Y-14894698D01*
X17230706Y-14894698D02*
X17249753Y-14885174D01*
X17249753Y-14885174D02*
X17297372Y-14885174D01*
X17297372Y-14885174D02*
X17316420Y-14894698D01*
X17316420Y-14894698D02*
X17325944Y-14904222D01*
X17325944Y-14904222D02*
X17335468Y-14923269D01*
X17335468Y-14923269D02*
X17335468Y-14970888D01*
X17335468Y-14970888D02*
X17325944Y-14989936D01*
X17325944Y-14989936D02*
X17316420Y-14999460D01*
X17316420Y-14999460D02*
X17297372Y-15008984D01*
X17297372Y-15008984D02*
X17249753Y-15008984D01*
X17249753Y-15008984D02*
X17230706Y-14999460D01*
X17230706Y-14999460D02*
X17221182Y-14989936D01*
X17506896Y-14808984D02*
X17468801Y-14808984D01*
X17468801Y-14808984D02*
X17449753Y-14818508D01*
X17449753Y-14818508D02*
X17440229Y-14828031D01*
X17440229Y-14828031D02*
X17421182Y-14856603D01*
X17421182Y-14856603D02*
X17411658Y-14894698D01*
X17411658Y-14894698D02*
X17411658Y-14970888D01*
X17411658Y-14970888D02*
X17421182Y-14989936D01*
X17421182Y-14989936D02*
X17430706Y-14999460D01*
X17430706Y-14999460D02*
X17449753Y-15008984D01*
X17449753Y-15008984D02*
X17487849Y-15008984D01*
X17487849Y-15008984D02*
X17506896Y-14999460D01*
X17506896Y-14999460D02*
X17516420Y-14989936D01*
X17516420Y-14989936D02*
X17525944Y-14970888D01*
X17525944Y-14970888D02*
X17525944Y-14923269D01*
X17525944Y-14923269D02*
X17516420Y-14904222D01*
X17516420Y-14904222D02*
X17506896Y-14894698D01*
X17506896Y-14894698D02*
X17487849Y-14885174D01*
X17487849Y-14885174D02*
X17449753Y-14885174D01*
X17449753Y-14885174D02*
X17430706Y-14894698D01*
X17430706Y-14894698D02*
X17421182Y-14904222D01*
X17421182Y-14904222D02*
X17411658Y-14923269D01*
X17602134Y-14808984D02*
X17602134Y-14847079D01*
X17678325Y-14808984D02*
X17678325Y-14847079D01*
X17973563Y-15085174D02*
X17964039Y-15075650D01*
X17964039Y-15075650D02*
X17944991Y-15047079D01*
X17944991Y-15047079D02*
X17935468Y-15028031D01*
X17935468Y-15028031D02*
X17925944Y-14999460D01*
X17925944Y-14999460D02*
X17916420Y-14951841D01*
X17916420Y-14951841D02*
X17916420Y-14913746D01*
X17916420Y-14913746D02*
X17925944Y-14866127D01*
X17925944Y-14866127D02*
X17935468Y-14837555D01*
X17935468Y-14837555D02*
X17944991Y-14818508D01*
X17944991Y-14818508D02*
X17964039Y-14789936D01*
X17964039Y-14789936D02*
X17973563Y-14780412D01*
X18040230Y-14828031D02*
X18049753Y-14818508D01*
X18049753Y-14818508D02*
X18068801Y-14808984D01*
X18068801Y-14808984D02*
X18116420Y-14808984D01*
X18116420Y-14808984D02*
X18135468Y-14818508D01*
X18135468Y-14818508D02*
X18144991Y-14828031D01*
X18144991Y-14828031D02*
X18154515Y-14847079D01*
X18154515Y-14847079D02*
X18154515Y-14866127D01*
X18154515Y-14866127D02*
X18144991Y-14894698D01*
X18144991Y-14894698D02*
X18030706Y-15008984D01*
X18030706Y-15008984D02*
X18154515Y-15008984D01*
X18392611Y-15008984D02*
X18392611Y-14808984D01*
X18478325Y-15008984D02*
X18478325Y-14904222D01*
X18478325Y-14904222D02*
X18468801Y-14885174D01*
X18468801Y-14885174D02*
X18449753Y-14875650D01*
X18449753Y-14875650D02*
X18421182Y-14875650D01*
X18421182Y-14875650D02*
X18402134Y-14885174D01*
X18402134Y-14885174D02*
X18392611Y-14894698D01*
X18602134Y-15008984D02*
X18583087Y-14999460D01*
X18583087Y-14999460D02*
X18573563Y-14989936D01*
X18573563Y-14989936D02*
X18564039Y-14970888D01*
X18564039Y-14970888D02*
X18564039Y-14913746D01*
X18564039Y-14913746D02*
X18573563Y-14894698D01*
X18573563Y-14894698D02*
X18583087Y-14885174D01*
X18583087Y-14885174D02*
X18602134Y-14875650D01*
X18602134Y-14875650D02*
X18630706Y-14875650D01*
X18630706Y-14875650D02*
X18649753Y-14885174D01*
X18649753Y-14885174D02*
X18659277Y-14894698D01*
X18659277Y-14894698D02*
X18668801Y-14913746D01*
X18668801Y-14913746D02*
X18668801Y-14970888D01*
X18668801Y-14970888D02*
X18659277Y-14989936D01*
X18659277Y-14989936D02*
X18649753Y-14999460D01*
X18649753Y-14999460D02*
X18630706Y-15008984D01*
X18630706Y-15008984D02*
X18602134Y-15008984D01*
X18783087Y-15008984D02*
X18764039Y-14999460D01*
X18764039Y-14999460D02*
X18754515Y-14980412D01*
X18754515Y-14980412D02*
X18754515Y-14808984D01*
X18935468Y-14999460D02*
X18916420Y-15008984D01*
X18916420Y-15008984D02*
X18878325Y-15008984D01*
X18878325Y-15008984D02*
X18859277Y-14999460D01*
X18859277Y-14999460D02*
X18849753Y-14980412D01*
X18849753Y-14980412D02*
X18849753Y-14904222D01*
X18849753Y-14904222D02*
X18859277Y-14885174D01*
X18859277Y-14885174D02*
X18878325Y-14875650D01*
X18878325Y-14875650D02*
X18916420Y-14875650D01*
X18916420Y-14875650D02*
X18935468Y-14885174D01*
X18935468Y-14885174D02*
X18944992Y-14904222D01*
X18944992Y-14904222D02*
X18944992Y-14923269D01*
X18944992Y-14923269D02*
X18849753Y-14942317D01*
X19021182Y-14999460D02*
X19040230Y-15008984D01*
X19040230Y-15008984D02*
X19078325Y-15008984D01*
X19078325Y-15008984D02*
X19097373Y-14999460D01*
X19097373Y-14999460D02*
X19106896Y-14980412D01*
X19106896Y-14980412D02*
X19106896Y-14970888D01*
X19106896Y-14970888D02*
X19097373Y-14951841D01*
X19097373Y-14951841D02*
X19078325Y-14942317D01*
X19078325Y-14942317D02*
X19049753Y-14942317D01*
X19049753Y-14942317D02*
X19030706Y-14932793D01*
X19030706Y-14932793D02*
X19021182Y-14913746D01*
X19021182Y-14913746D02*
X19021182Y-14904222D01*
X19021182Y-14904222D02*
X19030706Y-14885174D01*
X19030706Y-14885174D02*
X19049753Y-14875650D01*
X19049753Y-14875650D02*
X19078325Y-14875650D01*
X19078325Y-14875650D02*
X19097373Y-14885174D01*
X19173563Y-15085174D02*
X19183087Y-15075650D01*
X19183087Y-15075650D02*
X19202134Y-15047079D01*
X19202134Y-15047079D02*
X19211658Y-15028031D01*
X19211658Y-15028031D02*
X19221182Y-14999460D01*
X19221182Y-14999460D02*
X19230706Y-14951841D01*
X19230706Y-14951841D02*
X19230706Y-14913746D01*
X19230706Y-14913746D02*
X19221182Y-14866127D01*
X19221182Y-14866127D02*
X19211658Y-14837555D01*
X19211658Y-14837555D02*
X19202134Y-14818508D01*
X19202134Y-14818508D02*
X19183087Y-14789936D01*
X19183087Y-14789936D02*
X19173563Y-14780412D01*
X19535468Y-15085174D02*
X19525944Y-15075650D01*
X19525944Y-15075650D02*
X19506896Y-15047079D01*
X19506896Y-15047079D02*
X19497373Y-15028031D01*
X19497373Y-15028031D02*
X19487849Y-14999460D01*
X19487849Y-14999460D02*
X19478325Y-14951841D01*
X19478325Y-14951841D02*
X19478325Y-14913746D01*
X19478325Y-14913746D02*
X19487849Y-14866127D01*
X19487849Y-14866127D02*
X19497373Y-14837555D01*
X19497373Y-14837555D02*
X19506896Y-14818508D01*
X19506896Y-14818508D02*
X19525944Y-14789936D01*
X19525944Y-14789936D02*
X19535468Y-14780412D01*
X19611658Y-14875650D02*
X19611658Y-15008984D01*
X19611658Y-14894698D02*
X19621182Y-14885174D01*
X19621182Y-14885174D02*
X19640230Y-14875650D01*
X19640230Y-14875650D02*
X19668801Y-14875650D01*
X19668801Y-14875650D02*
X19687849Y-14885174D01*
X19687849Y-14885174D02*
X19697373Y-14904222D01*
X19697373Y-14904222D02*
X19697373Y-15008984D01*
X19821182Y-15008984D02*
X19802134Y-14999460D01*
X19802134Y-14999460D02*
X19792611Y-14989936D01*
X19792611Y-14989936D02*
X19783087Y-14970888D01*
X19783087Y-14970888D02*
X19783087Y-14913746D01*
X19783087Y-14913746D02*
X19792611Y-14894698D01*
X19792611Y-14894698D02*
X19802134Y-14885174D01*
X19802134Y-14885174D02*
X19821182Y-14875650D01*
X19821182Y-14875650D02*
X19849754Y-14875650D01*
X19849754Y-14875650D02*
X19868801Y-14885174D01*
X19868801Y-14885174D02*
X19878325Y-14894698D01*
X19878325Y-14894698D02*
X19887849Y-14913746D01*
X19887849Y-14913746D02*
X19887849Y-14970888D01*
X19887849Y-14970888D02*
X19878325Y-14989936D01*
X19878325Y-14989936D02*
X19868801Y-14999460D01*
X19868801Y-14999460D02*
X19849754Y-15008984D01*
X19849754Y-15008984D02*
X19821182Y-15008984D01*
X19944992Y-14875650D02*
X20021182Y-14875650D01*
X19973563Y-14808984D02*
X19973563Y-14980412D01*
X19973563Y-14980412D02*
X19983087Y-14999460D01*
X19983087Y-14999460D02*
X20002134Y-15008984D01*
X20002134Y-15008984D02*
X20021182Y-15008984D01*
X20240230Y-14875650D02*
X20240230Y-15075650D01*
X20240230Y-14885174D02*
X20259277Y-14875650D01*
X20259277Y-14875650D02*
X20297373Y-14875650D01*
X20297373Y-14875650D02*
X20316420Y-14885174D01*
X20316420Y-14885174D02*
X20325944Y-14894698D01*
X20325944Y-14894698D02*
X20335468Y-14913746D01*
X20335468Y-14913746D02*
X20335468Y-14970888D01*
X20335468Y-14970888D02*
X20325944Y-14989936D01*
X20325944Y-14989936D02*
X20316420Y-14999460D01*
X20316420Y-14999460D02*
X20297373Y-15008984D01*
X20297373Y-15008984D02*
X20259277Y-15008984D01*
X20259277Y-15008984D02*
X20240230Y-14999460D01*
X20449754Y-15008984D02*
X20430706Y-14999460D01*
X20430706Y-14999460D02*
X20421182Y-14980412D01*
X20421182Y-14980412D02*
X20421182Y-14808984D01*
X20611658Y-15008984D02*
X20611658Y-14904222D01*
X20611658Y-14904222D02*
X20602135Y-14885174D01*
X20602135Y-14885174D02*
X20583087Y-14875650D01*
X20583087Y-14875650D02*
X20544992Y-14875650D01*
X20544992Y-14875650D02*
X20525944Y-14885174D01*
X20611658Y-14999460D02*
X20592611Y-15008984D01*
X20592611Y-15008984D02*
X20544992Y-15008984D01*
X20544992Y-15008984D02*
X20525944Y-14999460D01*
X20525944Y-14999460D02*
X20516420Y-14980412D01*
X20516420Y-14980412D02*
X20516420Y-14961365D01*
X20516420Y-14961365D02*
X20525944Y-14942317D01*
X20525944Y-14942317D02*
X20544992Y-14932793D01*
X20544992Y-14932793D02*
X20592611Y-14932793D01*
X20592611Y-14932793D02*
X20611658Y-14923269D01*
X20678325Y-14875650D02*
X20754515Y-14875650D01*
X20706896Y-14808984D02*
X20706896Y-14980412D01*
X20706896Y-14980412D02*
X20716420Y-14999460D01*
X20716420Y-14999460D02*
X20735468Y-15008984D01*
X20735468Y-15008984D02*
X20754515Y-15008984D01*
X20897373Y-14999460D02*
X20878325Y-15008984D01*
X20878325Y-15008984D02*
X20840230Y-15008984D01*
X20840230Y-15008984D02*
X20821182Y-14999460D01*
X20821182Y-14999460D02*
X20811658Y-14980412D01*
X20811658Y-14980412D02*
X20811658Y-14904222D01*
X20811658Y-14904222D02*
X20821182Y-14885174D01*
X20821182Y-14885174D02*
X20840230Y-14875650D01*
X20840230Y-14875650D02*
X20878325Y-14875650D01*
X20878325Y-14875650D02*
X20897373Y-14885174D01*
X20897373Y-14885174D02*
X20906896Y-14904222D01*
X20906896Y-14904222D02*
X20906896Y-14923269D01*
X20906896Y-14923269D02*
X20811658Y-14942317D01*
X21078325Y-15008984D02*
X21078325Y-14808984D01*
X21078325Y-14999460D02*
X21059277Y-15008984D01*
X21059277Y-15008984D02*
X21021182Y-15008984D01*
X21021182Y-15008984D02*
X21002135Y-14999460D01*
X21002135Y-14999460D02*
X20992611Y-14989936D01*
X20992611Y-14989936D02*
X20983087Y-14970888D01*
X20983087Y-14970888D02*
X20983087Y-14913746D01*
X20983087Y-14913746D02*
X20992611Y-14894698D01*
X20992611Y-14894698D02*
X21002135Y-14885174D01*
X21002135Y-14885174D02*
X21021182Y-14875650D01*
X21021182Y-14875650D02*
X21059277Y-14875650D01*
X21059277Y-14875650D02*
X21078325Y-14885174D01*
X21154516Y-15085174D02*
X21164039Y-15075650D01*
X21164039Y-15075650D02*
X21183087Y-15047079D01*
X21183087Y-15047079D02*
X21192611Y-15028031D01*
X21192611Y-15028031D02*
X21202135Y-14999460D01*
X21202135Y-14999460D02*
X21211658Y-14951841D01*
X21211658Y-14951841D02*
X21211658Y-14913746D01*
X21211658Y-14913746D02*
X21202135Y-14866127D01*
X21202135Y-14866127D02*
X21192611Y-14837555D01*
X21192611Y-14837555D02*
X21183087Y-14818508D01*
X21183087Y-14818508D02*
X21164039Y-14789936D01*
X21164039Y-14789936D02*
X21154516Y-14780412D01*
M02*
