G04 #@! TF.GenerationSoftware,KiCad,Pcbnew,9.0.3*
G04 #@! TF.CreationDate,2025-08-18T18:11:48-04:00*
G04 #@! TF.ProjectId,Calender,43616c65-6e64-4657-922e-6b696361645f,rev?*
G04 #@! TF.SameCoordinates,Original*
G04 #@! TF.FileFunction,Legend,Bot*
G04 #@! TF.FilePolarity,Positive*
%FSLAX46Y46*%
G04 Gerber Fmt 4.6, Leading zero omitted, Abs format (unit mm)*
G04 Created by KiCad (PCBNEW 9.0.3) date 2025-08-18 18:11:48*
%MOMM*%
%LPD*%
G01*
G04 APERTURE LIST*
%ADD10C,0.120000*%
%ADD11C,2.000000*%
%ADD12R,3.000000X3.000000*%
%ADD13C,3.000000*%
%ADD14R,0.850000X0.850000*%
%ADD15C,0.850000*%
%ADD16R,2.000000X2.000000*%
%ADD17R,3.200000X2.000000*%
%ADD18C,0.650000*%
%ADD19O,2.100000X1.000000*%
%ADD20O,1.600000X1.000000*%
%ADD21R,1.700000X1.700000*%
%ADD22C,1.700000*%
%ADD23R,4.000000X4.000000*%
G04 APERTURE END LIST*
D10*
G04 #@! TO.C,TP1*
X217800000Y-117800000D02*
X217800000Y-122200000D01*
X217800000Y-122200000D02*
X222200000Y-122200000D01*
X222200000Y-117800000D02*
X217800000Y-117800000D01*
X222200000Y-122200000D02*
X222200000Y-117800000D01*
G04 #@! TO.C,TP2*
X179768375Y-136861091D02*
X179768375Y-141261091D01*
X179768375Y-141261091D02*
X184168375Y-141261091D01*
X184168375Y-136861091D02*
X179768375Y-136861091D01*
X184168375Y-141261091D02*
X184168375Y-136861091D01*
G04 #@! TO.C,TP3*
X169505075Y-117456447D02*
X169505075Y-121856447D01*
X169505075Y-121856447D02*
X173905075Y-121856447D01*
X173905075Y-117456447D02*
X169505075Y-117456447D01*
X173905075Y-121856447D02*
X173905075Y-117456447D01*
G04 #@! TO.C,TP5*
X207800000Y-117300000D02*
X207800000Y-121700000D01*
X207800000Y-121700000D02*
X212200000Y-121700000D01*
X212200000Y-117300000D02*
X207800000Y-117300000D01*
X212200000Y-121700000D02*
X212200000Y-117300000D01*
G04 #@! TO.C,TP4*
X199800000Y-117300000D02*
X199800000Y-121700000D01*
X199800000Y-121700000D02*
X204200000Y-121700000D01*
X204200000Y-117300000D02*
X199800000Y-117300000D01*
X204200000Y-121700000D02*
X204200000Y-117300000D01*
G04 #@! TO.C,TP8*
X222800000Y-117800000D02*
X222800000Y-122200000D01*
X222800000Y-122200000D02*
X227200000Y-122200000D01*
X227200000Y-117800000D02*
X222800000Y-117800000D01*
X227200000Y-122200000D02*
X227200000Y-117800000D01*
G04 #@! TD*
%LPC*%
D11*
G04 #@! TO.C,SW3*
X214000000Y-136500000D03*
X220500000Y-136500000D03*
X214000000Y-141000000D03*
X220500000Y-141000000D03*
G04 #@! TD*
D12*
G04 #@! TO.C,J3*
X146685578Y-138500000D03*
D13*
X151765578Y-138500000D03*
G04 #@! TD*
D14*
G04 #@! TO.C,J1*
X234345000Y-130340000D03*
D15*
X234345000Y-131340000D03*
X234345000Y-132340000D03*
X234345000Y-133340000D03*
X234345000Y-134340000D03*
X234345000Y-135340000D03*
X234345000Y-136340000D03*
X234345000Y-137340000D03*
X234345000Y-138340000D03*
G04 #@! TD*
D16*
G04 #@! TO.C,SW1*
X162750000Y-133000000D03*
D11*
X162750000Y-138000000D03*
X162750000Y-135500000D03*
D17*
X170250000Y-129900000D03*
X170250000Y-141100000D03*
D11*
X177250000Y-138000000D03*
X177250000Y-133000000D03*
G04 #@! TD*
G04 #@! TO.C,SW2*
X229500000Y-117500000D03*
X236000000Y-117500000D03*
X229500000Y-122000000D03*
X236000000Y-122000000D03*
G04 #@! TD*
D18*
G04 #@! TO.C,J2*
X149105000Y-118110000D03*
X149105000Y-123890000D03*
D19*
X149605000Y-116680000D03*
D20*
X145425000Y-116680000D03*
D19*
X149605000Y-125320000D03*
D20*
X145425000Y-125320000D03*
G04 #@! TD*
D21*
G04 #@! TO.C,J4*
X196380000Y-124000000D03*
D22*
X198920000Y-124000000D03*
X201460000Y-124000000D03*
X204000000Y-124000000D03*
G04 #@! TD*
D11*
G04 #@! TO.C,SW4*
X187500000Y-136500000D03*
X194000000Y-136500000D03*
X187500000Y-141000000D03*
X194000000Y-141000000D03*
G04 #@! TD*
D23*
G04 #@! TO.C,TP1*
X220000000Y-120000000D03*
G04 #@! TD*
G04 #@! TO.C,TP2*
X181968375Y-139061091D03*
G04 #@! TD*
G04 #@! TO.C,TP3*
X171705075Y-119656447D03*
G04 #@! TD*
G04 #@! TO.C,TP5*
X210000000Y-119500000D03*
G04 #@! TD*
G04 #@! TO.C,TP4*
X202000000Y-119500000D03*
G04 #@! TD*
G04 #@! TO.C,TP8*
X225000000Y-120000000D03*
G04 #@! TD*
%LPD*%
M02*
